<svg width="35" height="28" viewBox="0 0 35 28" fill="none" xmlns="http://www.w3.org/2000/svg">
<g filter="url(#filter0_i_928_3982)">
<path d="M23.2738 5.653C23.2738 5.45841 23.3511 5.2718 23.4887 5.1342C23.6263 4.99661 23.8129 4.91931 24.0075 4.91931H29.7523C29.9469 4.91931 30.1335 4.99661 30.2711 5.1342C30.4087 5.2718 30.486 5.45841 30.486 5.653V6.98342H23.2738V5.653Z" fill="url(#paint0_linear_928_3982)"/>
<path d="M23.2738 5.653C23.2738 5.45841 23.3511 5.2718 23.4887 5.1342C23.6263 4.99661 23.8129 4.91931 24.0075 4.91931H29.7523C29.9469 4.91931 30.1335 4.99661 30.2711 5.1342C30.4087 5.2718 30.486 5.45841 30.486 5.653V6.98342H23.2738V5.653Z" fill="url(#paint1_radial_928_3982)"/>
</g>
<g filter="url(#filter1_i_928_3982)">
<path d="M3.72713 5.59186C3.72713 5.41349 3.79799 5.24242 3.92412 5.1163C4.05025 4.99017 4.22131 4.91931 4.39968 4.91931H7.90794C8.08631 4.91931 8.25737 4.99017 8.3835 5.1163C8.50963 5.24242 8.58048 5.41349 8.58048 5.59186V6.98342H3.72713V5.59186Z" fill="url(#paint2_linear_928_3982)"/>
<path d="M3.72713 5.59186C3.72713 5.41349 3.79799 5.24242 3.92412 5.1163C4.05025 4.99017 4.22131 4.91931 4.39968 4.91931H7.90794C8.08631 4.91931 8.25737 4.99017 8.3835 5.1163C8.50963 5.24242 8.58048 5.41349 8.58048 5.59186V6.98342H3.72713V5.59186Z" fill="url(#paint3_radial_928_3982)"/>
</g>
<path d="M0.0012207 25.8417C0.0012207 27.0339 0.967244 28 2.15949 28H32.0059C33.197 28 34.1642 27.0339 34.1642 25.8417C34.1642 25.8213 34.1561 25.8017 34.1416 25.7872C34.1272 25.7728 34.1076 25.7646 34.0872 25.7646H0.0782582C0.0578267 25.7646 0.0382319 25.7728 0.0237846 25.7872C0.00933727 25.8017 0.0012207 25.8213 0.0012207 25.8417Z" fill="url(#paint4_linear_928_3982)"/>
<path d="M0.0012207 25.8417C0.0012207 27.0339 0.967244 28 2.15949 28H32.0059C33.197 28 34.1642 27.0339 34.1642 25.8417C34.1642 25.8213 34.1561 25.8017 34.1416 25.7872C34.1272 25.7728 34.1076 25.7646 34.0872 25.7646H0.0782582C0.0578267 25.7646 0.0382319 25.7728 0.0237846 25.7872C0.00933727 25.8017 0.0012207 25.8213 0.0012207 25.8417Z" fill="url(#paint5_linear_928_3982)"/>
<path d="M0.0012207 25.8417C0.0012207 27.0339 0.967244 28 2.15949 28H32.0059C33.197 28 34.1642 27.0339 34.1642 25.8417C34.1642 25.8213 34.1561 25.8017 34.1416 25.7872C34.1272 25.7728 34.1076 25.7646 34.0872 25.7646H0.0782582C0.0578267 25.7646 0.0382319 25.7728 0.0237846 25.7872C0.00933727 25.8017 0.0012207 25.8213 0.0012207 25.8417Z" fill="url(#paint6_linear_928_3982)"/>
<path d="M0.0012207 25.8417C0.0012207 27.0339 0.967244 28 2.15949 28H32.0059C33.197 28 34.1642 27.0339 34.1642 25.8417C34.1642 25.8213 34.1561 25.8017 34.1416 25.7872C34.1272 25.7728 34.1076 25.7646 34.0872 25.7646H0.0782582C0.0578267 25.7646 0.0382319 25.7728 0.0237846 25.7872C0.00933727 25.8017 0.0012207 25.8213 0.0012207 25.8417Z" fill="url(#paint7_radial_928_3982)"/>
<path d="M0.0012207 25.8417C0.0012207 27.0339 0.967244 28 2.15949 28H32.0059C33.197 28 34.1642 27.0339 34.1642 25.8417C34.1642 25.8213 34.1561 25.8017 34.1416 25.7872C34.1272 25.7728 34.1076 25.7646 34.0872 25.7646H0.0782582C0.0578267 25.7646 0.0382319 25.7728 0.0237846 25.7872C0.00933727 25.8017 0.0012207 25.8213 0.0012207 25.8417Z" fill="url(#paint8_radial_928_3982)"/>
<path d="M0.00122273 11.2255C0.00122273 11.1444 0.0334307 11.0667 0.0907613 11.0093C0.148092 10.952 0.225849 10.9198 0.306926 10.9198H33.8597C33.9408 10.9198 34.0186 10.952 34.0759 11.0093C34.1332 11.0667 34.1654 11.1444 34.1654 11.2255V25.4591C34.1654 25.5401 34.1332 25.6179 34.0759 25.6752C34.0186 25.7326 33.9408 25.7648 33.8597 25.7648H0.305704C0.224626 25.7648 0.146869 25.7326 0.0895386 25.6752C0.032208 25.6179 0 25.5401 0 25.4591L0.00122273 11.2255Z" fill="url(#paint9_linear_928_3982)"/>
<path d="M0.00122273 11.2255C0.00122273 11.1444 0.0334307 11.0667 0.0907613 11.0093C0.148092 10.952 0.225849 10.9198 0.306926 10.9198H33.8597C33.9408 10.9198 34.0186 10.952 34.0759 11.0093C34.1332 11.0667 34.1654 11.1444 34.1654 11.2255V25.4591C34.1654 25.5401 34.1332 25.6179 34.0759 25.6752C34.0186 25.7326 33.9408 25.7648 33.8597 25.7648H0.305704C0.224626 25.7648 0.146869 25.7326 0.0895386 25.6752C0.032208 25.6179 0 25.5401 0 25.4591L0.00122273 11.2255Z" fill="url(#paint10_linear_928_3982)"/>
<path d="M0.00122273 11.2255C0.00122273 11.1444 0.0334307 11.0667 0.0907613 11.0093C0.148092 10.952 0.225849 10.9198 0.306926 10.9198H33.8597C33.9408 10.9198 34.0186 10.952 34.0759 11.0093C34.1332 11.0667 34.1654 11.1444 34.1654 11.2255V25.4591C34.1654 25.5401 34.1332 25.6179 34.0759 25.6752C34.0186 25.7326 33.9408 25.7648 33.8597 25.7648H0.305704C0.224626 25.7648 0.146869 25.7326 0.0895386 25.6752C0.032208 25.6179 0 25.5401 0 25.4591L0.00122273 11.2255Z" fill="url(#paint11_linear_928_3982)"/>
<path d="M0.00122273 11.2255C0.00122273 11.1444 0.0334307 11.0667 0.0907613 11.0093C0.148092 10.952 0.225849 10.9198 0.306926 10.9198H33.8597C33.9408 10.9198 34.0186 10.952 34.0759 11.0093C34.1332 11.0667 34.1654 11.1444 34.1654 11.2255V25.4591C34.1654 25.5401 34.1332 25.6179 34.0759 25.6752C34.0186 25.7326 33.9408 25.7648 33.8597 25.7648H0.305704C0.224626 25.7648 0.146869 25.7326 0.0895386 25.6752C0.032208 25.6179 0 25.5401 0 25.4591L0.00122273 11.2255Z" fill="url(#paint12_linear_928_3982)"/>
<path d="M0.00122273 11.2255C0.00122273 11.1444 0.0334307 11.0667 0.0907613 11.0093C0.148092 10.952 0.225849 10.9198 0.306926 10.9198H33.8597C33.9408 10.9198 34.0186 10.952 34.0759 11.0093C34.1332 11.0667 34.1654 11.1444 34.1654 11.2255V25.4591C34.1654 25.5401 34.1332 25.6179 34.0759 25.6752C34.0186 25.7326 33.9408 25.7648 33.8597 25.7648H0.305704C0.224626 25.7648 0.146869 25.7326 0.0895386 25.6752C0.032208 25.6179 0 25.5401 0 25.4591L0.00122273 11.2255Z" fill="url(#paint13_linear_928_3982)"/>
<path d="M0.00122273 11.2255C0.00122273 11.1444 0.0334307 11.0667 0.0907613 11.0093C0.148092 10.952 0.225849 10.9198 0.306926 10.9198H33.8597C33.9408 10.9198 34.0186 10.952 34.0759 11.0093C34.1332 11.0667 34.1654 11.1444 34.1654 11.2255V25.4591C34.1654 25.5401 34.1332 25.6179 34.0759 25.6752C34.0186 25.7326 33.9408 25.7648 33.8597 25.7648H0.305704C0.224626 25.7648 0.146869 25.7326 0.0895386 25.6752C0.032208 25.6179 0 25.5401 0 25.4591L0.00122273 11.2255Z" fill="url(#paint14_linear_928_3982)"/>
<path d="M0.00122273 11.2255C0.00122273 11.1444 0.0334307 11.0667 0.0907613 11.0093C0.148092 10.952 0.225849 10.9198 0.306926 10.9198H33.8597C33.9408 10.9198 34.0186 10.952 34.0759 11.0093C34.1332 11.0667 34.1654 11.1444 34.1654 11.2255V25.4591C34.1654 25.5401 34.1332 25.6179 34.0759 25.6752C34.0186 25.7326 33.9408 25.7648 33.8597 25.7648H0.305704C0.224626 25.7648 0.146869 25.7326 0.0895386 25.6752C0.032208 25.6179 0 25.5401 0 25.4591L0.00122273 11.2255Z" fill="url(#paint15_radial_928_3982)"/>
<g filter="url(#filter2_f_928_3982)">
<path d="M32.9989 11.311H33.5724V25.3734H32.9989V11.311Z" fill="#8D8D92"/>
</g>
<g filter="url(#filter3_f_928_3982)">
<path d="M8.86785 10.6593C8.62207 11.0286 8.39095 11.4382 8.17574 11.8919H8.16351C8.05254 12.132 7.87514 12.3354 7.65227 12.4779C7.4294 12.6204 7.17039 12.6962 6.90585 12.6962C6.6413 12.6962 6.38229 12.6204 6.15942 12.4779C5.93655 12.3354 5.75915 12.132 5.64818 11.8919H5.64451C5.44448 11.4645 5.21314 11.0526 4.9524 10.6593H8.86785Z" fill="#4E474A"/>
</g>
<g filter="url(#filter4_i_928_3982)">
<path d="M0.00122273 8.57807C0.00122273 7.92945 0.258887 7.3074 0.717531 6.84875C1.17618 6.39011 1.79823 6.13245 2.44685 6.13245H31.7198C32.3684 6.13245 32.9905 6.39011 33.4491 6.84875C33.9078 7.3074 34.1654 7.92945 34.1654 8.57807V10.6141C34.1654 10.6951 34.1332 10.7729 34.0759 10.8302C34.0186 10.8876 33.9408 10.9198 33.8597 10.9198H0.305704C0.224626 10.9198 0.146869 10.8876 0.0895386 10.8302C0.032208 10.7729 0 10.6951 0 10.6141L0.00122273 8.57807Z" fill="#DAD4E6"/>
<path d="M0.00122273 8.57807C0.00122273 7.92945 0.258887 7.3074 0.717531 6.84875C1.17618 6.39011 1.79823 6.13245 2.44685 6.13245H31.7198C32.3684 6.13245 32.9905 6.39011 33.4491 6.84875C33.9078 7.3074 34.1654 7.92945 34.1654 8.57807V10.6141C34.1654 10.6951 34.1332 10.7729 34.0759 10.8302C34.0186 10.8876 33.9408 10.9198 33.8597 10.9198H0.305704C0.224626 10.9198 0.146869 10.8876 0.0895386 10.8302C0.032208 10.7729 0 10.6951 0 10.6141L0.00122273 8.57807Z" fill="url(#paint16_linear_928_3982)"/>
<path d="M0.00122273 8.57807C0.00122273 7.92945 0.258887 7.3074 0.717531 6.84875C1.17618 6.39011 1.79823 6.13245 2.44685 6.13245H31.7198C32.3684 6.13245 32.9905 6.39011 33.4491 6.84875C33.9078 7.3074 34.1654 7.92945 34.1654 8.57807V10.6141C34.1654 10.6951 34.1332 10.7729 34.0759 10.8302C34.0186 10.8876 33.9408 10.9198 33.8597 10.9198H0.305704C0.224626 10.9198 0.146869 10.8876 0.0895386 10.8302C0.032208 10.7729 0 10.6951 0 10.6141L0.00122273 8.57807Z" fill="url(#paint17_linear_928_3982)"/>
<path d="M0.00122273 8.57807C0.00122273 7.92945 0.258887 7.3074 0.717531 6.84875C1.17618 6.39011 1.79823 6.13245 2.44685 6.13245H31.7198C32.3684 6.13245 32.9905 6.39011 33.4491 6.84875C33.9078 7.3074 34.1654 7.92945 34.1654 8.57807V10.6141C34.1654 10.6951 34.1332 10.7729 34.0759 10.8302C34.0186 10.8876 33.9408 10.9198 33.8597 10.9198H0.305704C0.224626 10.9198 0.146869 10.8876 0.0895386 10.8302C0.032208 10.7729 0 10.6951 0 10.6141L0.00122273 8.57807Z" fill="url(#paint18_linear_928_3982)"/>
<path d="M0.00122273 8.57807C0.00122273 7.92945 0.258887 7.3074 0.717531 6.84875C1.17618 6.39011 1.79823 6.13245 2.44685 6.13245H31.7198C32.3684 6.13245 32.9905 6.39011 33.4491 6.84875C33.9078 7.3074 34.1654 7.92945 34.1654 8.57807V10.6141C34.1654 10.6951 34.1332 10.7729 34.0759 10.8302C34.0186 10.8876 33.9408 10.9198 33.8597 10.9198H0.305704C0.224626 10.9198 0.146869 10.8876 0.0895386 10.8302C0.032208 10.7729 0 10.6951 0 10.6141L0.00122273 8.57807Z" fill="url(#paint19_radial_928_3982)"/>
<path d="M0.00122273 8.57807C0.00122273 7.92945 0.258887 7.3074 0.717531 6.84875C1.17618 6.39011 1.79823 6.13245 2.44685 6.13245H31.7198C32.3684 6.13245 32.9905 6.39011 33.4491 6.84875C33.9078 7.3074 34.1654 7.92945 34.1654 8.57807V10.6141C34.1654 10.6951 34.1332 10.7729 34.0759 10.8302C34.0186 10.8876 33.9408 10.9198 33.8597 10.9198H0.305704C0.224626 10.9198 0.146869 10.8876 0.0895386 10.8302C0.032208 10.7729 0 10.6951 0 10.6141L0.00122273 8.57807Z" fill="url(#paint20_linear_928_3982)"/>
</g>
<g filter="url(#filter5_iiii_928_3982)">
<path d="M17.0827 26.8836C21.8209 26.8836 25.662 23.0426 25.662 18.3044C25.662 13.5662 21.8209 9.7251 17.0827 9.7251C12.3445 9.7251 8.50346 13.5662 8.50346 18.3044C8.50346 23.0426 12.3445 26.8836 17.0827 26.8836Z" fill="url(#paint21_radial_928_3982)"/>
</g>
<g filter="url(#filter6_f_928_3982)">
<path d="M17.0827 24.3805C20.4385 24.3805 23.1589 21.6601 23.1589 18.3043C23.1589 14.9485 20.4385 12.2281 17.0827 12.2281C13.7269 12.2281 11.0065 14.9485 11.0065 18.3043C11.0065 21.6601 13.7269 24.3805 17.0827 24.3805Z" stroke="url(#paint22_linear_928_3982)" stroke-width="0.3"/>
<path d="M17.0827 24.3805C20.4385 24.3805 23.1589 21.6601 23.1589 18.3043C23.1589 14.9485 20.4385 12.2281 17.0827 12.2281C13.7269 12.2281 11.0065 14.9485 11.0065 18.3043C11.0065 21.6601 13.7269 24.3805 17.0827 24.3805Z" stroke="url(#paint23_linear_928_3982)" stroke-width="0.3"/>
</g>
<path d="M17.0827 24.3805C20.4385 24.3805 23.1589 21.6601 23.1589 18.3043C23.1589 14.9485 20.4385 12.2281 17.0827 12.2281C13.7269 12.2281 11.0065 14.9485 11.0065 18.3043C11.0065 21.6601 13.7269 24.3805 17.0827 24.3805Z" fill="url(#paint24_radial_928_3982)"/>
<path d="M17.0827 24.3805C20.4385 24.3805 23.1589 21.6601 23.1589 18.3043C23.1589 14.9485 20.4385 12.2281 17.0827 12.2281C13.7269 12.2281 11.0065 14.9485 11.0065 18.3043C11.0065 21.6601 13.7269 24.3805 17.0827 24.3805Z" fill="url(#paint25_linear_928_3982)"/>
<g filter="url(#filter7_f_928_3982)">
<path d="M17.0827 23.6259C20.0218 23.6259 22.4044 21.2433 22.4044 18.3042C22.4044 15.3651 20.0218 12.9825 17.0827 12.9825C14.1436 12.9825 11.761 15.3651 11.761 18.3042C11.761 21.2433 14.1436 23.6259 17.0827 23.6259Z" fill="url(#paint26_radial_928_3982)"/>
<path d="M17.0827 23.6259C20.0218 23.6259 22.4044 21.2433 22.4044 18.3042C22.4044 15.3651 20.0218 12.9825 17.0827 12.9825C14.1436 12.9825 11.761 15.3651 11.761 18.3042C11.761 21.2433 14.1436 23.6259 17.0827 23.6259Z" fill="url(#paint27_radial_928_3982)"/>
</g>
<path d="M17.0827 21.3038C18.7393 21.3038 20.0823 19.9609 20.0823 18.3042C20.0823 16.6476 18.7393 15.3047 17.0827 15.3047C15.4261 15.3047 14.0832 16.6476 14.0832 18.3042C14.0832 19.9609 15.4261 21.3038 17.0827 21.3038Z" fill="url(#paint28_linear_928_3982)"/>
<path d="M17.0827 21.3038C18.7393 21.3038 20.0823 19.9609 20.0823 18.3042C20.0823 16.6476 18.7393 15.3047 17.0827 15.3047C15.4261 15.3047 14.0832 16.6476 14.0832 18.3042C14.0832 19.9609 15.4261 21.3038 17.0827 21.3038Z" fill="url(#paint29_radial_928_3982)"/>
<path d="M17.0827 21.3038C18.7393 21.3038 20.0823 19.9609 20.0823 18.3042C20.0823 16.6476 18.7393 15.3047 17.0827 15.3047C15.4261 15.3047 14.0832 16.6476 14.0832 18.3042C14.0832 19.9609 15.4261 21.3038 17.0827 21.3038Z" fill="url(#paint30_radial_928_3982)"/>
<path d="M20.3027 16.9125C20.7659 16.5885 20.8144 15.8584 20.411 15.2817C20.0077 14.7051 19.3052 14.5003 18.842 14.8243C18.3788 15.1483 18.3303 15.8785 18.7337 16.4551C19.1371 17.0317 19.8395 17.2365 20.3027 16.9125Z" fill="url(#paint31_linear_928_3982)"/>
<g filter="url(#filter8_f_928_3982)">
<path d="M5.00743 10.7278C4.116 9.39369 2.97756 8.77495 1.833 8.28093C1.30719 8.08406 1.12988 7.91286 1.12988 7.31858C1.12988 7.19263 1.09809 6.89915 1.12988 6.78298C1.5383 6.47728 2.09224 6.46872 2.6425 6.46872L12.7344 6.13245C12.8347 6.25717 12.7344 6.24128 12.7344 6.46872C12.7344 7.03488 12.3773 7.21708 11.8906 7.4323V7.43474C10.7057 7.93487 9.68591 9.1956 8.77247 10.7278H5.00743Z" fill="#A99A99"/>
</g>
<g filter="url(#filter9_i_928_3982)">
<path d="M7.42493 0C7.98131 0 8.46187 0.328937 8.68198 0.802166H8.69421C9.69692 2.92742 11.0836 4.07442 12.5693 4.7005V4.70294C12.815 4.81141 13.0239 4.98896 13.1705 5.21398C13.3172 5.43901 13.3952 5.7018 13.3952 5.97039C13.3952 6.23898 13.3172 6.50177 13.1705 6.7268C13.0239 6.95182 12.815 7.12937 12.5693 7.23784V7.24151C11.0836 7.86636 9.69814 9.01336 8.69543 11.1386C8.58492 11.3819 8.40561 11.5875 8.17962 11.73C7.95363 11.8726 7.69085 11.9458 7.4237 11.9408C7.15961 11.9411 6.90096 11.8657 6.67839 11.7235C6.45582 11.5813 6.27865 11.3784 6.16787 11.1386H6.16298C5.17495 9.04271 3.81518 7.89938 2.35269 7.26841C2.08851 7.16944 1.86083 6.99219 1.70011 6.76034C1.53938 6.5285 1.45325 6.25311 1.45325 5.971C1.45325 5.68889 1.53938 5.4135 1.70011 5.18166C1.86083 4.94981 2.08851 4.77256 2.35269 4.6736C3.81396 4.0414 5.17495 2.89807 6.16298 0.802166H6.16787C6.38798 0.328937 6.86732 0 7.42493 0Z" fill="url(#paint32_radial_928_3982)"/>
<path d="M7.42493 0C7.98131 0 8.46187 0.328937 8.68198 0.802166H8.69421C9.69692 2.92742 11.0836 4.07442 12.5693 4.7005V4.70294C12.815 4.81141 13.0239 4.98896 13.1705 5.21398C13.3172 5.43901 13.3952 5.7018 13.3952 5.97039C13.3952 6.23898 13.3172 6.50177 13.1705 6.7268C13.0239 6.95182 12.815 7.12937 12.5693 7.23784V7.24151C11.0836 7.86636 9.69814 9.01336 8.69543 11.1386C8.58492 11.3819 8.40561 11.5875 8.17962 11.73C7.95363 11.8726 7.69085 11.9458 7.4237 11.9408C7.15961 11.9411 6.90096 11.8657 6.67839 11.7235C6.45582 11.5813 6.27865 11.3784 6.16787 11.1386H6.16298C5.17495 9.04271 3.81518 7.89938 2.35269 7.26841C2.08851 7.16944 1.86083 6.99219 1.70011 6.76034C1.53938 6.5285 1.45325 6.25311 1.45325 5.971C1.45325 5.68889 1.53938 5.4135 1.70011 5.18166C1.86083 4.94981 2.08851 4.77256 2.35269 4.6736C3.81396 4.0414 5.17495 2.89807 6.16298 0.802166H6.16787C6.38798 0.328937 6.86732 0 7.42493 0Z" fill="url(#paint33_radial_928_3982)"/>
</g>
<g filter="url(#filter10_f_928_3982)">
<path d="M7.42493 1.63379C7.82846 1.63379 8.17818 1.87224 8.33715 2.21707H8.34693C9.07573 3.76026 10.0833 4.593 11.1618 5.04789V5.05033C11.3404 5.12909 11.4922 5.25806 11.5988 5.42154C11.7053 5.58502 11.7621 5.77596 11.7621 5.97111C11.7621 6.16626 11.7053 6.3572 11.5988 6.52068C11.4922 6.68416 11.3404 6.81313 11.1618 6.89189V6.89311C10.0821 7.348 9.07573 8.18074 8.34693 9.72515H8.33715C8.25637 9.89919 8.12752 10.0465 7.96579 10.1497C7.80406 10.253 7.61619 10.3078 7.42432 10.3078C7.23245 10.3078 7.04458 10.253 6.88285 10.1497C6.72112 10.0465 6.59227 9.89919 6.51149 9.72515H6.50782C5.79003 8.20275 4.80199 7.37123 3.74059 6.91268C3.54885 6.8407 3.38364 6.71194 3.26701 6.54358C3.15038 6.37523 3.0879 6.1753 3.0879 5.9705C3.0879 5.7657 3.15038 5.56577 3.26701 5.39741C3.38364 5.22906 3.54885 5.1003 3.74059 5.02832C4.80199 4.56977 5.79003 3.73825 6.50782 2.21585H6.51149C6.5924 2.04183 6.72138 1.89458 6.88322 1.79145C7.04507 1.68832 7.23302 1.63362 7.42493 1.63379Z" fill="url(#paint34_radial_928_3982)"/>
</g>
<defs>
<filter id="filter0_i_928_3982" x="23.2738" y="4.91931" width="7.21216" height="2.21409" filterUnits="userSpaceOnUse" color-interpolation-filters="sRGB">
<feFlood flood-opacity="0" result="BackgroundImageFix"/>
<feBlend mode="normal" in="SourceGraphic" in2="BackgroundImageFix" result="shape"/>
<feColorMatrix in="SourceAlpha" type="matrix" values="0 0 0 0 0 0 0 0 0 0 0 0 0 0 0 0 0 0 127 0" result="hardAlpha"/>
<feOffset dy="0.15"/>
<feGaussianBlur stdDeviation="0.2"/>
<feComposite in2="hardAlpha" operator="arithmetic" k2="-1" k3="1"/>
<feColorMatrix type="matrix" values="0 0 0 0 0.701961 0 0 0 0 0.709804 0 0 0 0 0.713726 0 0 0 1 0"/>
<feBlend mode="normal" in2="shape" result="effect1_innerShadow_928_3982"/>
</filter>
<filter id="filter1_i_928_3982" x="3.72713" y="4.91931" width="4.85335" height="2.21409" filterUnits="userSpaceOnUse" color-interpolation-filters="sRGB">
<feFlood flood-opacity="0" result="BackgroundImageFix"/>
<feBlend mode="normal" in="SourceGraphic" in2="BackgroundImageFix" result="shape"/>
<feColorMatrix in="SourceAlpha" type="matrix" values="0 0 0 0 0 0 0 0 0 0 0 0 0 0 0 0 0 0 127 0" result="hardAlpha"/>
<feOffset dy="0.15"/>
<feGaussianBlur stdDeviation="0.2"/>
<feComposite in2="hardAlpha" operator="arithmetic" k2="-1" k3="1"/>
<feColorMatrix type="matrix" values="0 0 0 0 0.701961 0 0 0 0 0.709804 0 0 0 0 0.713726 0 0 0 1 0"/>
<feBlend mode="normal" in2="shape" result="effect1_innerShadow_928_3982"/>
</filter>
<filter id="filter2_f_928_3982" x="32.3489" y="10.661" width="1.8735" height="15.3624" filterUnits="userSpaceOnUse" color-interpolation-filters="sRGB">
<feFlood flood-opacity="0" result="BackgroundImageFix"/>
<feBlend mode="normal" in="SourceGraphic" in2="BackgroundImageFix" result="shape"/>
<feGaussianBlur stdDeviation="0.325" result="effect1_foregroundBlur_928_3982"/>
</filter>
<filter id="filter3_f_928_3982" x="4.3024" y="10.0093" width="5.21545" height="3.33687" filterUnits="userSpaceOnUse" color-interpolation-filters="sRGB">
<feFlood flood-opacity="0" result="BackgroundImageFix"/>
<feBlend mode="normal" in="SourceGraphic" in2="BackgroundImageFix" result="shape"/>
<feGaussianBlur stdDeviation="0.325" result="effect1_foregroundBlur_928_3982"/>
</filter>
<filter id="filter4_i_928_3982" x="0" y="6.13245" width="34.1654" height="4.88735" filterUnits="userSpaceOnUse" color-interpolation-filters="sRGB">
<feFlood flood-opacity="0" result="BackgroundImageFix"/>
<feBlend mode="normal" in="SourceGraphic" in2="BackgroundImageFix" result="shape"/>
<feColorMatrix in="SourceAlpha" type="matrix" values="0 0 0 0 0 0 0 0 0 0 0 0 0 0 0 0 0 0 127 0" result="hardAlpha"/>
<feOffset dy="0.1"/>
<feGaussianBlur stdDeviation="0.15"/>
<feComposite in2="hardAlpha" operator="arithmetic" k2="-1" k3="1"/>
<feColorMatrix type="matrix" values="0 0 0 0 0.796078 0 0 0 0 0.8 0 0 0 0 0.803922 0 0 0 1 0"/>
<feBlend mode="normal" in2="shape" result="effect1_innerShadow_928_3982"/>
</filter>
<filter id="filter5_iiii_928_3982" x="8.35346" y="9.5751" width="17.4585" height="17.4586" filterUnits="userSpaceOnUse" color-interpolation-filters="sRGB">
<feFlood flood-opacity="0" result="BackgroundImageFix"/>
<feBlend mode="normal" in="SourceGraphic" in2="BackgroundImageFix" result="shape"/>
<feColorMatrix in="SourceAlpha" type="matrix" values="0 0 0 0 0 0 0 0 0 0 0 0 0 0 0 0 0 0 127 0" result="hardAlpha"/>
<feOffset dy="-0.15"/>
<feGaussianBlur stdDeviation="0.075"/>
<feComposite in2="hardAlpha" operator="arithmetic" k2="-1" k3="1"/>
<feColorMatrix type="matrix" values="0 0 0 0 0.545098 0 0 0 0 0.529412 0 0 0 0 0.580392 0 0 0 1 0"/>
<feBlend mode="normal" in2="shape" result="effect1_innerShadow_928_3982"/>
<feColorMatrix in="SourceAlpha" type="matrix" values="0 0 0 0 0 0 0 0 0 0 0 0 0 0 0 0 0 0 127 0" result="hardAlpha"/>
<feOffset dx="0.15"/>
<feGaussianBlur stdDeviation="0.075"/>
<feComposite in2="hardAlpha" operator="arithmetic" k2="-1" k3="1"/>
<feColorMatrix type="matrix" values="0 0 0 0 0.564706 0 0 0 0 0.54902 0 0 0 0 0.6 0 0 0 1 0"/>
<feBlend mode="normal" in2="effect1_innerShadow_928_3982" result="effect2_innerShadow_928_3982"/>
<feColorMatrix in="SourceAlpha" type="matrix" values="0 0 0 0 0 0 0 0 0 0 0 0 0 0 0 0 0 0 127 0" result="hardAlpha"/>
<feOffset dy="0.15"/>
<feGaussianBlur stdDeviation="0.075"/>
<feComposite in2="hardAlpha" operator="arithmetic" k2="-1" k3="1"/>
<feColorMatrix type="matrix" values="0 0 0 0 0.619608 0 0 0 0 0.623529 0 0 0 0 0.631373 0 0 0 1 0"/>
<feBlend mode="normal" in2="effect2_innerShadow_928_3982" result="effect3_innerShadow_928_3982"/>
<feColorMatrix in="SourceAlpha" type="matrix" values="0 0 0 0 0 0 0 0 0 0 0 0 0 0 0 0 0 0 127 0" result="hardAlpha"/>
<feOffset dx="-0.15" dy="0.1"/>
<feGaussianBlur stdDeviation="0.125"/>
<feComposite in2="hardAlpha" operator="arithmetic" k2="-1" k3="1"/>
<feColorMatrix type="matrix" values="0 0 0 0 0.803922 0 0 0 0 0.803922 0 0 0 0 0.823529 0 0 0 1 0"/>
<feBlend mode="normal" in2="effect3_innerShadow_928_3982" result="effect4_innerShadow_928_3982"/>
</filter>
<filter id="filter6_f_928_3982" x="10.4565" y="11.6781" width="13.2523" height="13.2524" filterUnits="userSpaceOnUse" color-interpolation-filters="sRGB">
<feFlood flood-opacity="0" result="BackgroundImageFix"/>
<feBlend mode="normal" in="SourceGraphic" in2="BackgroundImageFix" result="shape"/>
<feGaussianBlur stdDeviation="0.2" result="effect1_foregroundBlur_928_3982"/>
</filter>
<filter id="filter7_f_928_3982" x="11.011" y="12.2325" width="12.1434" height="12.1434" filterUnits="userSpaceOnUse" color-interpolation-filters="sRGB">
<feFlood flood-opacity="0" result="BackgroundImageFix"/>
<feBlend mode="normal" in="SourceGraphic" in2="BackgroundImageFix" result="shape"/>
<feGaussianBlur stdDeviation="0.375" result="effect1_foregroundBlur_928_3982"/>
</filter>
<filter id="filter8_f_928_3982" x="0.365753" y="5.38245" width="13.1632" height="6.09534" filterUnits="userSpaceOnUse" color-interpolation-filters="sRGB">
<feFlood flood-opacity="0" result="BackgroundImageFix"/>
<feBlend mode="normal" in="SourceGraphic" in2="BackgroundImageFix" result="shape"/>
<feGaussianBlur stdDeviation="0.375" result="effect1_foregroundBlur_928_3982"/>
</filter>
<filter id="filter9_i_928_3982" x="1.45325" y="-0.25" width="12.192" height="12.191" filterUnits="userSpaceOnUse" color-interpolation-filters="sRGB">
<feFlood flood-opacity="0" result="BackgroundImageFix"/>
<feBlend mode="normal" in="SourceGraphic" in2="BackgroundImageFix" result="shape"/>
<feColorMatrix in="SourceAlpha" type="matrix" values="0 0 0 0 0 0 0 0 0 0 0 0 0 0 0 0 0 0 127 0" result="hardAlpha"/>
<feOffset dx="0.25" dy="-0.25"/>
<feGaussianBlur stdDeviation="0.375"/>
<feComposite in2="hardAlpha" operator="arithmetic" k2="-1" k3="1"/>
<feColorMatrix type="matrix" values="0 0 0 0 0.823529 0 0 0 0 0.666667 0 0 0 0 0.254902 0 0 0 1 0"/>
<feBlend mode="normal" in2="shape" result="effect1_innerShadow_928_3982"/>
</filter>
<filter id="filter10_f_928_3982" x="1.5879" y="0.133789" width="11.6742" height="11.6741" filterUnits="userSpaceOnUse" color-interpolation-filters="sRGB">
<feFlood flood-opacity="0" result="BackgroundImageFix"/>
<feBlend mode="normal" in="SourceGraphic" in2="BackgroundImageFix" result="shape"/>
<feGaussianBlur stdDeviation="0.75" result="effect1_foregroundBlur_928_3982"/>
</filter>
<linearGradient id="paint0_linear_928_3982" x1="23.6932" y1="5.95137" x2="31.0693" y2="5.95137" gradientUnits="userSpaceOnUse">
<stop offset="0.197" stop-color="#949597"/>
<stop offset="0.624" stop-color="#C1C2C4"/>
</linearGradient>
<radialGradient id="paint1_radial_928_3982" cx="0" cy="0" r="1" gradientUnits="userSpaceOnUse" gradientTransform="translate(28.6236 5.4549) rotate(90) scale(0.267491 2.0635)">
<stop stop-color="#CFD0D2"/>
<stop offset="1" stop-color="#CFD0D2" stop-opacity="0"/>
</radialGradient>
<linearGradient id="paint2_linear_928_3982" x1="4.0096" y1="5.95137" x2="8.97301" y2="5.95137" gradientUnits="userSpaceOnUse">
<stop offset="0.197" stop-color="#949597"/>
<stop offset="0.624" stop-color="#C1C2C4"/>
</linearGradient>
<radialGradient id="paint3_radial_928_3982" cx="0" cy="0" r="1" gradientUnits="userSpaceOnUse" gradientTransform="translate(7.3271 5.4549) rotate(90) scale(0.267491 1.38842)">
<stop stop-color="#CFD0D2"/>
<stop offset="1" stop-color="#CFD0D2" stop-opacity="0"/>
</radialGradient>
<linearGradient id="paint4_linear_928_3982" x1="17.0827" y1="25.7646" x2="17.0827" y2="28" gradientUnits="userSpaceOnUse">
<stop stop-color="#CFC6DE"/>
<stop offset="1" stop-color="#C3B4D7"/>
</linearGradient>
<linearGradient id="paint5_linear_928_3982" x1="18.7641" y1="28" x2="18.7641" y2="26.2807" gradientUnits="userSpaceOnUse">
<stop stop-color="#AC91C9"/>
<stop offset="1" stop-color="#C2B3D6" stop-opacity="0"/>
</linearGradient>
<linearGradient id="paint6_linear_928_3982" x1="17.0827" y1="25.7646" x2="17.0827" y2="26.3956" gradientUnits="userSpaceOnUse">
<stop stop-color="#CFCBD7"/>
<stop offset="1" stop-color="#CFCBD7" stop-opacity="0"/>
</linearGradient>
<radialGradient id="paint7_radial_928_3982" cx="0" cy="0" r="1" gradientUnits="userSpaceOnUse" gradientTransform="translate(33.3229 25.2878) rotate(90) scale(2.36919 1.53497)">
<stop offset="0.242" stop-color="#F7F4FE"/>
<stop offset="1" stop-color="#C8BCDB" stop-opacity="0"/>
</radialGradient>
<radialGradient id="paint8_radial_928_3982" cx="0" cy="0" r="1" gradientUnits="userSpaceOnUse" gradientTransform="translate(14.9428 22.3836) rotate(90) scale(5.61731 7.92765)">
<stop offset="0.645" stop-color="#9884AF"/>
<stop offset="1" stop-color="#9884AF" stop-opacity="0"/>
</radialGradient>
<linearGradient id="paint9_linear_928_3982" x1="22.3176" y1="18.3423" x2="33.3229" y2="18.3423" gradientUnits="userSpaceOnUse">
<stop stop-color="#66636F"/>
<stop offset="1" stop-color="#6B6873"/>
</linearGradient>
<linearGradient id="paint10_linear_928_3982" x1="0.00122282" y1="20.3966" x2="3.28815" y2="20.4345" gradientUnits="userSpaceOnUse">
<stop offset="0.342" stop-color="#5E5C64"/>
<stop offset="1" stop-color="#5E5C64" stop-opacity="0"/>
</linearGradient>
<linearGradient id="paint11_linear_928_3982" x1="-0.418202" y1="18.5624" x2="0.995371" y2="18.5624" gradientUnits="userSpaceOnUse">
<stop stop-color="#8F8F91"/>
<stop offset="1" stop-color="#6D6C71" stop-opacity="0"/>
</linearGradient>
<linearGradient id="paint12_linear_928_3982" x1="17.0827" y1="10.9198" x2="17.0827" y2="11.8369" gradientUnits="userSpaceOnUse">
<stop stop-color="#706F76"/>
<stop offset="1" stop-color="#706F76" stop-opacity="0"/>
</linearGradient>
<linearGradient id="paint13_linear_928_3982" x1="17.0827" y1="10.9198" x2="17.0827" y2="11.3209" gradientUnits="userSpaceOnUse">
<stop stop-color="#5F5E65"/>
<stop offset="1" stop-color="#5F5E65" stop-opacity="0"/>
</linearGradient>
<linearGradient id="paint14_linear_928_3982" x1="21.1339" y1="25.7648" x2="21.1339" y2="25.0201" gradientUnits="userSpaceOnUse">
<stop stop-color="#5C536A"/>
<stop offset="1" stop-color="#5C536A" stop-opacity="0"/>
</linearGradient>
<radialGradient id="paint15_radial_928_3982" cx="0" cy="0" r="1" gradientUnits="userSpaceOnUse" gradientTransform="translate(14.1791 20.6629) rotate(53.678) scale(10.3868 10.3471)">
<stop offset="0.597" stop-color="#4B4357"/>
<stop offset="1" stop-color="#524C5D" stop-opacity="0"/>
</radialGradient>
<linearGradient id="paint16_linear_928_3982" x1="17.0827" y1="6.13245" x2="17.0827" y2="8.1293" gradientUnits="userSpaceOnUse">
<stop stop-color="#D8D8DC"/>
<stop offset="1" stop-color="#D8D8DC" stop-opacity="0"/>
</linearGradient>
<linearGradient id="paint17_linear_928_3982" x1="0.00122281" y1="10.1934" x2="1.91248" y2="10.1934" gradientUnits="userSpaceOnUse">
<stop offset="0.22" stop-color="#C6C3CC"/>
<stop offset="1" stop-color="#C6C3CC" stop-opacity="0"/>
</linearGradient>
<linearGradient id="paint18_linear_928_3982" x1="34.1642" y1="10.4991" x2="31.0301" y2="10.4991" gradientUnits="userSpaceOnUse">
<stop offset="0.15" stop-color="#F9F7FE"/>
<stop offset="1" stop-color="#D3CDDD" stop-opacity="0"/>
</linearGradient>
<radialGradient id="paint19_radial_928_3982" cx="0" cy="0" r="1" gradientUnits="userSpaceOnUse" gradientTransform="translate(34.1633 7.06102) rotate(135.463) scale(2.09079 2.53855)">
<stop offset="0.15" stop-color="#F9F7FE"/>
<stop offset="1" stop-color="#F9F7FE" stop-opacity="0"/>
</radialGradient>
<linearGradient id="paint20_linear_928_3982" x1="19.0698" y1="10.9198" x2="19.0698" y2="10.4991" gradientUnits="userSpaceOnUse">
<stop stop-color="#B6ADC6"/>
<stop offset="1" stop-color="#B6ADC6" stop-opacity="0"/>
</linearGradient>
<radialGradient id="paint21_radial_928_3982" cx="0" cy="0" r="1" gradientUnits="userSpaceOnUse" gradientTransform="translate(23.6174 14.282) rotate(143.867) scale(13.6738)">
<stop stop-color="#A6A2AE"/>
<stop offset="1" stop-color="#A6A2AF"/>
</radialGradient>
<linearGradient id="paint22_linear_928_3982" x1="21.0948" y1="11.9506" x2="17.0827" y2="24.3793" gradientUnits="userSpaceOnUse">
<stop stop-color="#6A6375"/>
<stop offset="1" stop-color="#6A6375" stop-opacity="0"/>
</linearGradient>
<linearGradient id="paint23_linear_928_3982" x1="13.2235" y1="22.995" x2="15.4392" y2="19.9759" gradientUnits="userSpaceOnUse">
<stop offset="0.363" stop-color="#B7B6BD"/>
<stop offset="1" stop-color="#B7B6BD" stop-opacity="0"/>
</linearGradient>
<radialGradient id="paint24_radial_928_3982" cx="0" cy="0" r="1" gradientUnits="userSpaceOnUse" gradientTransform="translate(20.4078 16.6886) rotate(143.911) scale(7.84967 7.33419)">
<stop offset="0.068" stop-color="#67616D"/>
<stop offset="1" stop-color="#4D3E5C"/>
</radialGradient>
<linearGradient id="paint25_linear_928_3982" x1="21.2867" y1="12.2281" x2="12.8029" y2="23.0708" gradientUnits="userSpaceOnUse">
<stop stop-color="#2C2634"/>
<stop offset="0.599" stop-color="#40344C"/>
</linearGradient>
<radialGradient id="paint26_radial_928_3982" cx="0" cy="0" r="1" gradientUnits="userSpaceOnUse" gradientTransform="translate(19.9942 16.8894) rotate(143.911) scale(6.87464 6.42319)">
<stop offset="0.068" stop-color="#67616D"/>
<stop offset="1" stop-color="#4D3E5C"/>
</radialGradient>
<radialGradient id="paint27_radial_928_3982" cx="0" cy="0" r="1" gradientUnits="userSpaceOnUse" gradientTransform="translate(19.9865 16.0779) rotate(147.397) scale(8.93603 8.6463)">
<stop offset="0.78" stop-color="#554863" stop-opacity="0"/>
<stop offset="0.985" stop-color="#554863"/>
</radialGradient>
<linearGradient id="paint28_linear_928_3982" x1="18.6491" y1="21.0837" x2="14.7141" y2="15.8488" gradientUnits="userSpaceOnUse">
<stop stop-color="#463755"/>
<stop offset="1" stop-color="#473F51"/>
</linearGradient>
<radialGradient id="paint29_radial_928_3982" cx="0" cy="0" r="1" gradientUnits="userSpaceOnUse" gradientTransform="translate(15.0954 20.5485) rotate(-48.614) scale(5.14415 3.52755)">
<stop stop-color="#544E5C"/>
<stop offset="1" stop-color="#544E5C" stop-opacity="0"/>
</radialGradient>
<radialGradient id="paint30_radial_928_3982" cx="0" cy="0" r="1" gradientUnits="userSpaceOnUse" gradientTransform="translate(20.0824 15.7716) rotate(146.088) scale(2.7397)">
<stop stop-color="#544E5C"/>
<stop offset="1" stop-color="#544E5C" stop-opacity="0"/>
</radialGradient>
<linearGradient id="paint31_linear_928_3982" x1="19.5721" y1="14.9315" x2="20.0241" y2="17.1477" gradientUnits="userSpaceOnUse">
<stop offset="0.051" stop-color="#F3F2F4"/>
<stop offset="1" stop-color="#F3F2F4" stop-opacity="0"/>
</linearGradient>
<radialGradient id="paint32_radial_928_3982" cx="0" cy="0" r="1" gradientUnits="userSpaceOnUse" gradientTransform="translate(11.1985 2.20718) rotate(140.711) scale(4.34487 7.60351)">
<stop stop-color="#FFFF9C"/>
<stop offset="1" stop-color="#EAC73C"/>
</radialGradient>
<radialGradient id="paint33_radial_928_3982" cx="0" cy="0" r="1" gradientUnits="userSpaceOnUse" gradientTransform="translate(10.3193 2.36003) rotate(136.736) scale(1.78418 3.24039)">
<stop offset="0.172" stop-color="#FFFCA0"/>
<stop offset="1" stop-color="#FFFCA0" stop-opacity="0"/>
</radialGradient>
<radialGradient id="paint34_radial_928_3982" cx="0" cy="0" r="1" gradientUnits="userSpaceOnUse" gradientTransform="translate(7.42371 5.97111) rotate(90) scale(7.39421)">
<stop offset="0.127" stop-color="#FFEDD9"/>
<stop offset="1" stop-color="#FFEDD9" stop-opacity="0"/>
</radialGradient>
</defs>
</svg>
