<svg width="30" height="28" viewBox="0 0 30 28" fill="none" xmlns="http://www.w3.org/2000/svg">
<g filter="url(#filter0_ii_951_4296)">
<path d="M1.05739 23.9272H23.1398C23.6649 23.9272 24.1849 23.8238 24.6701 23.6229C25.1552 23.4219 25.596 23.1274 25.9673 22.7561C26.3386 22.3848 26.6332 21.9439 26.8341 21.4588C27.0351 20.9737 27.1385 20.4537 27.1385 19.9286C27.1385 19.4035 27.0351 18.8835 26.8341 18.3984C26.6332 17.9132 26.3386 17.4724 25.9673 17.1011C25.596 16.7298 25.1552 16.4353 24.6701 16.2343C24.1849 16.0334 23.6649 15.9299 23.1398 15.9299" stroke="#CAC8CB" stroke-width="2" stroke-linecap="round"/>
</g>
<path d="M3.62811 27.9999C4.47559 27.9999 5.1626 27.3129 5.1626 26.4654C5.1626 25.6179 4.47559 24.9309 3.62811 24.9309C2.78064 24.9309 2.09362 25.6179 2.09362 26.4654C2.09362 27.3129 2.78064 27.9999 3.62811 27.9999Z" fill="#4381C4"/>
<path d="M3.62811 27.9999C4.47559 27.9999 5.1626 27.3129 5.1626 26.4654C5.1626 25.6179 4.47559 24.9309 3.62811 24.9309C2.78064 24.9309 2.09362 25.6179 2.09362 26.4654C2.09362 27.3129 2.78064 27.9999 3.62811 27.9999Z" fill="url(#paint0_radial_951_4296)"/>
<path d="M3.62811 27.9999C4.47559 27.9999 5.1626 27.3129 5.1626 26.4654C5.1626 25.6179 4.47559 24.9309 3.62811 24.9309C2.78064 24.9309 2.09362 25.6179 2.09362 26.4654C2.09362 27.3129 2.78064 27.9999 3.62811 27.9999Z" fill="url(#paint1_radial_951_4296)"/>
<path d="M3.62811 27.9999C4.47559 27.9999 5.1626 27.3129 5.1626 26.4654C5.1626 25.6179 4.47559 24.9309 3.62811 24.9309C2.78064 24.9309 2.09362 25.6179 2.09362 26.4654C2.09362 27.3129 2.78064 27.9999 3.62811 27.9999Z" fill="url(#paint2_radial_951_4296)"/>
<g filter="url(#filter1_f_951_4296)">
<path d="M3.62811 27.5508C4.22751 27.5508 4.71342 27.0649 4.71342 26.4654C4.71342 25.866 4.22751 25.3801 3.62811 25.3801C3.0287 25.3801 2.54279 25.866 2.54279 26.4654C2.54279 27.0649 3.0287 27.5508 3.62811 27.5508Z" fill="#4880CB"/>
</g>
<g filter="url(#filter2_i_951_4296)">
<path fill-rule="evenodd" clip-rule="evenodd" d="M5.96692 13.3507C6.05004 13.3507 6.12974 13.3177 6.18851 13.259C6.24728 13.2002 6.2803 13.1205 6.2803 13.0374V9.85348C6.2803 9.77037 6.24728 9.69066 6.18851 9.63189C6.12974 9.57312 6.05004 9.54011 5.96692 9.54011H1.32898C1.24587 9.54011 1.16616 9.50709 1.10739 9.44832C1.04863 9.38955 1.01561 9.30984 1.01561 9.22673V8.8089C1.01561 8.76775 1.02372 8.727 1.03946 8.68898C1.05521 8.65096 1.0783 8.61641 1.10739 8.58731C1.13649 8.55821 1.17104 8.53513 1.20906 8.51938C1.24708 8.50363 1.28783 8.49553 1.32898 8.49553H5.96692C6.05004 8.49553 6.12974 8.46251 6.18851 8.40374C6.24728 8.34497 6.2803 8.26526 6.2803 8.18215V5.01394C6.2803 4.93082 6.31331 4.85112 6.37208 4.79235C6.43085 4.73358 6.51056 4.70056 6.59367 4.70056H7.01151C7.09462 4.70056 7.17433 4.73358 7.2331 4.79235C7.29186 4.85112 7.32488 4.93082 7.32488 5.01394V8.18215C7.32488 8.26526 7.3579 8.34497 7.41667 8.40374C7.47543 8.46251 7.55514 8.49553 7.63825 8.49553H11.7602C11.8433 8.49553 11.923 8.46251 11.9818 8.40374C12.0405 8.34497 12.0735 8.26526 12.0735 8.18215V5.01394C12.0735 4.93082 12.1066 4.85112 12.1653 4.79235C12.2241 4.73358 12.3038 4.70056 12.3869 4.70056H12.8048C12.8879 4.70056 12.9676 4.73358 13.0263 4.79235C13.0851 4.85112 13.1181 4.93082 13.1181 5.01394V8.18215C13.1181 8.26526 13.1511 8.34497 13.2099 8.40374C13.2687 8.46251 13.3484 8.49553 13.4315 8.49553H17.5545C17.6376 8.49553 17.7173 8.46251 17.7761 8.40374C17.8348 8.34497 17.8678 8.26526 17.8678 8.18215V5.01394C17.8678 4.93082 17.9009 4.85112 17.9596 4.79235C18.0184 4.73358 18.0981 4.70056 18.1812 4.70056H18.599C18.6822 4.70056 18.7619 4.73358 18.8206 4.79235C18.8794 4.85112 18.9124 4.93082 18.9124 5.01394V8.18215C18.9124 8.26526 18.9454 8.34497 19.0042 8.40374C19.063 8.46251 19.1427 8.49553 19.2258 8.49553H23.822C23.9051 8.49553 23.9848 8.52854 24.0435 8.58731C24.1023 8.64608 24.1353 8.72579 24.1353 8.8089V9.22673C24.1353 9.26789 24.1272 9.30864 24.1115 9.34666C24.0957 9.38468 24.0726 9.41922 24.0435 9.44832C24.0144 9.47742 23.9799 9.5005 23.9419 9.51625C23.9039 9.532 23.8631 9.54011 23.822 9.54011H19.2258C19.1427 9.54011 19.063 9.57312 19.0042 9.63189C18.9454 9.69066 18.9124 9.77037 18.9124 9.85348V13.0374C18.9124 13.1205 18.9454 13.2002 19.0042 13.259C19.063 13.3177 19.1427 13.3507 19.2258 13.3507H23.822C23.9051 13.3507 23.9848 13.3838 24.0435 13.4425C24.1023 13.5013 24.1353 13.581 24.1353 13.6641V14.0819C24.1353 14.1651 24.1023 14.2448 24.0435 14.3035C23.9848 14.3623 23.9051 14.3953 23.822 14.3953H19.2258C19.1427 14.3953 19.063 14.4283 19.0042 14.4871C18.9454 14.5459 18.9124 14.6256 18.9124 14.7087V18.8682C18.9124 18.9513 18.8794 19.031 18.8206 19.0898C18.7619 19.1486 18.6822 19.1816 18.599 19.1816H18.1812C18.0981 19.1816 18.0184 19.1486 17.9596 19.0898C17.9009 19.031 17.8678 18.9513 17.8678 18.8682V14.7087C17.8678 14.6256 17.8348 14.5459 17.7761 14.4871C17.7173 14.4283 17.6376 14.3953 17.5545 14.3953H13.4315C13.3484 14.3953 13.2687 14.4283 13.2099 14.4871C13.1511 14.5459 13.1181 14.6256 13.1181 14.7087V17.9991C13.1181 18.0822 13.0851 18.1619 13.0263 18.2207C12.9676 18.2795 12.8879 18.3125 12.8048 18.3125H12.3869C12.3038 18.3125 12.2241 18.2795 12.1653 18.2207C12.1066 18.1619 12.0735 18.0822 12.0735 17.9991V14.7087C12.0735 14.6256 12.0405 14.5459 11.9818 14.4871C11.923 14.4283 11.8433 14.3953 11.7602 14.3953H7.6393C7.55619 14.3953 7.47648 14.4283 7.41771 14.4871C7.35894 14.5459 7.32592 14.6256 7.32592 14.7087V17.9991C7.32592 18.0822 7.29291 18.1619 7.23414 18.2207C7.17537 18.2795 7.09566 18.3125 7.01255 18.3125H6.59472C6.55357 18.3125 6.51282 18.3044 6.47479 18.2886C6.43677 18.2729 6.40223 18.2498 6.37313 18.2207C6.34403 18.1916 6.32095 18.1571 6.3052 18.119C6.28945 18.081 6.28134 18.0403 6.28134 17.9991V14.7087C6.28134 14.6675 6.27324 14.6268 6.25749 14.5888C6.24174 14.5508 6.21866 14.5162 6.18956 14.4871C6.16046 14.458 6.12591 14.4349 6.08789 14.4192C6.04987 14.4034 6.00912 14.3953 5.96797 14.3953H1.33003C1.24692 14.3953 1.16721 14.3623 1.10844 14.3035C1.04967 14.2448 1.01665 14.1651 1.01665 14.0819V13.6641C1.01665 13.581 1.04967 13.5013 1.10844 13.4425C1.16721 13.3838 1.24692 13.3507 1.33003 13.3507H5.96692ZM7.32488 13.0374C7.32488 13.1205 7.3579 13.2002 7.41667 13.259C7.47543 13.3177 7.55514 13.3507 7.63825 13.3507H11.7602C11.8433 13.3507 11.923 13.3177 11.9818 13.259C12.0405 13.2002 12.0735 13.1205 12.0735 13.0374V9.85348C12.0735 9.77037 12.0405 9.69066 11.9818 9.63189C11.923 9.57312 11.8433 9.54011 11.7602 9.54011H7.6393C7.55619 9.54011 7.47648 9.57312 7.41771 9.63189C7.35894 9.69066 7.32592 9.77037 7.32592 9.85348L7.32488 13.0374ZM13.1192 13.0374C13.1192 13.1205 13.1522 13.2002 13.211 13.259C13.2697 13.3177 13.3494 13.3507 13.4325 13.3507H17.5545C17.6376 13.3507 17.7173 13.3177 17.7761 13.259C17.8348 13.2002 17.8678 13.1205 17.8678 13.0374V9.85348C17.8678 9.77037 17.8348 9.69066 17.7761 9.63189C17.7173 9.57312 17.6376 9.54011 17.5545 9.54011H13.4315C13.3484 9.54011 13.2687 9.57312 13.2099 9.63189C13.1511 9.69066 13.1181 9.77037 13.1181 9.85348L13.1192 13.0374Z" fill="#A09DA3"/>
<path fill-rule="evenodd" clip-rule="evenodd" d="M5.96692 13.3507C6.05004 13.3507 6.12974 13.3177 6.18851 13.259C6.24728 13.2002 6.2803 13.1205 6.2803 13.0374V9.85348C6.2803 9.77037 6.24728 9.69066 6.18851 9.63189C6.12974 9.57312 6.05004 9.54011 5.96692 9.54011H1.32898C1.24587 9.54011 1.16616 9.50709 1.10739 9.44832C1.04863 9.38955 1.01561 9.30984 1.01561 9.22673V8.8089C1.01561 8.76775 1.02372 8.727 1.03946 8.68898C1.05521 8.65096 1.0783 8.61641 1.10739 8.58731C1.13649 8.55821 1.17104 8.53513 1.20906 8.51938C1.24708 8.50363 1.28783 8.49553 1.32898 8.49553H5.96692C6.05004 8.49553 6.12974 8.46251 6.18851 8.40374C6.24728 8.34497 6.2803 8.26526 6.2803 8.18215V5.01394C6.2803 4.93082 6.31331 4.85112 6.37208 4.79235C6.43085 4.73358 6.51056 4.70056 6.59367 4.70056H7.01151C7.09462 4.70056 7.17433 4.73358 7.2331 4.79235C7.29186 4.85112 7.32488 4.93082 7.32488 5.01394V8.18215C7.32488 8.26526 7.3579 8.34497 7.41667 8.40374C7.47543 8.46251 7.55514 8.49553 7.63825 8.49553H11.7602C11.8433 8.49553 11.923 8.46251 11.9818 8.40374C12.0405 8.34497 12.0735 8.26526 12.0735 8.18215V5.01394C12.0735 4.93082 12.1066 4.85112 12.1653 4.79235C12.2241 4.73358 12.3038 4.70056 12.3869 4.70056H12.8048C12.8879 4.70056 12.9676 4.73358 13.0263 4.79235C13.0851 4.85112 13.1181 4.93082 13.1181 5.01394V8.18215C13.1181 8.26526 13.1511 8.34497 13.2099 8.40374C13.2687 8.46251 13.3484 8.49553 13.4315 8.49553H17.5545C17.6376 8.49553 17.7173 8.46251 17.7761 8.40374C17.8348 8.34497 17.8678 8.26526 17.8678 8.18215V5.01394C17.8678 4.93082 17.9009 4.85112 17.9596 4.79235C18.0184 4.73358 18.0981 4.70056 18.1812 4.70056H18.599C18.6822 4.70056 18.7619 4.73358 18.8206 4.79235C18.8794 4.85112 18.9124 4.93082 18.9124 5.01394V8.18215C18.9124 8.26526 18.9454 8.34497 19.0042 8.40374C19.063 8.46251 19.1427 8.49553 19.2258 8.49553H23.822C23.9051 8.49553 23.9848 8.52854 24.0435 8.58731C24.1023 8.64608 24.1353 8.72579 24.1353 8.8089V9.22673C24.1353 9.26789 24.1272 9.30864 24.1115 9.34666C24.0957 9.38468 24.0726 9.41922 24.0435 9.44832C24.0144 9.47742 23.9799 9.5005 23.9419 9.51625C23.9039 9.532 23.8631 9.54011 23.822 9.54011H19.2258C19.1427 9.54011 19.063 9.57312 19.0042 9.63189C18.9454 9.69066 18.9124 9.77037 18.9124 9.85348V13.0374C18.9124 13.1205 18.9454 13.2002 19.0042 13.259C19.063 13.3177 19.1427 13.3507 19.2258 13.3507H23.822C23.9051 13.3507 23.9848 13.3838 24.0435 13.4425C24.1023 13.5013 24.1353 13.581 24.1353 13.6641V14.0819C24.1353 14.1651 24.1023 14.2448 24.0435 14.3035C23.9848 14.3623 23.9051 14.3953 23.822 14.3953H19.2258C19.1427 14.3953 19.063 14.4283 19.0042 14.4871C18.9454 14.5459 18.9124 14.6256 18.9124 14.7087V18.8682C18.9124 18.9513 18.8794 19.031 18.8206 19.0898C18.7619 19.1486 18.6822 19.1816 18.599 19.1816H18.1812C18.0981 19.1816 18.0184 19.1486 17.9596 19.0898C17.9009 19.031 17.8678 18.9513 17.8678 18.8682V14.7087C17.8678 14.6256 17.8348 14.5459 17.7761 14.4871C17.7173 14.4283 17.6376 14.3953 17.5545 14.3953H13.4315C13.3484 14.3953 13.2687 14.4283 13.2099 14.4871C13.1511 14.5459 13.1181 14.6256 13.1181 14.7087V17.9991C13.1181 18.0822 13.0851 18.1619 13.0263 18.2207C12.9676 18.2795 12.8879 18.3125 12.8048 18.3125H12.3869C12.3038 18.3125 12.2241 18.2795 12.1653 18.2207C12.1066 18.1619 12.0735 18.0822 12.0735 17.9991V14.7087C12.0735 14.6256 12.0405 14.5459 11.9818 14.4871C11.923 14.4283 11.8433 14.3953 11.7602 14.3953H7.6393C7.55619 14.3953 7.47648 14.4283 7.41771 14.4871C7.35894 14.5459 7.32592 14.6256 7.32592 14.7087V17.9991C7.32592 18.0822 7.29291 18.1619 7.23414 18.2207C7.17537 18.2795 7.09566 18.3125 7.01255 18.3125H6.59472C6.55357 18.3125 6.51282 18.3044 6.47479 18.2886C6.43677 18.2729 6.40223 18.2498 6.37313 18.2207C6.34403 18.1916 6.32095 18.1571 6.3052 18.119C6.28945 18.081 6.28134 18.0403 6.28134 17.9991V14.7087C6.28134 14.6675 6.27324 14.6268 6.25749 14.5888C6.24174 14.5508 6.21866 14.5162 6.18956 14.4871C6.16046 14.458 6.12591 14.4349 6.08789 14.4192C6.04987 14.4034 6.00912 14.3953 5.96797 14.3953H1.33003C1.24692 14.3953 1.16721 14.3623 1.10844 14.3035C1.04967 14.2448 1.01665 14.1651 1.01665 14.0819V13.6641C1.01665 13.581 1.04967 13.5013 1.10844 13.4425C1.16721 13.3838 1.24692 13.3507 1.33003 13.3507H5.96692ZM7.32488 13.0374C7.32488 13.1205 7.3579 13.2002 7.41667 13.259C7.47543 13.3177 7.55514 13.3507 7.63825 13.3507H11.7602C11.8433 13.3507 11.923 13.3177 11.9818 13.259C12.0405 13.2002 12.0735 13.1205 12.0735 13.0374V9.85348C12.0735 9.77037 12.0405 9.69066 11.9818 9.63189C11.923 9.57312 11.8433 9.54011 11.7602 9.54011H7.6393C7.55619 9.54011 7.47648 9.57312 7.41771 9.63189C7.35894 9.69066 7.32592 9.77037 7.32592 9.85348L7.32488 13.0374ZM13.1192 13.0374C13.1192 13.1205 13.1522 13.2002 13.211 13.259C13.2697 13.3177 13.3494 13.3507 13.4325 13.3507H17.5545C17.6376 13.3507 17.7173 13.3177 17.7761 13.259C17.8348 13.2002 17.8678 13.1205 17.8678 13.0374V9.85348C17.8678 9.77037 17.8348 9.69066 17.7761 9.63189C17.7173 9.57312 17.6376 9.54011 17.5545 9.54011H13.4315C13.3484 9.54011 13.2687 9.57312 13.2099 9.63189C13.1511 9.69066 13.1181 9.77037 13.1181 9.85348L13.1192 13.0374Z" fill="url(#paint3_radial_951_4296)"/>
<path fill-rule="evenodd" clip-rule="evenodd" d="M5.96692 13.3507C6.05004 13.3507 6.12974 13.3177 6.18851 13.259C6.24728 13.2002 6.2803 13.1205 6.2803 13.0374V9.85348C6.2803 9.77037 6.24728 9.69066 6.18851 9.63189C6.12974 9.57312 6.05004 9.54011 5.96692 9.54011H1.32898C1.24587 9.54011 1.16616 9.50709 1.10739 9.44832C1.04863 9.38955 1.01561 9.30984 1.01561 9.22673V8.8089C1.01561 8.76775 1.02372 8.727 1.03946 8.68898C1.05521 8.65096 1.0783 8.61641 1.10739 8.58731C1.13649 8.55821 1.17104 8.53513 1.20906 8.51938C1.24708 8.50363 1.28783 8.49553 1.32898 8.49553H5.96692C6.05004 8.49553 6.12974 8.46251 6.18851 8.40374C6.24728 8.34497 6.2803 8.26526 6.2803 8.18215V5.01394C6.2803 4.93082 6.31331 4.85112 6.37208 4.79235C6.43085 4.73358 6.51056 4.70056 6.59367 4.70056H7.01151C7.09462 4.70056 7.17433 4.73358 7.2331 4.79235C7.29186 4.85112 7.32488 4.93082 7.32488 5.01394V8.18215C7.32488 8.26526 7.3579 8.34497 7.41667 8.40374C7.47543 8.46251 7.55514 8.49553 7.63825 8.49553H11.7602C11.8433 8.49553 11.923 8.46251 11.9818 8.40374C12.0405 8.34497 12.0735 8.26526 12.0735 8.18215V5.01394C12.0735 4.93082 12.1066 4.85112 12.1653 4.79235C12.2241 4.73358 12.3038 4.70056 12.3869 4.70056H12.8048C12.8879 4.70056 12.9676 4.73358 13.0263 4.79235C13.0851 4.85112 13.1181 4.93082 13.1181 5.01394V8.18215C13.1181 8.26526 13.1511 8.34497 13.2099 8.40374C13.2687 8.46251 13.3484 8.49553 13.4315 8.49553H17.5545C17.6376 8.49553 17.7173 8.46251 17.7761 8.40374C17.8348 8.34497 17.8678 8.26526 17.8678 8.18215V5.01394C17.8678 4.93082 17.9009 4.85112 17.9596 4.79235C18.0184 4.73358 18.0981 4.70056 18.1812 4.70056H18.599C18.6822 4.70056 18.7619 4.73358 18.8206 4.79235C18.8794 4.85112 18.9124 4.93082 18.9124 5.01394V8.18215C18.9124 8.26526 18.9454 8.34497 19.0042 8.40374C19.063 8.46251 19.1427 8.49553 19.2258 8.49553H23.822C23.9051 8.49553 23.9848 8.52854 24.0435 8.58731C24.1023 8.64608 24.1353 8.72579 24.1353 8.8089V9.22673C24.1353 9.26789 24.1272 9.30864 24.1115 9.34666C24.0957 9.38468 24.0726 9.41922 24.0435 9.44832C24.0144 9.47742 23.9799 9.5005 23.9419 9.51625C23.9039 9.532 23.8631 9.54011 23.822 9.54011H19.2258C19.1427 9.54011 19.063 9.57312 19.0042 9.63189C18.9454 9.69066 18.9124 9.77037 18.9124 9.85348V13.0374C18.9124 13.1205 18.9454 13.2002 19.0042 13.259C19.063 13.3177 19.1427 13.3507 19.2258 13.3507H23.822C23.9051 13.3507 23.9848 13.3838 24.0435 13.4425C24.1023 13.5013 24.1353 13.581 24.1353 13.6641V14.0819C24.1353 14.1651 24.1023 14.2448 24.0435 14.3035C23.9848 14.3623 23.9051 14.3953 23.822 14.3953H19.2258C19.1427 14.3953 19.063 14.4283 19.0042 14.4871C18.9454 14.5459 18.9124 14.6256 18.9124 14.7087V18.8682C18.9124 18.9513 18.8794 19.031 18.8206 19.0898C18.7619 19.1486 18.6822 19.1816 18.599 19.1816H18.1812C18.0981 19.1816 18.0184 19.1486 17.9596 19.0898C17.9009 19.031 17.8678 18.9513 17.8678 18.8682V14.7087C17.8678 14.6256 17.8348 14.5459 17.7761 14.4871C17.7173 14.4283 17.6376 14.3953 17.5545 14.3953H13.4315C13.3484 14.3953 13.2687 14.4283 13.2099 14.4871C13.1511 14.5459 13.1181 14.6256 13.1181 14.7087V17.9991C13.1181 18.0822 13.0851 18.1619 13.0263 18.2207C12.9676 18.2795 12.8879 18.3125 12.8048 18.3125H12.3869C12.3038 18.3125 12.2241 18.2795 12.1653 18.2207C12.1066 18.1619 12.0735 18.0822 12.0735 17.9991V14.7087C12.0735 14.6256 12.0405 14.5459 11.9818 14.4871C11.923 14.4283 11.8433 14.3953 11.7602 14.3953H7.6393C7.55619 14.3953 7.47648 14.4283 7.41771 14.4871C7.35894 14.5459 7.32592 14.6256 7.32592 14.7087V17.9991C7.32592 18.0822 7.29291 18.1619 7.23414 18.2207C7.17537 18.2795 7.09566 18.3125 7.01255 18.3125H6.59472C6.55357 18.3125 6.51282 18.3044 6.47479 18.2886C6.43677 18.2729 6.40223 18.2498 6.37313 18.2207C6.34403 18.1916 6.32095 18.1571 6.3052 18.119C6.28945 18.081 6.28134 18.0403 6.28134 17.9991V14.7087C6.28134 14.6675 6.27324 14.6268 6.25749 14.5888C6.24174 14.5508 6.21866 14.5162 6.18956 14.4871C6.16046 14.458 6.12591 14.4349 6.08789 14.4192C6.04987 14.4034 6.00912 14.3953 5.96797 14.3953H1.33003C1.24692 14.3953 1.16721 14.3623 1.10844 14.3035C1.04967 14.2448 1.01665 14.1651 1.01665 14.0819V13.6641C1.01665 13.581 1.04967 13.5013 1.10844 13.4425C1.16721 13.3838 1.24692 13.3507 1.33003 13.3507H5.96692ZM7.32488 13.0374C7.32488 13.1205 7.3579 13.2002 7.41667 13.259C7.47543 13.3177 7.55514 13.3507 7.63825 13.3507H11.7602C11.8433 13.3507 11.923 13.3177 11.9818 13.259C12.0405 13.2002 12.0735 13.1205 12.0735 13.0374V9.85348C12.0735 9.77037 12.0405 9.69066 11.9818 9.63189C11.923 9.57312 11.8433 9.54011 11.7602 9.54011H7.6393C7.55619 9.54011 7.47648 9.57312 7.41771 9.63189C7.35894 9.69066 7.32592 9.77037 7.32592 9.85348L7.32488 13.0374ZM13.1192 13.0374C13.1192 13.1205 13.1522 13.2002 13.211 13.259C13.2697 13.3177 13.3494 13.3507 13.4325 13.3507H17.5545C17.6376 13.3507 17.7173 13.3177 17.7761 13.259C17.8348 13.2002 17.8678 13.1205 17.8678 13.0374V9.85348C17.8678 9.77037 17.8348 9.69066 17.7761 9.63189C17.7173 9.57312 17.6376 9.54011 17.5545 9.54011H13.4315C13.3484 9.54011 13.2687 9.57312 13.2099 9.63189C13.1511 9.69066 13.1181 9.77037 13.1181 9.85348L13.1192 13.0374Z" fill="url(#paint4_linear_951_4296)"/>
<path fill-rule="evenodd" clip-rule="evenodd" d="M5.96692 13.3507C6.05004 13.3507 6.12974 13.3177 6.18851 13.259C6.24728 13.2002 6.2803 13.1205 6.2803 13.0374V9.85348C6.2803 9.77037 6.24728 9.69066 6.18851 9.63189C6.12974 9.57312 6.05004 9.54011 5.96692 9.54011H1.32898C1.24587 9.54011 1.16616 9.50709 1.10739 9.44832C1.04863 9.38955 1.01561 9.30984 1.01561 9.22673V8.8089C1.01561 8.76775 1.02372 8.727 1.03946 8.68898C1.05521 8.65096 1.0783 8.61641 1.10739 8.58731C1.13649 8.55821 1.17104 8.53513 1.20906 8.51938C1.24708 8.50363 1.28783 8.49553 1.32898 8.49553H5.96692C6.05004 8.49553 6.12974 8.46251 6.18851 8.40374C6.24728 8.34497 6.2803 8.26526 6.2803 8.18215V5.01394C6.2803 4.93082 6.31331 4.85112 6.37208 4.79235C6.43085 4.73358 6.51056 4.70056 6.59367 4.70056H7.01151C7.09462 4.70056 7.17433 4.73358 7.2331 4.79235C7.29186 4.85112 7.32488 4.93082 7.32488 5.01394V8.18215C7.32488 8.26526 7.3579 8.34497 7.41667 8.40374C7.47543 8.46251 7.55514 8.49553 7.63825 8.49553H11.7602C11.8433 8.49553 11.923 8.46251 11.9818 8.40374C12.0405 8.34497 12.0735 8.26526 12.0735 8.18215V5.01394C12.0735 4.93082 12.1066 4.85112 12.1653 4.79235C12.2241 4.73358 12.3038 4.70056 12.3869 4.70056H12.8048C12.8879 4.70056 12.9676 4.73358 13.0263 4.79235C13.0851 4.85112 13.1181 4.93082 13.1181 5.01394V8.18215C13.1181 8.26526 13.1511 8.34497 13.2099 8.40374C13.2687 8.46251 13.3484 8.49553 13.4315 8.49553H17.5545C17.6376 8.49553 17.7173 8.46251 17.7761 8.40374C17.8348 8.34497 17.8678 8.26526 17.8678 8.18215V5.01394C17.8678 4.93082 17.9009 4.85112 17.9596 4.79235C18.0184 4.73358 18.0981 4.70056 18.1812 4.70056H18.599C18.6822 4.70056 18.7619 4.73358 18.8206 4.79235C18.8794 4.85112 18.9124 4.93082 18.9124 5.01394V8.18215C18.9124 8.26526 18.9454 8.34497 19.0042 8.40374C19.063 8.46251 19.1427 8.49553 19.2258 8.49553H23.822C23.9051 8.49553 23.9848 8.52854 24.0435 8.58731C24.1023 8.64608 24.1353 8.72579 24.1353 8.8089V9.22673C24.1353 9.26789 24.1272 9.30864 24.1115 9.34666C24.0957 9.38468 24.0726 9.41922 24.0435 9.44832C24.0144 9.47742 23.9799 9.5005 23.9419 9.51625C23.9039 9.532 23.8631 9.54011 23.822 9.54011H19.2258C19.1427 9.54011 19.063 9.57312 19.0042 9.63189C18.9454 9.69066 18.9124 9.77037 18.9124 9.85348V13.0374C18.9124 13.1205 18.9454 13.2002 19.0042 13.259C19.063 13.3177 19.1427 13.3507 19.2258 13.3507H23.822C23.9051 13.3507 23.9848 13.3838 24.0435 13.4425C24.1023 13.5013 24.1353 13.581 24.1353 13.6641V14.0819C24.1353 14.1651 24.1023 14.2448 24.0435 14.3035C23.9848 14.3623 23.9051 14.3953 23.822 14.3953H19.2258C19.1427 14.3953 19.063 14.4283 19.0042 14.4871C18.9454 14.5459 18.9124 14.6256 18.9124 14.7087V18.8682C18.9124 18.9513 18.8794 19.031 18.8206 19.0898C18.7619 19.1486 18.6822 19.1816 18.599 19.1816H18.1812C18.0981 19.1816 18.0184 19.1486 17.9596 19.0898C17.9009 19.031 17.8678 18.9513 17.8678 18.8682V14.7087C17.8678 14.6256 17.8348 14.5459 17.7761 14.4871C17.7173 14.4283 17.6376 14.3953 17.5545 14.3953H13.4315C13.3484 14.3953 13.2687 14.4283 13.2099 14.4871C13.1511 14.5459 13.1181 14.6256 13.1181 14.7087V17.9991C13.1181 18.0822 13.0851 18.1619 13.0263 18.2207C12.9676 18.2795 12.8879 18.3125 12.8048 18.3125H12.3869C12.3038 18.3125 12.2241 18.2795 12.1653 18.2207C12.1066 18.1619 12.0735 18.0822 12.0735 17.9991V14.7087C12.0735 14.6256 12.0405 14.5459 11.9818 14.4871C11.923 14.4283 11.8433 14.3953 11.7602 14.3953H7.6393C7.55619 14.3953 7.47648 14.4283 7.41771 14.4871C7.35894 14.5459 7.32592 14.6256 7.32592 14.7087V17.9991C7.32592 18.0822 7.29291 18.1619 7.23414 18.2207C7.17537 18.2795 7.09566 18.3125 7.01255 18.3125H6.59472C6.55357 18.3125 6.51282 18.3044 6.47479 18.2886C6.43677 18.2729 6.40223 18.2498 6.37313 18.2207C6.34403 18.1916 6.32095 18.1571 6.3052 18.119C6.28945 18.081 6.28134 18.0403 6.28134 17.9991V14.7087C6.28134 14.6675 6.27324 14.6268 6.25749 14.5888C6.24174 14.5508 6.21866 14.5162 6.18956 14.4871C6.16046 14.458 6.12591 14.4349 6.08789 14.4192C6.04987 14.4034 6.00912 14.3953 5.96797 14.3953H1.33003C1.24692 14.3953 1.16721 14.3623 1.10844 14.3035C1.04967 14.2448 1.01665 14.1651 1.01665 14.0819V13.6641C1.01665 13.581 1.04967 13.5013 1.10844 13.4425C1.16721 13.3838 1.24692 13.3507 1.33003 13.3507H5.96692ZM7.32488 13.0374C7.32488 13.1205 7.3579 13.2002 7.41667 13.259C7.47543 13.3177 7.55514 13.3507 7.63825 13.3507H11.7602C11.8433 13.3507 11.923 13.3177 11.9818 13.259C12.0405 13.2002 12.0735 13.1205 12.0735 13.0374V9.85348C12.0735 9.77037 12.0405 9.69066 11.9818 9.63189C11.923 9.57312 11.8433 9.54011 11.7602 9.54011H7.6393C7.55619 9.54011 7.47648 9.57312 7.41771 9.63189C7.35894 9.69066 7.32592 9.77037 7.32592 9.85348L7.32488 13.0374ZM13.1192 13.0374C13.1192 13.1205 13.1522 13.2002 13.211 13.259C13.2697 13.3177 13.3494 13.3507 13.4325 13.3507H17.5545C17.6376 13.3507 17.7173 13.3177 17.7761 13.259C17.8348 13.2002 17.8678 13.1205 17.8678 13.0374V9.85348C17.8678 9.77037 17.8348 9.69066 17.7761 9.63189C17.7173 9.57312 17.6376 9.54011 17.5545 9.54011H13.4315C13.3484 9.54011 13.2687 9.57312 13.2099 9.63189C13.1511 9.69066 13.1181 9.77037 13.1181 9.85348L13.1192 13.0374Z" fill="url(#paint5_linear_951_4296)"/>
</g>
<g filter="url(#filter3_f_951_4296)">
<path d="M6.80259 4.70056V18.3125M12.5969 4.70056V18.3125M18.3901 4.70056V18.3125M1.01665 9.01782H24.1353M1.01665 13.873H24.1353" stroke="url(#paint6_radial_951_4296)" stroke-width="0.15"/>
</g>
<path d="M22.3157 27.9999C23.1631 27.9999 23.8502 27.3129 23.8502 26.4654C23.8502 25.6179 23.1631 24.9309 22.3157 24.9309C21.4682 24.9309 20.7812 25.6179 20.7812 26.4654C20.7812 27.3129 21.4682 27.9999 22.3157 27.9999Z" fill="#4381C4"/>
<path d="M22.3157 27.9999C23.1631 27.9999 23.8502 27.3129 23.8502 26.4654C23.8502 25.6179 23.1631 24.9309 22.3157 24.9309C21.4682 24.9309 20.7812 25.6179 20.7812 26.4654C20.7812 27.3129 21.4682 27.9999 22.3157 27.9999Z" fill="url(#paint7_radial_951_4296)"/>
<path d="M22.3157 27.9999C23.1631 27.9999 23.8502 27.3129 23.8502 26.4654C23.8502 25.6179 23.1631 24.9309 22.3157 24.9309C21.4682 24.9309 20.7812 25.6179 20.7812 26.4654C20.7812 27.3129 21.4682 27.9999 22.3157 27.9999Z" fill="url(#paint8_radial_951_4296)"/>
<path d="M22.3157 27.9999C23.1631 27.9999 23.8502 27.3129 23.8502 26.4654C23.8502 25.6179 23.1631 24.9309 22.3157 24.9309C21.4682 24.9309 20.7812 25.6179 20.7812 26.4654C20.7812 27.3129 21.4682 27.9999 22.3157 27.9999Z" fill="url(#paint9_radial_951_4296)"/>
<g filter="url(#filter4_f_951_4296)">
<path d="M22.3157 27.5508C22.9151 27.5508 23.401 27.0649 23.401 26.4654C23.401 25.866 22.9151 25.3801 22.3157 25.3801C21.7163 25.3801 21.2303 25.866 21.2303 26.4654C21.2303 27.0649 21.7163 27.5508 22.3157 27.5508Z" fill="#4880CB"/>
</g>
<g filter="url(#filter5_iii_951_4296)">
<path fill-rule="evenodd" clip-rule="evenodd" d="M22.5194 3.11389C17.8031 3.1118 9.78069 3.10867 3.38889 3.1118C2.92463 3.11219 2.46539 3.20789 2.03961 3.39297C1.61383 3.57806 1.23058 3.84858 0.913599 4.18779C0.596616 4.52701 0.352648 4.92768 0.196804 5.36501C0.0409588 5.80234 -0.0234442 6.267 0.00758323 6.73023L0.561211 15.0796C0.635767 16.2049 1.11242 17.2659 1.90421 18.069C2.696 18.8721 3.75014 19.3638 4.87429 19.4543L21.5562 20.7934L26.0459 3.11598L22.5194 3.11389ZM20.6025 5.13515H20.0228C16.255 5.13306 9.3336 5.12993 3.4453 5.13515C3.26017 5.13525 3.07701 5.17319 2.90708 5.24667C2.73715 5.32014 2.58403 5.42758 2.45715 5.56239C2.33026 5.6972 2.23228 5.85654 2.16922 6.0306C2.10617 6.20467 2.07937 6.38979 2.09048 6.57459L2.60023 14.9918C2.67962 16.2955 3.77434 17.3578 5.28481 17.456L18.0872 18.4139C18.3822 18.4359 18.6756 18.3529 18.9153 18.1795C19.155 18.0061 19.3257 17.7535 19.3971 17.4664L22.019 6.95272C22.0732 6.73726 22.0775 6.51229 22.0316 6.29491C21.9858 6.07753 21.8909 5.87346 21.7544 5.69823C21.6178 5.52299 21.4431 5.3812 21.2435 5.28363C21.0439 5.18606 20.8247 5.13528 20.6025 5.13515Z" fill="#C0BFC1"/>
<path fill-rule="evenodd" clip-rule="evenodd" d="M22.5194 3.11389C17.8031 3.1118 9.78069 3.10867 3.38889 3.1118C2.92463 3.11219 2.46539 3.20789 2.03961 3.39297C1.61383 3.57806 1.23058 3.84858 0.913599 4.18779C0.596616 4.52701 0.352648 4.92768 0.196804 5.36501C0.0409588 5.80234 -0.0234442 6.267 0.00758323 6.73023L0.561211 15.0796C0.635767 16.2049 1.11242 17.2659 1.90421 18.069C2.696 18.8721 3.75014 19.3638 4.87429 19.4543L21.5562 20.7934L26.0459 3.11598L22.5194 3.11389ZM20.6025 5.13515H20.0228C16.255 5.13306 9.3336 5.12993 3.4453 5.13515C3.26017 5.13525 3.07701 5.17319 2.90708 5.24667C2.73715 5.32014 2.58403 5.42758 2.45715 5.56239C2.33026 5.6972 2.23228 5.85654 2.16922 6.0306C2.10617 6.20467 2.07937 6.38979 2.09048 6.57459L2.60023 14.9918C2.67962 16.2955 3.77434 17.3578 5.28481 17.456L18.0872 18.4139C18.3822 18.4359 18.6756 18.3529 18.9153 18.1795C19.155 18.0061 19.3257 17.7535 19.3971 17.4664L22.019 6.95272C22.0732 6.73726 22.0775 6.51229 22.0316 6.29491C21.9858 6.07753 21.8909 5.87346 21.7544 5.69823C21.6178 5.52299 21.4431 5.3812 21.2435 5.28363C21.0439 5.18606 20.8247 5.13528 20.6025 5.13515Z" fill="url(#paint10_linear_951_4296)"/>
<path fill-rule="evenodd" clip-rule="evenodd" d="M22.5194 3.11389C17.8031 3.1118 9.78069 3.10867 3.38889 3.1118C2.92463 3.11219 2.46539 3.20789 2.03961 3.39297C1.61383 3.57806 1.23058 3.84858 0.913599 4.18779C0.596616 4.52701 0.352648 4.92768 0.196804 5.36501C0.0409588 5.80234 -0.0234442 6.267 0.00758323 6.73023L0.561211 15.0796C0.635767 16.2049 1.11242 17.2659 1.90421 18.069C2.696 18.8721 3.75014 19.3638 4.87429 19.4543L21.5562 20.7934L26.0459 3.11598L22.5194 3.11389ZM20.6025 5.13515H20.0228C16.255 5.13306 9.3336 5.12993 3.4453 5.13515C3.26017 5.13525 3.07701 5.17319 2.90708 5.24667C2.73715 5.32014 2.58403 5.42758 2.45715 5.56239C2.33026 5.6972 2.23228 5.85654 2.16922 6.0306C2.10617 6.20467 2.07937 6.38979 2.09048 6.57459L2.60023 14.9918C2.67962 16.2955 3.77434 17.3578 5.28481 17.456L18.0872 18.4139C18.3822 18.4359 18.6756 18.3529 18.9153 18.1795C19.155 18.0061 19.3257 17.7535 19.3971 17.4664L22.019 6.95272C22.0732 6.73726 22.0775 6.51229 22.0316 6.29491C21.9858 6.07753 21.8909 5.87346 21.7544 5.69823C21.6178 5.52299 21.4431 5.3812 21.2435 5.28363C21.0439 5.18606 20.8247 5.13528 20.6025 5.13515Z" fill="url(#paint11_radial_951_4296)"/>
</g>
<g filter="url(#filter6_i_951_4296)">
<path fill-rule="evenodd" clip-rule="evenodd" d="M26.7687 0.503471C27.0377 0.569688 27.2694 0.740052 27.4128 0.977086C27.5562 1.21412 27.5995 1.49841 27.5333 1.76741L22.816 20.8968C22.7832 21.03 22.7244 21.1555 22.6431 21.2659C22.5617 21.3764 22.4594 21.4698 22.342 21.5408C22.2246 21.6117 22.0944 21.6589 21.9587 21.6795C21.8231 21.7001 21.6847 21.6938 21.5515 21.6609C21.4183 21.6281 21.2929 21.5693 21.1824 21.488C21.0719 21.4067 20.9786 21.3044 20.9076 21.187C20.8367 21.0695 20.7895 20.9393 20.7689 20.8037C20.7483 20.668 20.7546 20.5297 20.7874 20.3965L25.5048 1.26915C25.571 1.00015 25.7413 0.768464 25.9784 0.625068C26.2154 0.481672 26.4997 0.437264 26.7687 0.503471Z" fill="#C1BFC4"/>
</g>
<path fill-rule="evenodd" clip-rule="evenodd" d="M26.7687 0.503471C27.0377 0.569688 27.2694 0.740052 27.4128 0.977086C27.5562 1.21412 27.5995 1.49841 27.5333 1.76741L22.816 20.8968C22.7832 21.03 22.7244 21.1555 22.6431 21.2659C22.5617 21.3764 22.4594 21.4698 22.342 21.5408C22.2246 21.6117 22.0944 21.6589 21.9587 21.6795C21.8231 21.7001 21.6847 21.6938 21.5515 21.6609C21.4183 21.6281 21.2929 21.5693 21.1824 21.488C21.0719 21.4067 20.9786 21.3044 20.9076 21.187C20.8367 21.0695 20.7895 20.9393 20.7689 20.8037C20.7483 20.668 20.7546 20.5297 20.7874 20.3965L25.5048 1.26915C25.571 1.00015 25.7413 0.768464 25.9784 0.625068C26.2154 0.481672 26.4997 0.437264 26.7687 0.503471Z" fill="url(#paint12_radial_951_4296)"/>
<path fill-rule="evenodd" clip-rule="evenodd" d="M26.7687 0.503471C27.0377 0.569688 27.2694 0.740052 27.4128 0.977086C27.5562 1.21412 27.5995 1.49841 27.5333 1.76741L22.816 20.8968C22.7832 21.03 22.7244 21.1555 22.6431 21.2659C22.5617 21.3764 22.4594 21.4698 22.342 21.5408C22.2246 21.6117 22.0944 21.6589 21.9587 21.6795C21.8231 21.7001 21.6847 21.6938 21.5515 21.6609C21.4183 21.6281 21.2929 21.5693 21.1824 21.488C21.0719 21.4067 20.9786 21.3044 20.9076 21.187C20.8367 21.0695 20.7895 20.9393 20.7689 20.8037C20.7483 20.668 20.7546 20.5297 20.7874 20.3965L25.5048 1.26915C25.571 1.00015 25.7413 0.768464 25.9784 0.625068C26.2154 0.481672 26.4997 0.437264 26.7687 0.503471Z" fill="url(#paint13_radial_951_4296)"/>
<g filter="url(#filter7_i_951_4296)">
<path d="M25.1183 1.02056C25.1183 0.456482 25.5758 0 26.1388 0H28.1382C28.403 0.00847751 28.6542 0.11966 28.8386 0.310028C29.023 0.500395 29.1261 0.755018 29.1261 1.02003C29.1261 1.28505 29.023 1.53967 28.8386 1.73004C28.6542 1.92041 28.403 2.03159 28.1382 2.04007H26.1388C25.8685 2.03979 25.6094 1.93229 25.4182 1.74115C25.2271 1.55002 25.1196 1.29086 25.1193 1.02056" fill="#347CC3"/>
<path d="M25.1183 1.02056C25.1183 0.456482 25.5758 0 26.1388 0H28.1382C28.403 0.00847751 28.6542 0.11966 28.8386 0.310028C29.023 0.500395 29.1261 0.755018 29.1261 1.02003C29.1261 1.28505 29.023 1.53967 28.8386 1.73004C28.6542 1.92041 28.403 2.03159 28.1382 2.04007H26.1388C25.8685 2.03979 25.6094 1.93229 25.4182 1.74115C25.2271 1.55002 25.1196 1.29086 25.1193 1.02056" fill="url(#paint14_linear_951_4296)"/>
</g>
<g filter="url(#filter8_f_951_4296)">
<path d="M1.6392 5.79427C1.52534 5.05993 2.29102 4.04773 3.23114 4.04773H24.4163" stroke="url(#paint15_linear_951_4296)" stroke-width="0.4"/>
</g>
<g filter="url(#filter9_f_951_4296)">
<path d="M1.35093 7.802L1.93798 15.4734C2.01424 16.2997 2.74231 18.0389 5.04039 18.3773C7.33847 18.7179 15.8006 19.1503 19.6645 19.4553" stroke="url(#paint16_linear_951_4296)" stroke-width="0.4"/>
</g>
<g filter="url(#filter10_f_951_4296)">
<path d="M26.4532 2.5791L21.8184 20.6629" stroke="#C8C5CD" stroke-width="0.5" stroke-linecap="round"/>
</g>
<g filter="url(#filter11_f_951_4296)">
<path d="M28.4693 0.67688H26.2423C26.1338 0.67688 26.0459 0.764569 26.0459 0.872739C26.0459 0.980909 26.1338 1.0686 26.2423 1.0686H28.4693C28.5778 1.0686 28.6657 0.980909 28.6657 0.872739C28.6657 0.764569 28.5778 0.67688 28.4693 0.67688Z" fill="#6B9ADA"/>
</g>
<defs>
<filter id="filter0_ii_951_4296" x="0.0573883" y="14.4299" width="28.0811" height="10.8973" filterUnits="userSpaceOnUse" color-interpolation-filters="sRGB">
<feFlood flood-opacity="0" result="BackgroundImageFix"/>
<feBlend mode="normal" in="SourceGraphic" in2="BackgroundImageFix" result="shape"/>
<feColorMatrix in="SourceAlpha" type="matrix" values="0 0 0 0 0 0 0 0 0 0 0 0 0 0 0 0 0 0 127 0" result="hardAlpha"/>
<feOffset dy="-0.5"/>
<feGaussianBlur stdDeviation="0.5"/>
<feComposite in2="hardAlpha" operator="arithmetic" k2="-1" k3="1"/>
<feColorMatrix type="matrix" values="0 0 0 0 0.596078 0 0 0 0 0.505882 0 0 0 0 0.682353 0 0 0 1 0"/>
<feBlend mode="normal" in2="shape" result="effect1_innerShadow_951_4296"/>
<feColorMatrix in="SourceAlpha" type="matrix" values="0 0 0 0 0 0 0 0 0 0 0 0 0 0 0 0 0 0 127 0" result="hardAlpha"/>
<feOffset dy="0.4"/>
<feGaussianBlur stdDeviation="0.5"/>
<feComposite in2="hardAlpha" operator="arithmetic" k2="-1" k3="1"/>
<feColorMatrix type="matrix" values="0 0 0 0 0.654902 0 0 0 0 0.647059 0 0 0 0 0.666667 0 0 0 1 0"/>
<feBlend mode="normal" in2="effect1_innerShadow_951_4296" result="effect2_innerShadow_951_4296"/>
</filter>
<filter id="filter1_f_951_4296" x="2.29279" y="25.1301" width="2.67064" height="2.67065" filterUnits="userSpaceOnUse" color-interpolation-filters="sRGB">
<feFlood flood-opacity="0" result="BackgroundImageFix"/>
<feBlend mode="normal" in="SourceGraphic" in2="BackgroundImageFix" result="shape"/>
<feGaussianBlur stdDeviation="0.125" result="effect1_foregroundBlur_951_4296"/>
</filter>
<filter id="filter2_i_951_4296" x="1.01561" y="4.55056" width="23.1197" height="14.6311" filterUnits="userSpaceOnUse" color-interpolation-filters="sRGB">
<feFlood flood-opacity="0" result="BackgroundImageFix"/>
<feBlend mode="normal" in="SourceGraphic" in2="BackgroundImageFix" result="shape"/>
<feColorMatrix in="SourceAlpha" type="matrix" values="0 0 0 0 0 0 0 0 0 0 0 0 0 0 0 0 0 0 127 0" result="hardAlpha"/>
<feOffset dy="-0.15"/>
<feGaussianBlur stdDeviation="0.075"/>
<feComposite in2="hardAlpha" operator="arithmetic" k2="-1" k3="1"/>
<feColorMatrix type="matrix" values="0 0 0 0 0.619608 0 0 0 0 0.564706 0 0 0 0 0.67451 0 0 0 1 0"/>
<feBlend mode="normal" in2="shape" result="effect1_innerShadow_951_4296"/>
</filter>
<filter id="filter3_f_951_4296" x="0.766655" y="4.45056" width="23.6187" height="14.1119" filterUnits="userSpaceOnUse" color-interpolation-filters="sRGB">
<feFlood flood-opacity="0" result="BackgroundImageFix"/>
<feBlend mode="normal" in="SourceGraphic" in2="BackgroundImageFix" result="shape"/>
<feGaussianBlur stdDeviation="0.125" result="effect1_foregroundBlur_951_4296"/>
</filter>
<filter id="filter4_f_951_4296" x="20.9803" y="25.1301" width="2.67064" height="2.67065" filterUnits="userSpaceOnUse" color-interpolation-filters="sRGB">
<feFlood flood-opacity="0" result="BackgroundImageFix"/>
<feBlend mode="normal" in="SourceGraphic" in2="BackgroundImageFix" result="shape"/>
<feGaussianBlur stdDeviation="0.125" result="effect1_foregroundBlur_951_4296"/>
</filter>
<filter id="filter5_iii_951_4296" x="0" y="2.61047" width="26.2959" height="18.433" filterUnits="userSpaceOnUse" color-interpolation-filters="sRGB">
<feFlood flood-opacity="0" result="BackgroundImageFix"/>
<feBlend mode="normal" in="SourceGraphic" in2="BackgroundImageFix" result="shape"/>
<feColorMatrix in="SourceAlpha" type="matrix" values="0 0 0 0 0 0 0 0 0 0 0 0 0 0 0 0 0 0 127 0" result="hardAlpha"/>
<feOffset dy="-0.5"/>
<feGaussianBlur stdDeviation="0.5"/>
<feComposite in2="hardAlpha" operator="arithmetic" k2="-1" k3="1"/>
<feColorMatrix type="matrix" values="0 0 0 0 0.603922 0 0 0 0 0.568627 0 0 0 0 0.643137 0 0 0 1 0"/>
<feBlend mode="normal" in2="shape" result="effect1_innerShadow_951_4296"/>
<feColorMatrix in="SourceAlpha" type="matrix" values="0 0 0 0 0 0 0 0 0 0 0 0 0 0 0 0 0 0 127 0" result="hardAlpha"/>
<feOffset dy="0.25"/>
<feGaussianBlur stdDeviation="0.25"/>
<feComposite in2="hardAlpha" operator="arithmetic" k2="-1" k3="1"/>
<feColorMatrix type="matrix" values="0 0 0 0 0.654902 0 0 0 0 0.654902 0 0 0 0 0.662745 0 0 0 1 0"/>
<feBlend mode="normal" in2="effect1_innerShadow_951_4296" result="effect2_innerShadow_951_4296"/>
<feColorMatrix in="SourceAlpha" type="matrix" values="0 0 0 0 0 0 0 0 0 0 0 0 0 0 0 0 0 0 127 0" result="hardAlpha"/>
<feOffset dx="0.25"/>
<feGaussianBlur stdDeviation="0.25"/>
<feComposite in2="hardAlpha" operator="arithmetic" k2="-1" k3="1"/>
<feColorMatrix type="matrix" values="0 0 0 0 0.654902 0 0 0 0 0.654902 0 0 0 0 0.662745 0 0 0 1 0"/>
<feBlend mode="normal" in2="effect2_innerShadow_951_4296" result="effect3_innerShadow_951_4296"/>
</filter>
<filter id="filter6_i_951_4296" x="20.757" y="0.473389" width="7.55657" height="21.2179" filterUnits="userSpaceOnUse" color-interpolation-filters="sRGB">
<feFlood flood-opacity="0" result="BackgroundImageFix"/>
<feBlend mode="normal" in="SourceGraphic" in2="BackgroundImageFix" result="shape"/>
<feColorMatrix in="SourceAlpha" type="matrix" values="0 0 0 0 0 0 0 0 0 0 0 0 0 0 0 0 0 0 127 0" result="hardAlpha"/>
<feOffset dx="0.75"/>
<feGaussianBlur stdDeviation="0.5"/>
<feComposite in2="hardAlpha" operator="arithmetic" k2="-1" k3="1"/>
<feColorMatrix type="matrix" values="0 0 0 0 0.654902 0 0 0 0 0.639216 0 0 0 0 0.670588 0 0 0 1 0"/>
<feBlend mode="normal" in2="shape" result="effect1_innerShadow_951_4296"/>
</filter>
<filter id="filter7_i_951_4296" x="25.1183" y="-0.4" width="4.0078" height="2.44004" filterUnits="userSpaceOnUse" color-interpolation-filters="sRGB">
<feFlood flood-opacity="0" result="BackgroundImageFix"/>
<feBlend mode="normal" in="SourceGraphic" in2="BackgroundImageFix" result="shape"/>
<feColorMatrix in="SourceAlpha" type="matrix" values="0 0 0 0 0 0 0 0 0 0 0 0 0 0 0 0 0 0 127 0" result="hardAlpha"/>
<feOffset dy="-0.4"/>
<feGaussianBlur stdDeviation="0.375"/>
<feComposite in2="hardAlpha" operator="arithmetic" k2="-1" k3="1"/>
<feColorMatrix type="matrix" values="0 0 0 0 0.27451 0 0 0 0 0.356863 0 0 0 0 0.584314 0 0 0 1 0"/>
<feBlend mode="normal" in2="shape" result="effect1_innerShadow_951_4296"/>
</filter>
<filter id="filter8_f_951_4296" x="1.02789" y="3.44778" width="23.7884" height="2.77717" filterUnits="userSpaceOnUse" color-interpolation-filters="sRGB">
<feFlood flood-opacity="0" result="BackgroundImageFix"/>
<feBlend mode="normal" in="SourceGraphic" in2="BackgroundImageFix" result="shape"/>
<feGaussianBlur stdDeviation="0.2" result="effect1_foregroundBlur_951_4296"/>
</filter>
<filter id="filter9_f_951_4296" x="0.751512" y="7.38674" width="19.3288" height="12.668" filterUnits="userSpaceOnUse" color-interpolation-filters="sRGB">
<feFlood flood-opacity="0" result="BackgroundImageFix"/>
<feBlend mode="normal" in="SourceGraphic" in2="BackgroundImageFix" result="shape"/>
<feGaussianBlur stdDeviation="0.2" result="effect1_foregroundBlur_951_4296"/>
</filter>
<filter id="filter10_f_951_4296" x="21.0684" y="1.8291" width="6.13493" height="19.5839" filterUnits="userSpaceOnUse" color-interpolation-filters="sRGB">
<feFlood flood-opacity="0" result="BackgroundImageFix"/>
<feBlend mode="normal" in="SourceGraphic" in2="BackgroundImageFix" result="shape"/>
<feGaussianBlur stdDeviation="0.25" result="effect1_foregroundBlur_951_4296"/>
</filter>
<filter id="filter11_f_951_4296" x="25.5459" y="0.17688" width="3.61981" height="1.39172" filterUnits="userSpaceOnUse" color-interpolation-filters="sRGB">
<feFlood flood-opacity="0" result="BackgroundImageFix"/>
<feBlend mode="normal" in="SourceGraphic" in2="BackgroundImageFix" result="shape"/>
<feGaussianBlur stdDeviation="0.25" result="effect1_foregroundBlur_951_4296"/>
</filter>
<radialGradient id="paint0_radial_951_4296" cx="0" cy="0" r="1" gradientUnits="userSpaceOnUse" gradientTransform="translate(4.51693 25.7873) rotate(116.878) scale(2.67156)">
<stop offset="0.486" stop-color="#2C55AC" stop-opacity="0"/>
<stop offset="1" stop-color="#2C55AC"/>
</radialGradient>
<radialGradient id="paint1_radial_951_4296" cx="0" cy="0" r="1" gradientUnits="userSpaceOnUse" gradientTransform="translate(4.37812 26.2032) rotate(145.421) scale(1.02092 1.4448)">
<stop offset="0.614" stop-color="#6A99DB"/>
<stop offset="1" stop-color="#6A99DB" stop-opacity="0"/>
</radialGradient>
<radialGradient id="paint2_radial_951_4296" cx="0" cy="0" r="1" gradientUnits="userSpaceOnUse" gradientTransform="translate(3.99476 27.1914) rotate(-116.108) scale(2.74459 3.30654)">
<stop offset="0.657" stop-color="#2F5086" stop-opacity="0"/>
<stop offset="0.891" stop-color="#2F5086"/>
</radialGradient>
<radialGradient id="paint3_radial_951_4296" cx="0" cy="0" r="1" gradientUnits="userSpaceOnUse" gradientTransform="translate(12.5846 10.7395) rotate(90) scale(4.89648 10.2703)">
<stop offset="0.339" stop-color="#B9B6BC"/>
<stop offset="1" stop-color="#B9B6BC" stop-opacity="0"/>
</radialGradient>
<linearGradient id="paint4_linear_951_4296" x1="22.5685" y1="13.1878" x2="17.7373" y2="11.7515" gradientUnits="userSpaceOnUse">
<stop offset="0.239" stop-color="#807F82"/>
<stop offset="1" stop-color="#807F82" stop-opacity="0"/>
</linearGradient>
<linearGradient id="paint5_linear_951_4296" x1="17.7373" y1="3.81893" x2="17.7373" y2="11.7515" gradientUnits="userSpaceOnUse">
<stop offset="0.123" stop-color="#807F82"/>
<stop offset="0.407" stop-color="#807F82" stop-opacity="0"/>
</linearGradient>
<radialGradient id="paint6_radial_951_4296" cx="0" cy="0" r="1" gradientUnits="userSpaceOnUse" gradientTransform="translate(12.576 11.506) rotate(90) scale(10.0378 17.8844)">
<stop offset="0.405" stop-color="#C7C4CA"/>
<stop offset="1" stop-color="#C7C4CA" stop-opacity="0"/>
</radialGradient>
<radialGradient id="paint7_radial_951_4296" cx="0" cy="0" r="1" gradientUnits="userSpaceOnUse" gradientTransform="translate(23.2048 25.7879) rotate(116.878) scale(2.67156)">
<stop offset="0.486" stop-color="#2C55AC" stop-opacity="0"/>
<stop offset="1" stop-color="#2C55AC"/>
</radialGradient>
<radialGradient id="paint8_radial_951_4296" cx="0" cy="0" r="1" gradientUnits="userSpaceOnUse" gradientTransform="translate(22.9275 25.9669) rotate(130.696) scale(1.07636 1.52325)">
<stop offset="0.421" stop-color="#6A99DB"/>
<stop offset="1" stop-color="#6A99DB" stop-opacity="0"/>
</radialGradient>
<radialGradient id="paint9_radial_951_4296" cx="0" cy="0" r="1" gradientUnits="userSpaceOnUse" gradientTransform="translate(22.6834 27.1914) rotate(-116.108) scale(2.74459 3.30654)">
<stop offset="0.657" stop-color="#2F5086" stop-opacity="0"/>
<stop offset="0.891" stop-color="#2F5086"/>
</radialGradient>
<linearGradient id="paint10_linear_951_4296" x1="24.2335" y1="14.7871" x2="19.6635" y2="13.7425" gradientUnits="userSpaceOnUse">
<stop offset="0.214" stop-color="#9A979D"/>
<stop offset="1" stop-color="#9A979D" stop-opacity="0"/>
</linearGradient>
<radialGradient id="paint11_radial_951_4296" cx="0" cy="0" r="1" gradientUnits="userSpaceOnUse" gradientTransform="translate(26.0459 3.29669) rotate(180) scale(4.09671 1.68071)">
<stop stop-color="#969698"/>
<stop offset="1" stop-color="#969698" stop-opacity="0"/>
</radialGradient>
<radialGradient id="paint12_radial_951_4296" cx="0" cy="0" r="1" gradientUnits="userSpaceOnUse" gradientTransform="translate(23.0584 15.114) rotate(-75.9313) scale(13.9658 6.83946)">
<stop offset="0.891" stop-color="#9E9AA6" stop-opacity="0"/>
<stop offset="0.979" stop-color="#9E9AA6"/>
</radialGradient>
<radialGradient id="paint13_radial_951_4296" cx="0" cy="0" r="1" gradientUnits="userSpaceOnUse" gradientTransform="translate(25.9957 3.23192) rotate(104.096) scale(19.033 6.1055)">
<stop offset="0.95" stop-color="#AFAAB3" stop-opacity="0"/>
<stop offset="1" stop-color="#92889E"/>
</radialGradient>
<linearGradient id="paint14_linear_951_4296" x1="25.1193" y1="1.30573" x2="26.2903" y2="1.30573" gradientUnits="userSpaceOnUse">
<stop stop-color="#386CAA"/>
<stop offset="1" stop-color="#386CAA" stop-opacity="0"/>
</linearGradient>
<linearGradient id="paint15_linear_951_4296" x1="2.00376" y1="4.73298" x2="26.0615" y2="4.73298" gradientUnits="userSpaceOnUse">
<stop stop-color="#C6C4C9"/>
<stop offset="1" stop-color="#C6C4C9" stop-opacity="0"/>
</linearGradient>
<linearGradient id="paint16_linear_951_4296" x1="5.00696" y1="18.2478" x2="7.91194" y2="7.44267" gradientUnits="userSpaceOnUse">
<stop stop-color="#D4D1D7"/>
<stop offset="1" stop-color="#C6C4C9" stop-opacity="0"/>
</linearGradient>
</defs>
</svg>
