<svg width="25" height="28" viewBox="0 0 25 28" fill="none" xmlns="http://www.w3.org/2000/svg">
<g filter="url(#filter0_i_1148_2360)">
<path d="M0 7.75279C0.000124293 7.6691 0.0214006 7.5868 0.0618519 7.51354C0.102303 7.44028 0.160617 7.37843 0.231375 7.33374L11.7137 0.0767188C11.7931 0.0266009 11.885 0 11.9788 0C12.0727 0 12.1646 0.0266009 12.244 0.0767188L23.7253 7.33572C23.7961 7.38041 23.8544 7.44226 23.8948 7.51553C23.9353 7.58879 23.9566 7.67109 23.9567 7.75478V20.4238C23.9567 20.5083 23.935 20.5915 23.8938 20.6654C23.8526 20.7392 23.7933 20.8013 23.7214 20.8458L12.239 27.9261C12.1607 27.9744 12.0704 28 11.9783 28C11.8863 28 11.796 27.9744 11.7177 27.9261L0.237333 20.8448C0.165226 20.8005 0.10566 20.7384 0.0642947 20.6645C0.0229294 20.5907 0.00113873 20.5074 0.000993189 20.4228L0 7.75279Z" fill="url(#paint0_linear_1148_2360)"/>
<path d="M0 7.75279C0.000124293 7.6691 0.0214006 7.5868 0.0618519 7.51354C0.102303 7.44028 0.160617 7.37843 0.231375 7.33374L11.7137 0.0767188C11.7931 0.0266009 11.885 0 11.9788 0C12.0727 0 12.1646 0.0266009 12.244 0.0767188L23.7253 7.33572C23.7961 7.38041 23.8544 7.44226 23.8948 7.51553C23.9353 7.58879 23.9566 7.67109 23.9567 7.75478V20.4238C23.9567 20.5083 23.935 20.5915 23.8938 20.6654C23.8526 20.7392 23.7933 20.8013 23.7214 20.8458L12.239 27.9261C12.1607 27.9744 12.0704 28 11.9783 28C11.8863 28 11.796 27.9744 11.7177 27.9261L0.237333 20.8448C0.165226 20.8005 0.10566 20.7384 0.0642947 20.6645C0.0229294 20.5907 0.00113873 20.5074 0.000993189 20.4228L0 7.75279Z" fill="url(#paint1_linear_1148_2360)"/>
</g>
<g filter="url(#filter1_i_1148_2360)">
<path d="M11.8855 27.9906C11.826 27.9792 11.7691 27.957 11.7177 27.9251L0.237316 20.8448C0.165209 20.8004 0.105643 20.7384 0.0642781 20.6645C0.0229127 20.5906 0.00112211 20.5074 0.000976562 20.4228V7.75873L11.6521 14.9999C11.7237 15.0444 11.7828 15.1064 11.8238 15.18C11.8648 15.2537 11.8864 15.3366 11.8865 15.4209L11.8855 27.9906Z" fill="url(#paint2_linear_1148_2360)"/>
</g>
<path d="M23.9289 7.58899C23.9474 7.64197 23.9568 7.69771 23.9567 7.75383V20.4228C23.9567 20.5074 23.935 20.5905 23.8938 20.6644C23.8526 20.7383 23.7933 20.8004 23.7213 20.8449L12.239 27.9251C12.1334 27.99 12.0073 28.013 11.8855 27.9897V15.3376C11.8854 15.2531 11.9069 15.17 11.9479 15.0961C11.9889 15.0223 12.0481 14.9601 12.1199 14.9155L23.8375 7.63368C23.8664 7.61575 23.897 7.60078 23.9289 7.58899Z" fill="url(#paint3_linear_1148_2360)"/>
<path d="M23.9289 7.58899C23.9474 7.64197 23.9568 7.69771 23.9567 7.75383V20.4228C23.9567 20.5074 23.935 20.5905 23.8938 20.6644C23.8526 20.7383 23.7933 20.8004 23.7213 20.8449L12.239 27.9251C12.1334 27.99 12.0073 28.013 11.8855 27.9897V15.3376C11.8854 15.2531 11.9069 15.17 11.9479 15.0961C11.9889 15.0223 12.0481 14.9601 12.1199 14.9155L23.8375 7.63368C23.8664 7.61575 23.897 7.60078 23.9289 7.58899Z" fill="url(#paint4_linear_1148_2360)"/>
<g filter="url(#filter2_i_1148_2360)">
<path d="M6.95117 20.7862C6.95107 20.733 6.96522 20.6807 6.99217 20.6348C7.01912 20.5889 7.05787 20.5511 7.1044 20.5252C7.15093 20.4994 7.20354 20.4865 7.25675 20.4878C7.30996 20.4892 7.36183 20.5048 7.40697 20.533L10.5112 22.4625C10.5829 22.5071 10.6421 22.5692 10.6831 22.6431C10.7241 22.7169 10.7456 22.8 10.7455 22.8845V25.1287C10.7456 25.182 10.7315 25.2342 10.7045 25.2801C10.6776 25.326 10.6388 25.3639 10.5923 25.3897C10.5458 25.4156 10.4931 25.4285 10.4399 25.4271C10.3867 25.4258 10.3349 25.4102 10.2897 25.3819L7.18553 23.4525C7.11379 23.4079 7.05462 23.3457 7.01361 23.2719C6.9726 23.198 6.95111 23.1149 6.95117 23.0305V20.7862Z" fill="url(#paint5_linear_1148_2360)"/>
</g>
<g filter="url(#filter3_i_1148_2360)">
<path d="M4.43781 10.8838V13.6086L7.33942 15.3464V12.8112C7.33942 12.4716 7.51022 12.1578 7.79621 11.9751C11.7584 9.44092 18.8962 4.81542 19.069 4.64859C19.2279 4.5324 19.4394 4.58901 19.504 4.67937C19.504 4.49368 19.4047 4.38444 19.356 4.35366L16.6351 2.69332C16.5555 2.64469 16.4639 2.61946 16.3706 2.62052C16.2774 2.62157 16.1863 2.64887 16.1078 2.69928L4.98298 9.88182C4.81557 9.98993 4.67795 10.1383 4.58271 10.3133C4.48747 10.4884 4.43765 10.6845 4.43781 10.8838Z" fill="#966957"/>
<path d="M4.43781 10.8838V13.6086L7.33942 15.3464V12.8112C7.33942 12.4716 7.51022 12.1578 7.79621 11.9751C11.7584 9.44092 18.8962 4.81542 19.069 4.64859C19.2279 4.5324 19.4394 4.58901 19.504 4.67937C19.504 4.49368 19.4047 4.38444 19.356 4.35366L16.6351 2.69332C16.5555 2.64469 16.4639 2.61946 16.3706 2.62052C16.2774 2.62157 16.1863 2.64887 16.1078 2.69928L4.98298 9.88182C4.81557 9.98993 4.67795 10.1383 4.58271 10.3133C4.48747 10.4884 4.43765 10.6845 4.43781 10.8838Z" fill="url(#paint6_linear_1148_2360)"/>
<path d="M4.43781 10.8838V13.6086L7.33942 15.3464V12.8112C7.33942 12.4716 7.51022 12.1578 7.79621 11.9751C11.7584 9.44092 18.8962 4.81542 19.069 4.64859C19.2279 4.5324 19.4394 4.58901 19.504 4.67937C19.504 4.49368 19.4047 4.38444 19.356 4.35366L16.6351 2.69332C16.5555 2.64469 16.4639 2.61946 16.3706 2.62052C16.2774 2.62157 16.1863 2.64887 16.1078 2.69928L4.98298 9.88182C4.81557 9.98993 4.67795 10.1383 4.58271 10.3133C4.48747 10.4884 4.43765 10.6845 4.43781 10.8838Z" fill="url(#paint7_linear_1148_2360)"/>
</g>
<g filter="url(#filter4_f_1148_2360)">
<path d="M19.3024 4.46194C19.225 4.40633 19.1038 4.4391 19.0542 4.46194L7.58773 11.9414C7.52083 11.9906 7.46417 12.0523 7.4209 12.1231" stroke="#A47E73" stroke-width="0.05"/>
</g>
<g filter="url(#filter5_f_1148_2360)">
<path d="M12.1337 14.8659L23.6776 7.66644" stroke="#F4CAA3" stroke-width="0.2" stroke-linecap="round"/>
</g>
<defs>
<filter id="filter0_i_1148_2360" x="0" y="0" width="23.9567" height="28.1" filterUnits="userSpaceOnUse" color-interpolation-filters="sRGB">
<feFlood flood-opacity="0" result="BackgroundImageFix"/>
<feBlend mode="normal" in="SourceGraphic" in2="BackgroundImageFix" result="shape"/>
<feColorMatrix in="SourceAlpha" type="matrix" values="0 0 0 0 0 0 0 0 0 0 0 0 0 0 0 0 0 0 127 0" result="hardAlpha"/>
<feOffset dy="0.1"/>
<feGaussianBlur stdDeviation="0.15"/>
<feComposite in2="hardAlpha" operator="arithmetic" k2="-1" k3="1"/>
<feColorMatrix type="matrix" values="0 0 0 0 0.843137 0 0 0 0 0.694118 0 0 0 0 0.52549 0 0 0 1 0"/>
<feBlend mode="normal" in2="shape" result="effect1_innerShadow_1148_2360"/>
</filter>
<filter id="filter1_i_1148_2360" x="0.000976562" y="7.75873" width="12.8855" height="21.2319" filterUnits="userSpaceOnUse" color-interpolation-filters="sRGB">
<feFlood flood-opacity="0" result="BackgroundImageFix"/>
<feBlend mode="normal" in="SourceGraphic" in2="BackgroundImageFix" result="shape"/>
<feColorMatrix in="SourceAlpha" type="matrix" values="0 0 0 0 0 0 0 0 0 0 0 0 0 0 0 0 0 0 127 0" result="hardAlpha"/>
<feOffset dx="1" dy="1"/>
<feGaussianBlur stdDeviation="1.5"/>
<feComposite in2="hardAlpha" operator="arithmetic" k2="-1" k3="1"/>
<feColorMatrix type="matrix" values="0 0 0 0 0.831373 0 0 0 0 0.670588 0 0 0 0 0.545098 0 0 0 1 0"/>
<feBlend mode="normal" in2="shape" result="effect1_innerShadow_1148_2360"/>
</filter>
<filter id="filter2_i_1148_2360" x="6.85117" y="20.4877" width="3.89437" height="4.93951" filterUnits="userSpaceOnUse" color-interpolation-filters="sRGB">
<feFlood flood-opacity="0" result="BackgroundImageFix"/>
<feBlend mode="normal" in="SourceGraphic" in2="BackgroundImageFix" result="shape"/>
<feColorMatrix in="SourceAlpha" type="matrix" values="0 0 0 0 0 0 0 0 0 0 0 0 0 0 0 0 0 0 127 0" result="hardAlpha"/>
<feOffset dx="-0.15"/>
<feGaussianBlur stdDeviation="0.05"/>
<feComposite in2="hardAlpha" operator="arithmetic" k2="-1" k3="1"/>
<feColorMatrix type="matrix" values="0 0 0 0 0.760103 0 0 0 0 0.683293 0 0 0 0 0.795016 0 0 0 1 0"/>
<feBlend mode="normal" in2="shape" result="effect1_innerShadow_1148_2360"/>
</filter>
<filter id="filter3_i_1148_2360" x="4.33781" y="2.62048" width="15.1662" height="12.726" filterUnits="userSpaceOnUse" color-interpolation-filters="sRGB">
<feFlood flood-opacity="0" result="BackgroundImageFix"/>
<feBlend mode="normal" in="SourceGraphic" in2="BackgroundImageFix" result="shape"/>
<feColorMatrix in="SourceAlpha" type="matrix" values="0 0 0 0 0 0 0 0 0 0 0 0 0 0 0 0 0 0 127 0" result="hardAlpha"/>
<feOffset dx="-0.1"/>
<feGaussianBlur stdDeviation="0.05"/>
<feComposite in2="hardAlpha" operator="arithmetic" k2="-1" k3="1"/>
<feColorMatrix type="matrix" values="0 0 0 0 0.47451 0 0 0 0 0.266667 0 0 0 0 0.301961 0 0 0 1 0"/>
<feBlend mode="normal" in2="shape" result="effect1_innerShadow_1148_2360"/>
</filter>
<filter id="filter4_f_1148_2360" x="7.29954" y="4.30631" width="12.1175" height="7.92986" filterUnits="userSpaceOnUse" color-interpolation-filters="sRGB">
<feFlood flood-opacity="0" result="BackgroundImageFix"/>
<feBlend mode="normal" in="SourceGraphic" in2="BackgroundImageFix" result="shape"/>
<feGaussianBlur stdDeviation="0.05" result="effect1_foregroundBlur_1148_2360"/>
</filter>
<filter id="filter5_f_1148_2360" x="11.7837" y="7.31641" width="12.244" height="7.89948" filterUnits="userSpaceOnUse" color-interpolation-filters="sRGB">
<feFlood flood-opacity="0" result="BackgroundImageFix"/>
<feBlend mode="normal" in="SourceGraphic" in2="BackgroundImageFix" result="shape"/>
<feGaussianBlur stdDeviation="0.125" result="effect1_foregroundBlur_1148_2360"/>
</filter>
<linearGradient id="paint0_linear_1148_2360" x1="11.9788" y1="-0.00073706" x2="11.9788" y2="27.9986" gradientUnits="userSpaceOnUse">
<stop stop-color="#DEB586"/>
<stop offset="1" stop-color="#D7AA82"/>
</linearGradient>
<linearGradient id="paint1_linear_1148_2360" x1="6.79625" y1="12.0883" x2="7.24609" y2="11.3744" gradientUnits="userSpaceOnUse">
<stop offset="0.066" stop-color="#C99D78"/>
<stop offset="1" stop-color="#DCB185" stop-opacity="0"/>
</linearGradient>
<linearGradient id="paint2_linear_1148_2360" x1="1.58386" y1="13.1737" x2="10.0146" y2="27.2776" gradientUnits="userSpaceOnUse">
<stop stop-color="#B98875"/>
<stop offset="1" stop-color="#AA684F"/>
</linearGradient>
<linearGradient id="paint3_linear_1148_2360" x1="12.7236" y1="14.7417" x2="20.6678" y2="22.9967" gradientUnits="userSpaceOnUse">
<stop stop-color="#D7A585"/>
<stop offset="1" stop-color="#BD7943"/>
</linearGradient>
<linearGradient id="paint4_linear_1148_2360" x1="11.5628" y1="23.1477" x2="12.7127" y2="23.0841" gradientUnits="userSpaceOnUse">
<stop stop-color="#B46C4B"/>
<stop offset="1" stop-color="#BD7E61" stop-opacity="0"/>
</linearGradient>
<linearGradient id="paint5_linear_1148_2360" x1="7.50727" y1="20.6959" x2="10.109" y2="25.7096" gradientUnits="userSpaceOnUse">
<stop stop-color="#CAB6CD"/>
<stop offset="1" stop-color="#D1BED7"/>
</linearGradient>
<linearGradient id="paint6_linear_1148_2360" x1="4.99688" y1="13.8569" x2="6.98293" y2="10.9096" gradientUnits="userSpaceOnUse">
<stop offset="0.649" stop-color="#8D6D6C"/>
<stop offset="0.726" stop-color="#83554C"/>
<stop offset="0.825" stop-color="#83554C"/>
<stop offset="1" stop-color="#976A58" stop-opacity="0"/>
</linearGradient>
<linearGradient id="paint7_linear_1148_2360" x1="18.7433" y1="3.8492" x2="17.7503" y2="4.96635" gradientUnits="userSpaceOnUse">
<stop stop-color="#9C6F5D"/>
<stop offset="1" stop-color="#9C6F5D" stop-opacity="0"/>
</linearGradient>
</defs>
</svg>
