<svg width="36" height="28" viewBox="0 0 36 28" fill="none" xmlns="http://www.w3.org/2000/svg">
<path d="M19.0909 9.54545C19.0909 4.27365 14.8173 0 9.54545 0C4.27365 0 0 4.27365 0 9.54545V18.4545C0 23.7264 4.27365 28 9.54545 28C14.8173 28 19.0909 23.7264 19.0909 18.4545V9.54545Z" fill="#D3D3D3"/>
<path d="M19.0909 9.54545C19.0909 4.27365 14.8173 0 9.54545 0C4.27365 0 0 4.27365 0 9.54545V18.4545C0 23.7264 4.27365 28 9.54545 28C14.8173 28 19.0909 23.7264 19.0909 18.4545V9.54545Z" fill="url(#paint0_radial_904_5783)"/>
<path d="M19.0909 9.54545C19.0909 4.27365 14.8173 0 9.54545 0C4.27365 0 0 4.27365 0 9.54545V18.4545C0 23.7264 4.27365 28 9.54545 28C14.8173 28 19.0909 23.7264 19.0909 18.4545V9.54545Z" fill="url(#paint1_linear_904_5783)"/>
<path d="M19.0909 9.54545C19.0909 4.27365 14.8173 0 9.54545 0C4.27365 0 0 4.27365 0 9.54545V18.4545C0 23.7264 4.27365 28 9.54545 28C14.8173 28 19.0909 23.7264 19.0909 18.4545V9.54545Z" fill="url(#paint2_radial_904_5783)"/>
<path d="M19.0909 9.54545C19.0909 4.27365 14.8173 0 9.54545 0C4.27365 0 0 4.27365 0 9.54545V18.4545C0 23.7264 4.27365 28 9.54545 28C14.8173 28 19.0909 23.7264 19.0909 18.4545V9.54545Z" fill="url(#paint3_radial_904_5783)"/>
<path d="M19.0909 9.54545C19.0909 4.27365 14.8173 0 9.54545 0C4.27365 0 0 4.27365 0 9.54545V18.4545C0 23.7264 4.27365 28 9.54545 28C14.8173 28 19.0909 23.7264 19.0909 18.4545V9.54545Z" fill="url(#paint4_radial_904_5783)"/>
<path d="M19.0909 9.54545C19.0909 4.27365 14.8173 0 9.54545 0C4.27365 0 0 4.27365 0 9.54545V18.4545C0 23.7264 4.27365 28 9.54545 28C14.8173 28 19.0909 23.7264 19.0909 18.4545V9.54545Z" fill="url(#paint5_radial_904_5783)"/>
<path d="M19.0909 9.54545C19.0909 4.27365 14.8173 0 9.54545 0C4.27365 0 0 4.27365 0 9.54545V18.4545C0 23.7264 4.27365 28 9.54545 28C14.8173 28 19.0909 23.7264 19.0909 18.4545V9.54545Z" fill="url(#paint6_radial_904_5783)"/>
<g filter="url(#filter0_f_904_5783)">
<path d="M18.2942 7.05987C18.2942 6.44974 17.7996 5.95514 17.1895 5.95514C16.5793 5.95514 16.0847 6.44974 16.0847 7.05987V19.698C16.0847 20.3082 16.5793 20.8028 17.1895 20.8028C17.7996 20.8028 18.2942 20.3082 18.2942 19.698V7.05987Z" fill="#6F6873"/>
</g>
<path d="M35.6364 9.54545C35.6364 4.27365 31.3627 0 26.0909 0C20.8191 0 16.5455 4.27365 16.5455 9.54545V18.4545C16.5455 23.7264 20.8191 28 26.0909 28C31.3627 28 35.6364 23.7264 35.6364 18.4545V9.54545Z" fill="url(#paint7_radial_904_5783)"/>
<path d="M35.6364 9.54545C35.6364 4.27365 31.3627 0 26.0909 0C20.8191 0 16.5455 4.27365 16.5455 9.54545V18.4545C16.5455 23.7264 20.8191 28 26.0909 28C31.3627 28 35.6364 23.7264 35.6364 18.4545V9.54545Z" fill="url(#paint8_linear_904_5783)"/>
<path d="M35.6364 9.54545C35.6364 4.27365 31.3627 0 26.0909 0C20.8191 0 16.5455 4.27365 16.5455 9.54545V18.4545C16.5455 23.7264 20.8191 28 26.0909 28C31.3627 28 35.6364 23.7264 35.6364 18.4545V9.54545Z" fill="url(#paint9_radial_904_5783)"/>
<path d="M26.7273 10.8182C26.7273 8.35802 24.7329 6.36365 22.2727 6.36365C19.8126 6.36365 17.8182 8.35802 17.8182 10.8182V17.1818C17.8182 19.642 19.8126 21.6364 22.2727 21.6364C24.7329 21.6364 26.7273 19.642 26.7273 17.1818V10.8182Z" fill="url(#paint10_linear_904_5783)"/>
<path d="M26.7273 10.8182C26.7273 8.35802 24.7329 6.36365 22.2727 6.36365C19.8126 6.36365 17.8182 8.35802 17.8182 10.8182V17.1818C17.8182 19.642 19.8126 21.6364 22.2727 21.6364C24.7329 21.6364 26.7273 19.642 26.7273 17.1818V10.8182Z" fill="url(#paint11_radial_904_5783)"/>
<path d="M10.262 10.8182C10.262 8.35802 8.26764 6.36365 5.80746 6.36365C3.34728 6.36365 1.35291 8.35802 1.35291 10.8182V17.1818C1.35291 19.642 3.34728 21.6364 5.80746 21.6364C8.26764 21.6364 10.262 19.642 10.262 17.1818V10.8182Z" fill="url(#paint12_linear_904_5783)"/>
<path d="M10.262 10.8182C10.262 8.35802 8.26764 6.36365 5.80746 6.36365C3.34728 6.36365 1.35291 8.35802 1.35291 10.8182V17.1818C1.35291 19.642 3.34728 21.6364 5.80746 21.6364C8.26764 21.6364 10.262 19.642 10.262 17.1818V10.8182Z" fill="url(#paint13_radial_904_5783)"/>
<path d="M8.57663 11.2775C9.04934 10.884 9.02753 10.0785 8.52792 9.47825C8.02831 8.87804 7.2401 8.71046 6.76739 9.10395C6.29468 9.49743 6.31649 10.303 6.8161 10.9032C7.31571 11.5034 8.10392 11.671 8.57663 11.2775Z" fill="url(#paint14_radial_904_5783)"/>
<path d="M25.117 11.2775C25.5897 10.884 25.5679 10.0785 25.0683 9.47825C24.5687 8.87804 23.7804 8.71046 23.3077 9.10395C22.835 9.49743 22.8568 10.303 23.3564 10.9032C23.8561 11.5034 24.6443 11.671 25.117 11.2775Z" fill="url(#paint15_radial_904_5783)"/>
<defs>
<filter id="filter0_f_904_5783" x="14.8847" y="4.75514" width="4.60946" height="17.2477" filterUnits="userSpaceOnUse" color-interpolation-filters="sRGB">
<feFlood flood-opacity="0" result="BackgroundImageFix"/>
<feBlend mode="normal" in="SourceGraphic" in2="BackgroundImageFix" result="shape"/>
<feGaussianBlur stdDeviation="0.6" result="effect1_foregroundBlur_904_5783"/>
</filter>
<radialGradient id="paint0_radial_904_5783" cx="0" cy="0" r="1" gradientUnits="userSpaceOnUse" gradientTransform="translate(12.767 6.99979) rotate(101.077) scale(26.9104 20.8109)">
<stop stop-color="#FAF7FC"/>
<stop offset="0.457" stop-color="#D8D0DD"/>
<stop offset="0.708" stop-color="#D0B3E3"/>
<stop offset="1" stop-color="#CFABE4"/>
</radialGradient>
<linearGradient id="paint1_linear_904_5783" x1="-4.01673" y1="16.0682" x2="8.25109" y2="17.7304" gradientUnits="userSpaceOnUse">
<stop offset="0.399" stop-color="#9B969E"/>
<stop offset="1" stop-color="#9A959E" stop-opacity="0"/>
</linearGradient>
<radialGradient id="paint2_radial_904_5783" cx="0" cy="0" r="1" gradientUnits="userSpaceOnUse" gradientTransform="translate(17.6718 19.7782) rotate(-133.794) scale(25.5342 27.6387)">
<stop offset="0.844" stop-color="#9A959E" stop-opacity="0"/>
<stop offset="0.949" stop-color="#949296"/>
</radialGradient>
<radialGradient id="paint3_radial_904_5783" cx="0" cy="0" r="1" gradientUnits="userSpaceOnUse" gradientTransform="translate(21.7676 18.5505) rotate(-155.387) scale(10.9251 26.5639)">
<stop offset="0.022" stop-color="#D1AFE5"/>
<stop offset="1" stop-color="#D1AFE5" stop-opacity="0"/>
</radialGradient>
<radialGradient id="paint4_radial_904_5783" cx="0" cy="0" r="1" gradientUnits="userSpaceOnUse" gradientTransform="translate(18.1835 16.8089) rotate(180) scale(7.06535 20.0696)">
<stop stop-color="#ABA5B0"/>
<stop offset="1" stop-color="#ABA5B0" stop-opacity="0"/>
</radialGradient>
<radialGradient id="paint5_radial_904_5783" cx="0" cy="0" r="1" gradientUnits="userSpaceOnUse" gradientTransform="translate(21.3581 19.6754) rotate(-137.153) scale(9.63668 26.5521)">
<stop stop-color="#B689D0"/>
<stop offset="1" stop-color="#B689D0" stop-opacity="0"/>
</radialGradient>
<radialGradient id="paint6_radial_904_5783" cx="0" cy="0" r="1" gradientUnits="userSpaceOnUse" gradientTransform="translate(15.8558 5.17872) rotate(140.964) scale(4.47337 8.50906)">
<stop stop-color="#F3F2F4"/>
<stop offset="1" stop-color="#F3F2F4" stop-opacity="0"/>
</radialGradient>
<radialGradient id="paint7_radial_904_5783" cx="0" cy="0" r="1" gradientUnits="userSpaceOnUse" gradientTransform="translate(30.0272 8.90892) rotate(103.51) scale(25.1972 19.486)">
<stop stop-color="#FAF7FC"/>
<stop offset="0.457" stop-color="#D8D0DD"/>
<stop offset="0.708" stop-color="#D0B3E3"/>
<stop offset="1" stop-color="#CFABE4"/>
</radialGradient>
<linearGradient id="paint8_linear_904_5783" x1="12.5287" y1="16.0682" x2="24.6196" y2="17.1818" gradientUnits="userSpaceOnUse">
<stop offset="0.212" stop-color="#9B969E"/>
<stop offset="1" stop-color="#9A959E" stop-opacity="0"/>
</linearGradient>
<radialGradient id="paint9_radial_904_5783" cx="0" cy="0" r="1" gradientUnits="userSpaceOnUse" gradientTransform="translate(32.4012 5.17857) rotate(140.964) scale(4.47337 8.50906)">
<stop stop-color="#F3F2F4"/>
<stop offset="1" stop-color="#F3F2F4" stop-opacity="0"/>
</radialGradient>
<linearGradient id="paint10_linear_904_5783" x1="22.2727" y1="6.36365" x2="22.2727" y2="21.6364" gradientUnits="userSpaceOnUse">
<stop offset="0.354" stop-color="#232224"/>
<stop offset="1" stop-color="#623C86"/>
</linearGradient>
<radialGradient id="paint11_radial_904_5783" cx="0" cy="0" r="1" gradientUnits="userSpaceOnUse" gradientTransform="translate(23.4258 13.2046) rotate(90) scale(8.43182 2.76669)">
<stop offset="0.354" stop-color="#443753"/>
<stop offset="1" stop-color="#433750" stop-opacity="0"/>
</radialGradient>
<linearGradient id="paint12_linear_904_5783" x1="5.80746" y1="6.36365" x2="5.80746" y2="21.6364" gradientUnits="userSpaceOnUse">
<stop offset="0.354" stop-color="#232224"/>
<stop offset="1" stop-color="#623C86"/>
</linearGradient>
<radialGradient id="paint13_radial_904_5783" cx="0" cy="0" r="1" gradientUnits="userSpaceOnUse" gradientTransform="translate(6.96055 13.2046) rotate(90) scale(8.43182 2.76669)">
<stop offset="0.354" stop-color="#443753"/>
<stop offset="1" stop-color="#433750" stop-opacity="0"/>
</radialGradient>
<radialGradient id="paint14_radial_904_5783" cx="0" cy="0" r="1" gradientUnits="userSpaceOnUse" gradientTransform="translate(6.99995 9.34753) rotate(87.7401) scale(3.02509 3.18356)">
<stop stop-color="white"/>
<stop offset="1" stop-color="#F4F4F4" stop-opacity="0"/>
</radialGradient>
<radialGradient id="paint15_radial_904_5783" cx="0" cy="0" r="1" gradientUnits="userSpaceOnUse" gradientTransform="translate(23.5413 9.34672) rotate(87.7401) scale(3.02509 3.18356)">
<stop stop-color="white"/>
<stop offset="1" stop-color="#F4F4F4" stop-opacity="0"/>
</radialGradient>
</defs>
</svg>
