<svg width="26" height="28" viewBox="0 0 26 28" fill="none" xmlns="http://www.w3.org/2000/svg">
<g filter="url(#filter0_ii_933_6069)">
<path d="M3.08214 25.0728L6.81037 21.7742L16.8124 20.5375L21.9656 25.1239C22.2149 25.3458 22.3909 25.6382 22.4702 25.9624C22.5495 26.2866 22.5284 26.6273 22.4097 26.9392C22.291 27.2511 22.0803 27.5196 21.8055 27.709C21.5307 27.8985 21.2048 27.9999 20.8711 27.9999H4.1907C3.85094 28 3.51921 27.8966 3.23962 27.7036C2.96003 27.5106 2.74583 27.237 2.62549 26.9192C2.50516 26.6015 2.4844 26.2547 2.56597 25.9248C2.64754 25.595 2.82758 25.2979 3.08214 25.0728Z" fill="url(#paint0_linear_933_6069)"/>
<path d="M3.08214 25.0728L6.81037 21.7742L16.8124 20.5375L21.9656 25.1239C22.2149 25.3458 22.3909 25.6382 22.4702 25.9624C22.5495 26.2866 22.5284 26.6273 22.4097 26.9392C22.291 27.2511 22.0803 27.5196 21.8055 27.709C21.5307 27.8985 21.2048 27.9999 20.8711 27.9999H4.1907C3.85094 28 3.51921 27.8966 3.23962 27.7036C2.96003 27.5106 2.74583 27.237 2.62549 26.9192C2.50516 26.6015 2.4844 26.2547 2.56597 25.9248C2.64754 25.595 2.82758 25.2979 3.08214 25.0728Z" fill="url(#paint1_linear_933_6069)"/>
<path d="M3.08214 25.0728L6.81037 21.7742L16.8124 20.5375L21.9656 25.1239C22.2149 25.3458 22.3909 25.6382 22.4702 25.9624C22.5495 26.2866 22.5284 26.6273 22.4097 26.9392C22.291 27.2511 22.0803 27.5196 21.8055 27.709C21.5307 27.8985 21.2048 27.9999 20.8711 27.9999H4.1907C3.85094 28 3.51921 27.8966 3.23962 27.7036C2.96003 27.5106 2.74583 27.237 2.62549 26.9192C2.50516 26.6015 2.4844 26.2547 2.56597 25.9248C2.64754 25.595 2.82758 25.2979 3.08214 25.0728Z" fill="url(#paint2_radial_933_6069)"/>
</g>
<path d="M3.08214 25.0728L6.81037 21.7742L16.8124 20.5375L21.9656 25.1239C22.2149 25.3458 22.3909 25.6382 22.4702 25.9624C22.5495 26.2866 22.5284 26.6273 22.4097 26.9392C22.291 27.2511 22.0803 27.5196 21.8055 27.709C21.5307 27.8985 21.2048 27.9999 20.8711 27.9999H4.1907C3.85094 28 3.51921 27.8966 3.23962 27.7036C2.96003 27.5106 2.74583 27.237 2.62549 26.9192C2.50516 26.6015 2.4844 26.2547 2.56597 25.9248C2.64754 25.595 2.82758 25.2979 3.08214 25.0728Z" fill="url(#paint3_linear_933_6069)"/>
<g filter="url(#filter1_ii_933_6069)">
<path d="M12.5174 25.0348C18.0401 25.0348 22.5174 20.5585 22.5174 15.0348C22.5174 9.51207 18.0412 5.03479 12.5174 5.03479C6.99467 5.03479 2.5174 9.51106 2.5174 15.0348C2.5174 20.5575 6.99367 25.0348 12.5174 25.0348Z" fill="url(#paint4_radial_933_6069)"/>
<path d="M12.5174 25.0348C18.0401 25.0348 22.5174 20.5585 22.5174 15.0348C22.5174 9.51207 18.0412 5.03479 12.5174 5.03479C6.99467 5.03479 2.5174 9.51106 2.5174 15.0348C2.5174 20.5575 6.99367 25.0348 12.5174 25.0348Z" fill="url(#paint5_radial_933_6069)"/>
</g>
<g filter="url(#filter2_i_933_6069)">
<path d="M12.5173 21.8834C13.4282 21.8834 14.3302 21.704 15.1717 21.3554C16.0133 21.0069 16.7779 20.4959 17.422 19.8519C18.0661 19.2078 18.577 18.4431 18.9256 17.6016C19.2741 16.76 19.4536 15.8581 19.4536 14.9472C19.4536 14.0363 19.2741 13.1344 18.9256 12.2928C18.577 11.4513 18.0661 10.6866 17.422 10.0426C16.7779 9.39847 16.0133 8.88755 15.1717 8.53897C14.3302 8.1904 13.4282 8.01099 12.5173 8.01099C10.6777 8.01099 8.91348 8.74176 7.61269 10.0426C6.31189 11.3434 5.58112 13.1076 5.58112 14.9472C5.58112 16.7868 6.31189 18.5511 7.61269 19.8519C8.91348 21.1527 10.6777 21.8834 12.5173 21.8834Z" fill="url(#paint6_linear_933_6069)"/>
<path d="M12.5173 21.8834C13.4282 21.8834 14.3302 21.704 15.1717 21.3554C16.0133 21.0069 16.7779 20.4959 17.422 19.8519C18.0661 19.2078 18.577 18.4431 18.9256 17.6016C19.2741 16.76 19.4536 15.8581 19.4536 14.9472C19.4536 14.0363 19.2741 13.1344 18.9256 12.2928C18.577 11.4513 18.0661 10.6866 17.422 10.0426C16.7779 9.39847 16.0133 8.88755 15.1717 8.53897C14.3302 8.1904 13.4282 8.01099 12.5173 8.01099C10.6777 8.01099 8.91348 8.74176 7.61269 10.0426C6.31189 11.3434 5.58112 13.1076 5.58112 14.9472C5.58112 16.7868 6.31189 18.5511 7.61269 19.8519C8.91348 21.1527 10.6777 21.8834 12.5173 21.8834Z" fill="url(#paint7_radial_933_6069)"/>
</g>
<path d="M12.5173 21.8834C13.4282 21.8834 14.3302 21.704 15.1717 21.3554C16.0133 21.0069 16.7779 20.4959 17.422 19.8519C18.0661 19.2078 18.577 18.4431 18.9256 17.6016C19.2741 16.76 19.4536 15.8581 19.4536 14.9472C19.4536 14.0363 19.2741 13.1344 18.9256 12.2928C18.577 11.4513 18.0661 10.6866 17.422 10.0426C16.7779 9.39847 16.0133 8.88755 15.1717 8.53897C14.3302 8.1904 13.4282 8.01099 12.5173 8.01099C10.6777 8.01099 8.91348 8.74176 7.61269 10.0426C6.31189 11.3434 5.58112 13.1076 5.58112 14.9472C5.58112 16.7868 6.31189 18.5511 7.61269 19.8519C8.91348 21.1527 10.6777 21.8834 12.5173 21.8834Z" fill="url(#paint8_radial_933_6069)"/>
<g filter="url(#filter3_f_933_6069)">
<path fill-rule="evenodd" clip-rule="evenodd" d="M12.8989 11.4799C12.8907 11.2199 12.7816 10.9733 12.5948 10.7923C12.408 10.6113 12.1581 10.5101 11.898 10.5101C11.6379 10.5101 11.388 10.6113 11.2012 10.7923C11.0144 10.9733 10.9053 11.2199 10.8971 11.4799V15.4815C10.8971 15.82 11.0643 16.1184 11.3207 16.2996L13.2684 18.1933C13.3617 18.2913 13.4739 18.3694 13.5981 18.4228C13.7224 18.4763 13.8562 18.504 13.9915 18.5043C14.1268 18.5046 14.2608 18.4775 14.3853 18.4246C14.5098 18.3717 14.6223 18.2942 14.7161 18.1966C14.8098 18.099 14.8827 17.9835 14.9306 17.8569C14.9784 17.7303 15.0001 17.5954 14.9943 17.4602C14.9885 17.3251 14.9554 17.1925 14.897 17.0704C14.8386 16.9484 14.756 16.8395 14.6544 16.7503L12.8989 15.0429V11.4799Z" fill="url(#paint9_linear_933_6069)"/>
</g>
<path d="M2.30907 0.935067C0.312267 2.34705 -0.46282 4.9507 0.273212 7.2379C0.505538 7.9489 1.32068 8.2343 1.92152 7.81771L8.53079 3.15117C9.12262 2.73459 9.1817 1.82932 8.63794 1.33162C6.90351 -0.244586 4.30586 -0.477913 2.30907 0.935067Z" fill="url(#paint10_radial_933_6069)"/>
<path d="M2.30907 0.935067C0.312267 2.34705 -0.46282 4.9507 0.273212 7.2379C0.505538 7.9489 1.32068 8.2343 1.92152 7.81771L8.53079 3.15117C9.12262 2.73459 9.1817 1.82932 8.63794 1.33162C6.90351 -0.244586 4.30586 -0.477913 2.30907 0.935067Z" fill="url(#paint11_linear_933_6069)"/>
<path d="M22.7257 0.935067C24.7225 2.34705 25.4976 4.9507 24.7615 7.2379C24.5292 7.9489 23.7141 8.2343 23.1132 7.81771L16.504 3.15117C15.9121 2.73459 15.8531 1.82932 16.3968 1.33162C18.1313 -0.244586 20.7289 -0.477913 22.7257 0.935067Z" fill="url(#paint12_radial_933_6069)"/>
<path d="M22.7257 0.935067C24.7225 2.34705 25.4976 4.9507 24.7615 7.2379C24.5292 7.9489 23.7141 8.2343 23.1132 7.81771L16.504 3.15117C15.9121 2.73459 15.8531 1.82932 16.3968 1.33162C18.1313 -0.244586 20.7289 -0.477913 22.7257 0.935067Z" fill="url(#paint13_linear_933_6069)"/>
<path fill-rule="evenodd" clip-rule="evenodd" d="M11.8254 14.3389C12.0092 14.1478 12.2613 14.0375 12.5264 14.0321C12.7914 14.0266 13.0478 14.1265 13.2394 14.3098L15.2742 16.2886C15.4517 16.4755 15.5503 16.7236 15.5495 16.9814C15.5487 17.2391 15.4485 17.4866 15.2699 17.6724C15.0912 17.8582 14.8478 17.9679 14.5903 17.9788C14.3327 17.9896 14.0809 17.9007 13.8873 17.7306L11.8534 15.7529C11.6625 15.5689 11.5524 15.3167 11.5471 15.0517C11.5419 14.7866 11.6419 14.5303 11.8254 14.3389Z" fill="url(#paint14_linear_933_6069)"/>
<path fill-rule="evenodd" clip-rule="evenodd" d="M12.5174 10.0169C12.783 10.0169 13.0377 10.1224 13.2255 10.3102C13.4133 10.498 13.5188 10.7527 13.5188 11.0183V15.0199C13.5188 15.2855 13.4133 15.5402 13.2255 15.728C13.0377 15.9158 12.783 16.0213 12.5174 16.0213C12.2518 16.0213 11.9971 15.9158 11.8093 15.728C11.6215 15.5402 11.516 15.2855 11.516 15.0199V11.0173C11.516 10.7517 11.6215 10.497 11.8093 10.3092C11.9971 10.1214 12.2518 10.0159 12.5174 10.0159" fill="url(#paint15_linear_933_6069)"/>
<path fill-rule="evenodd" clip-rule="evenodd" d="M12.5174 10.0169C12.783 10.0169 13.0377 10.1224 13.2255 10.3102C13.4133 10.498 13.5188 10.7527 13.5188 11.0183V15.0199C13.5188 15.2855 13.4133 15.5402 13.2255 15.728C13.0377 15.9158 12.783 16.0213 12.5174 16.0213C12.2518 16.0213 11.9971 15.9158 11.8093 15.728C11.6215 15.5402 11.516 15.2855 11.516 15.0199V11.0173C11.516 10.7517 11.6215 10.497 11.8093 10.3092C11.9971 10.1214 12.2518 10.0159 12.5174 10.0159" fill="url(#paint16_radial_933_6069)"/>
<defs>
<filter id="filter0_ii_933_6069" x="2.01703" y="20.5375" width="21.0003" height="7.9624" filterUnits="userSpaceOnUse" color-interpolation-filters="sRGB">
<feFlood flood-opacity="0" result="BackgroundImageFix"/>
<feBlend mode="normal" in="SourceGraphic" in2="BackgroundImageFix" result="shape"/>
<feColorMatrix in="SourceAlpha" type="matrix" values="0 0 0 0 0 0 0 0 0 0 0 0 0 0 0 0 0 0 127 0" result="hardAlpha"/>
<feOffset dx="-0.5" dy="0.5"/>
<feGaussianBlur stdDeviation="0.5"/>
<feComposite in2="hardAlpha" operator="arithmetic" k2="-1" k3="1"/>
<feColorMatrix type="matrix" values="0 0 0 0 0.980392 0 0 0 0 0.945098 0 0 0 0 1 0 0 0 1 0"/>
<feBlend mode="normal" in2="shape" result="effect1_innerShadow_933_6069"/>
<feColorMatrix in="SourceAlpha" type="matrix" values="0 0 0 0 0 0 0 0 0 0 0 0 0 0 0 0 0 0 127 0" result="hardAlpha"/>
<feOffset dx="0.5" dy="0.5"/>
<feGaussianBlur stdDeviation="0.5"/>
<feComposite in2="hardAlpha" operator="arithmetic" k2="-1" k3="1"/>
<feColorMatrix type="matrix" values="0 0 0 0 0.576471 0 0 0 0 0.533333 0 0 0 0 0.584314 0 0 0 1 0"/>
<feBlend mode="normal" in2="effect1_innerShadow_933_6069" result="effect2_innerShadow_933_6069"/>
</filter>
<filter id="filter1_ii_933_6069" x="2.2174" y="5.03479" width="20.7" height="20" filterUnits="userSpaceOnUse" color-interpolation-filters="sRGB">
<feFlood flood-opacity="0" result="BackgroundImageFix"/>
<feBlend mode="normal" in="SourceGraphic" in2="BackgroundImageFix" result="shape"/>
<feColorMatrix in="SourceAlpha" type="matrix" values="0 0 0 0 0 0 0 0 0 0 0 0 0 0 0 0 0 0 127 0" result="hardAlpha"/>
<feOffset dx="0.4"/>
<feGaussianBlur stdDeviation="0.4"/>
<feComposite in2="hardAlpha" operator="arithmetic" k2="-1" k3="1"/>
<feColorMatrix type="matrix" values="0 0 0 0 0.682353 0 0 0 0 0.25098 0 0 0 0 0.262745 0 0 0 1 0"/>
<feBlend mode="normal" in2="shape" result="effect1_innerShadow_933_6069"/>
<feColorMatrix in="SourceAlpha" type="matrix" values="0 0 0 0 0 0 0 0 0 0 0 0 0 0 0 0 0 0 127 0" result="hardAlpha"/>
<feOffset dx="-0.3"/>
<feGaussianBlur stdDeviation="0.3"/>
<feComposite in2="hardAlpha" operator="arithmetic" k2="-1" k3="1"/>
<feColorMatrix type="matrix" values="0 0 0 0 1 0 0 0 0 0.309804 0 0 0 0 0.588235 0 0 0 1 0"/>
<feBlend mode="normal" in2="effect1_innerShadow_933_6069" result="effect2_innerShadow_933_6069"/>
</filter>
<filter id="filter2_i_933_6069" x="5.08112" y="8.01099" width="14.3724" height="14.3724" filterUnits="userSpaceOnUse" color-interpolation-filters="sRGB">
<feFlood flood-opacity="0" result="BackgroundImageFix"/>
<feBlend mode="normal" in="SourceGraphic" in2="BackgroundImageFix" result="shape"/>
<feColorMatrix in="SourceAlpha" type="matrix" values="0 0 0 0 0 0 0 0 0 0 0 0 0 0 0 0 0 0 127 0" result="hardAlpha"/>
<feOffset dx="-0.5" dy="0.5"/>
<feGaussianBlur stdDeviation="0.5"/>
<feComposite in2="hardAlpha" operator="arithmetic" k2="-1" k3="1"/>
<feColorMatrix type="matrix" values="0 0 0 0 0.866667 0 0 0 0 0.631373 0 0 0 0 0.776471 0 0 0 1 0"/>
<feBlend mode="normal" in2="shape" result="effect1_innerShadow_933_6069"/>
</filter>
<filter id="filter3_f_933_6069" x="10.1471" y="9.76013" width="5.59811" height="9.49414" filterUnits="userSpaceOnUse" color-interpolation-filters="sRGB">
<feFlood flood-opacity="0" result="BackgroundImageFix"/>
<feBlend mode="normal" in="SourceGraphic" in2="BackgroundImageFix" result="shape"/>
<feGaussianBlur stdDeviation="0.375" result="effect1_foregroundBlur_933_6069"/>
</filter>
<linearGradient id="paint0_linear_933_6069" x1="4.02947" y1="26.3386" x2="21.2786" y2="26.3386" gradientUnits="userSpaceOnUse">
<stop stop-color="#D4BDE5"/>
<stop offset="1" stop-color="#E5CAF2"/>
</linearGradient>
<linearGradient id="paint1_linear_933_6069" x1="13.0912" y1="28.4235" x2="13.0912" y2="26.8764" gradientUnits="userSpaceOnUse">
<stop stop-color="#D4A6F6"/>
<stop offset="1" stop-color="#D4A6F6" stop-opacity="0"/>
</linearGradient>
<radialGradient id="paint2_radial_933_6069" cx="0" cy="0" r="1" gradientUnits="userSpaceOnUse" gradientTransform="translate(10.5173 20.5376) rotate(104.908) scale(5.10176 7.7031)">
<stop offset="0.654" stop-color="#BE87BE"/>
<stop offset="1" stop-color="#BE87BE" stop-opacity="0"/>
</radialGradient>
<linearGradient id="paint3_linear_933_6069" x1="20.3724" y1="23.2353" x2="19.5903" y2="24.0794" gradientUnits="userSpaceOnUse">
<stop stop-color="#F3E5F1"/>
<stop offset="1" stop-color="#F3E5F1" stop-opacity="0"/>
</linearGradient>
<radialGradient id="paint4_radial_933_6069" cx="0" cy="0" r="1" gradientUnits="userSpaceOnUse" gradientTransform="translate(17.9633 7.69914) rotate(120.726) scale(18.1294)">
<stop stop-color="#FF4995"/>
<stop offset="1" stop-color="#FF435C"/>
</radialGradient>
<radialGradient id="paint5_radial_933_6069" cx="0" cy="0" r="1" gradientUnits="userSpaceOnUse" gradientTransform="translate(12.5174 15.0348) rotate(90) scale(7.84041)">
<stop offset="0.848" stop-color="#D2355C"/>
<stop offset="1" stop-color="#D2355C" stop-opacity="0"/>
</radialGradient>
<linearGradient id="paint6_linear_933_6069" x1="7.25997" y1="10.2641" x2="16.3357" y2="21.3417" gradientUnits="userSpaceOnUse">
<stop stop-color="#FFECFF"/>
<stop offset="1" stop-color="#DDC8E2"/>
</linearGradient>
<radialGradient id="paint7_radial_933_6069" cx="0" cy="0" r="1" gradientUnits="userSpaceOnUse" gradientTransform="translate(12.5173 8.76204) rotate(90) scale(13.7693)">
<stop offset="0.718" stop-color="#B89A9F" stop-opacity="0"/>
<stop offset="1" stop-color="#B89A9F"/>
</radialGradient>
<radialGradient id="paint8_radial_933_6069" cx="0" cy="0" r="1" gradientUnits="userSpaceOnUse" gradientTransform="translate(10.3894 13.2684) rotate(32.607) scale(10.1046 8.92214)">
<stop offset="0.887" stop-color="#B394A7" stop-opacity="0"/>
<stop offset="0.977" stop-color="#B394A7"/>
</radialGradient>
<linearGradient id="paint9_linear_933_6069" x1="12.9299" y1="10.4785" x2="12.9299" y2="18.4727" gradientUnits="userSpaceOnUse">
<stop stop-color="#C4AFCA"/>
<stop offset="1" stop-color="#CFA5CF"/>
</linearGradient>
<radialGradient id="paint10_radial_933_6069" cx="0" cy="0" r="1" gradientUnits="userSpaceOnUse" gradientTransform="translate(8.70002 3.06605) rotate(-169.408) scale(7.83171 8.81069)">
<stop stop-color="#FFDC56"/>
<stop offset="0.593" stop-color="#FFB02E"/>
<stop offset="1" stop-color="#BF8942"/>
</radialGradient>
<linearGradient id="paint11_linear_933_6069" x1="6.22756" y1="4.83153" x2="5.89709" y2="4.39792" gradientUnits="userSpaceOnUse">
<stop stop-color="#F88F6D"/>
<stop offset="1" stop-color="#F88F6D" stop-opacity="0"/>
</linearGradient>
<radialGradient id="paint12_radial_933_6069" cx="0" cy="0" r="1" gradientUnits="userSpaceOnUse" gradientTransform="translate(24.7225 3.06605) rotate(-173.953) scale(8.74837 15.1814)">
<stop stop-color="#FFFF63"/>
<stop offset="0.736" stop-color="#F1AE2C"/>
<stop offset="1" stop-color="#C48039"/>
</radialGradient>
<linearGradient id="paint13_linear_933_6069" x1="20.5286" y1="6.11633" x2="20.9322" y2="5.54853" gradientUnits="userSpaceOnUse">
<stop stop-color="#E76D2F"/>
<stop offset="1" stop-color="#E76D2F" stop-opacity="0"/>
</linearGradient>
<linearGradient id="paint14_linear_933_6069" x1="14.0816" y1="15.7949" x2="13.7441" y2="17.9079" gradientUnits="userSpaceOnUse">
<stop stop-color="#FF4F5C"/>
<stop offset="1" stop-color="#F0368B"/>
</linearGradient>
<linearGradient id="paint15_linear_933_6069" x1="12.0808" y1="12.5805" x2="13.9464" y2="12.5805" gradientUnits="userSpaceOnUse">
<stop stop-color="#3A234F"/>
<stop offset="1" stop-color="#3A323B"/>
</linearGradient>
<radialGradient id="paint16_radial_933_6069" cx="0" cy="0" r="1" gradientUnits="userSpaceOnUse" gradientTransform="translate(13.0251 10.4224) rotate(114.747) scale(1.21276 1.15637)">
<stop stop-color="#463C4B"/>
<stop offset="1" stop-color="#463C4B" stop-opacity="0"/>
</radialGradient>
</defs>
</svg>
