<svg width="40" height="28" viewBox="0 0 40 28" fill="none" xmlns="http://www.w3.org/2000/svg">
<g filter="url(#filter0_i_963_414)">
<path fill-rule="evenodd" clip-rule="evenodd" d="M12.2135 6.3947C13.2723 5.74445 14.6392 5.85471 15.5326 6.30282C16.2369 6.65505 17.0522 6.71308 17.7993 6.46415C18.5463 6.21522 19.1639 5.67972 19.5161 4.97545C19.8683 4.27119 19.9264 3.45584 19.6774 2.70879C19.4285 1.96174 18.893 1.34416 18.1887 0.991938C15.8987 -0.153075 12.294 -0.620975 9.1078 1.33403C4.74403 4.01279 4.36236 8.25217 4.36236 11.0299C4.36236 11.8172 4.67512 12.5723 5.23183 13.129C5.78854 13.6857 6.5436 13.9984 7.33091 13.9984C8.11822 13.9984 8.87328 13.6857 9.42999 13.129C9.98671 12.5723 10.2995 11.8172 10.2995 11.0299C10.2995 8.71583 10.6387 7.36019 12.2135 6.39329" fill="url(#paint0_radial_963_414)"/>
<path fill-rule="evenodd" clip-rule="evenodd" d="M12.2135 6.3947C13.2723 5.74445 14.6392 5.85471 15.5326 6.30282C16.2369 6.65505 17.0522 6.71308 17.7993 6.46415C18.5463 6.21522 19.1639 5.67972 19.5161 4.97545C19.8683 4.27119 19.9264 3.45584 19.6774 2.70879C19.4285 1.96174 18.893 1.34416 18.1887 0.991938C15.8987 -0.153075 12.294 -0.620975 9.1078 1.33403C4.74403 4.01279 4.36236 8.25217 4.36236 11.0299C4.36236 11.8172 4.67512 12.5723 5.23183 13.129C5.78854 13.6857 6.5436 13.9984 7.33091 13.9984C8.11822 13.9984 8.87328 13.6857 9.42999 13.129C9.98671 12.5723 10.2995 11.8172 10.2995 11.0299C10.2995 8.71583 10.6387 7.36019 12.2135 6.39329" fill="url(#paint1_radial_963_414)"/>
</g>
<g filter="url(#filter1_iii_963_414)">
<path d="M17.3222 8.48567L17.3024 8.46447C17.2134 8.37952 17.1179 8.30154 17.0169 8.23122C16.8018 8.08095 16.5692 7.95753 16.3242 7.86369C15.7607 7.64056 15.1381 7.61563 14.5586 7.79301C13.1804 8.20861 12.3888 9.3098 11.8799 10.9128C11.6537 12.1808 11.6749 14.6193 12.8355 15.7657C13.1747 16.1474 13.9154 16.628 14.864 17.2443C16.86 18.542 19.7762 20.439 21.8415 23.2535C23.3173 25.135 21.9758 27.1282 21.2435 27.5282C20.2257 28.0824 19.0835 28.2916 17.8975 27.3515C16.7129 26.4101 14.8159 25.0573 12.7577 25.4191C10.7009 25.781 9.88811 25.9153 8.68655 25.9153H2.54447C1.86964 25.9153 1.22244 25.6472 0.745259 25.1701C0.268078 24.6929 0 24.0457 0 23.3708V16.9927C0 14.2263 1.74014 10.7163 4.51927 9.75084C5.42114 9.43843 6.27637 8.85462 6.63966 7.97254C7.60373 5.64293 9.38628 3.15217 12.8439 2.10894C17.0607 0.835288 20.5297 3.08573 21.8528 4.64776C22.3493 5.24986 22.5888 6.02328 22.5193 6.80061C22.4498 7.57794 22.0771 8.29665 21.4817 8.80119C20.8862 9.30573 20.1161 9.5555 19.3379 9.49645C18.5597 9.4374 17.8361 9.07427 17.3236 8.48567" fill="#FFC34C"/>
<path d="M17.3222 8.48567L17.3024 8.46447C17.2134 8.37952 17.1179 8.30154 17.0169 8.23122C16.8018 8.08095 16.5692 7.95753 16.3242 7.86369C15.7607 7.64056 15.1381 7.61563 14.5586 7.79301C13.1804 8.20861 12.3888 9.3098 11.8799 10.9128C11.6537 12.1808 11.6749 14.6193 12.8355 15.7657C13.1747 16.1474 13.9154 16.628 14.864 17.2443C16.86 18.542 19.7762 20.439 21.8415 23.2535C23.3173 25.135 21.9758 27.1282 21.2435 27.5282C20.2257 28.0824 19.0835 28.2916 17.8975 27.3515C16.7129 26.4101 14.8159 25.0573 12.7577 25.4191C10.7009 25.781 9.88811 25.9153 8.68655 25.9153H2.54447C1.86964 25.9153 1.22244 25.6472 0.745259 25.1701C0.268078 24.6929 0 24.0457 0 23.3708V16.9927C0 14.2263 1.74014 10.7163 4.51927 9.75084C5.42114 9.43843 6.27637 8.85462 6.63966 7.97254C7.60373 5.64293 9.38628 3.15217 12.8439 2.10894C17.0607 0.835288 20.5297 3.08573 21.8528 4.64776C22.3493 5.24986 22.5888 6.02328 22.5193 6.80061C22.4498 7.57794 22.0771 8.29665 21.4817 8.80119C20.8862 9.30573 20.1161 9.5555 19.3379 9.49645C18.5597 9.4374 17.8361 9.07427 17.3236 8.48567" fill="url(#paint2_radial_963_414)"/>
<path d="M17.3222 8.48567L17.3024 8.46447C17.2134 8.37952 17.1179 8.30154 17.0169 8.23122C16.8018 8.08095 16.5692 7.95753 16.3242 7.86369C15.7607 7.64056 15.1381 7.61563 14.5586 7.79301C13.1804 8.20861 12.3888 9.3098 11.8799 10.9128C11.6537 12.1808 11.6749 14.6193 12.8355 15.7657C13.1747 16.1474 13.9154 16.628 14.864 17.2443C16.86 18.542 19.7762 20.439 21.8415 23.2535C23.3173 25.135 21.9758 27.1282 21.2435 27.5282C20.2257 28.0824 19.0835 28.2916 17.8975 27.3515C16.7129 26.4101 14.8159 25.0573 12.7577 25.4191C10.7009 25.781 9.88811 25.9153 8.68655 25.9153H2.54447C1.86964 25.9153 1.22244 25.6472 0.745259 25.1701C0.268078 24.6929 0 24.0457 0 23.3708V16.9927C0 14.2263 1.74014 10.7163 4.51927 9.75084C5.42114 9.43843 6.27637 8.85462 6.63966 7.97254C7.60373 5.64293 9.38628 3.15217 12.8439 2.10894C17.0607 0.835288 20.5297 3.08573 21.8528 4.64776C22.3493 5.24986 22.5888 6.02328 22.5193 6.80061C22.4498 7.57794 22.0771 8.29665 21.4817 8.80119C20.8862 9.30573 20.1161 9.5555 19.3379 9.49645C18.5597 9.4374 17.8361 9.07427 17.3236 8.48567" fill="url(#paint3_radial_963_414)"/>
<path d="M17.3222 8.48567L17.3024 8.46447C17.2134 8.37952 17.1179 8.30154 17.0169 8.23122C16.8018 8.08095 16.5692 7.95753 16.3242 7.86369C15.7607 7.64056 15.1381 7.61563 14.5586 7.79301C13.1804 8.20861 12.3888 9.3098 11.8799 10.9128C11.6537 12.1808 11.6749 14.6193 12.8355 15.7657C13.1747 16.1474 13.9154 16.628 14.864 17.2443C16.86 18.542 19.7762 20.439 21.8415 23.2535C23.3173 25.135 21.9758 27.1282 21.2435 27.5282C20.2257 28.0824 19.0835 28.2916 17.8975 27.3515C16.7129 26.4101 14.8159 25.0573 12.7577 25.4191C10.7009 25.781 9.88811 25.9153 8.68655 25.9153H2.54447C1.86964 25.9153 1.22244 25.6472 0.745259 25.1701C0.268078 24.6929 0 24.0457 0 23.3708V16.9927C0 14.2263 1.74014 10.7163 4.51927 9.75084C5.42114 9.43843 6.27637 8.85462 6.63966 7.97254C7.60373 5.64293 9.38628 3.15217 12.8439 2.10894C17.0607 0.835288 20.5297 3.08573 21.8528 4.64776C22.3493 5.24986 22.5888 6.02328 22.5193 6.80061C22.4498 7.57794 22.0771 8.29665 21.4817 8.80119C20.8862 9.30573 20.1161 9.5555 19.3379 9.49645C18.5597 9.4374 17.8361 9.07427 17.3236 8.48567" fill="url(#paint4_radial_963_414)"/>
</g>
<path fill-rule="evenodd" clip-rule="evenodd" d="M27.2033 6.3947C26.1445 5.74445 24.7775 5.85471 23.8827 6.30282C23.1785 6.65486 22.3632 6.71271 21.6163 6.46365C20.8693 6.21459 20.252 5.67901 19.8999 4.97475C19.5479 4.27048 19.49 3.45521 19.7391 2.70829C19.9881 1.96137 20.5237 1.34398 21.228 0.991938C23.518 -0.153075 27.1227 -0.620975 30.3089 1.33403C34.6727 4.01279 35.0544 8.25217 35.0544 11.0299C35.0544 11.8172 34.7416 12.5723 34.1849 13.129C33.6282 13.6857 32.8731 13.9984 32.0858 13.9984C31.2985 13.9984 30.5435 13.6857 29.9867 13.129C29.43 12.5723 29.1173 11.8172 29.1173 11.0299C29.1173 8.71583 28.778 7.36019 27.2033 6.39329" fill="#E8B12D"/>
<path fill-rule="evenodd" clip-rule="evenodd" d="M27.2033 6.3947C26.1445 5.74445 24.7775 5.85471 23.8827 6.30282C23.1785 6.65486 22.3632 6.71271 21.6163 6.46365C20.8693 6.21459 20.252 5.67901 19.8999 4.97475C19.5479 4.27048 19.49 3.45521 19.7391 2.70829C19.9881 1.96137 20.5237 1.34398 21.228 0.991938C23.518 -0.153075 27.1227 -0.620975 30.3089 1.33403C34.6727 4.01279 35.0544 8.25217 35.0544 11.0299C35.0544 11.8172 34.7416 12.5723 34.1849 13.129C33.6282 13.6857 32.8731 13.9984 32.0858 13.9984C31.2985 13.9984 30.5435 13.6857 29.9867 13.129C29.43 12.5723 29.1173 11.8172 29.1173 11.0299C29.1173 8.71583 28.778 7.36019 27.2033 6.39329" fill="url(#paint5_radial_963_414)"/>
<path fill-rule="evenodd" clip-rule="evenodd" d="M27.2033 6.3947C26.1445 5.74445 24.7775 5.85471 23.8827 6.30282C23.1785 6.65486 22.3632 6.71271 21.6163 6.46365C20.8693 6.21459 20.252 5.67901 19.8999 4.97475C19.5479 4.27048 19.49 3.45521 19.7391 2.70829C19.9881 1.96137 20.5237 1.34398 21.228 0.991938C23.518 -0.153075 27.1227 -0.620975 30.3089 1.33403C34.6727 4.01279 35.0544 8.25217 35.0544 11.0299C35.0544 11.8172 34.7416 12.5723 34.1849 13.129C33.6282 13.6857 32.8731 13.9984 32.0858 13.9984C31.2985 13.9984 30.5435 13.6857 29.9867 13.129C29.43 12.5723 29.1173 11.8172 29.1173 11.0299C29.1173 8.71583 28.778 7.36019 27.2033 6.39329" fill="url(#paint6_radial_963_414)"/>
<g filter="url(#filter2_iii_963_414)">
<path d="M22.0945 8.48567L22.1143 8.46447C22.2034 8.37957 22.2989 8.30159 22.3998 8.23122C22.5893 8.09834 22.8239 7.96688 23.0925 7.86369C23.6155 7.66578 24.2092 7.59511 24.8581 7.79301C26.2363 8.20861 27.0279 9.3098 27.5368 10.9128C27.763 12.1808 27.7418 14.6193 26.5812 15.7657C26.242 16.1474 25.4998 16.628 24.5513 17.2443C22.5582 18.542 19.6391 20.439 17.5752 23.2535C16.0994 25.135 17.4409 27.1282 18.1732 27.5282C19.1896 28.0824 20.3332 28.2916 21.5177 27.3515C22.7052 26.4101 24.6022 25.0573 26.659 25.4191C28.7158 25.781 29.5286 25.9153 30.7302 25.9153H36.8722C37.5471 25.9153 38.1943 25.6472 38.6714 25.1701C39.1486 24.6929 39.4167 24.0457 39.4167 23.3708V16.9927C39.4167 14.2263 37.678 10.7163 34.8974 9.75084C33.997 9.43843 33.1418 8.85462 32.777 7.97254C31.8144 5.64293 30.0318 3.15217 26.5742 2.10894C22.3574 0.835288 18.8885 3.08573 17.5653 4.64776C17.3072 4.94429 17.1105 5.28916 16.9867 5.66235C16.8629 6.03553 16.8144 6.42958 16.8442 6.82163C16.8739 7.21369 16.9813 7.59592 17.16 7.94615C17.3387 8.29638 17.5851 8.60762 17.8851 8.86181C18.1851 9.11599 18.5325 9.30805 18.9073 9.42684C19.2821 9.54564 19.6768 9.58879 20.0684 9.55379C20.4601 9.5188 20.8408 9.40636 21.1886 9.223C21.5364 9.03964 21.8443 8.78901 22.0945 8.48567Z" fill="#FFC34C"/>
</g>
<g filter="url(#filter3_f_963_414)">
<path d="M24.2206 3.45316C26.1643 3.39379 30.2637 4.64482 31.6419 10.1225" stroke="url(#paint7_linear_963_414)" stroke-width="2" stroke-linecap="round"/>
</g>
<g filter="url(#filter4_f_963_414)">
<path d="M33.7623 11.4922C34.896 12.0223 37.1649 13.8062 37.1649 16.7055V22.6681" stroke="url(#paint8_radial_963_414)" stroke-width="2" stroke-linecap="round"/>
</g>
<g filter="url(#filter5_f_963_414)">
<path d="M19.1853 25.1417C19.9204 23.9345 22.7094 21.3702 24.9726 19.7092" stroke="url(#paint9_linear_963_414)" stroke-width="2" stroke-linecap="round"/>
</g>
<g filter="url(#filter6_f_963_414)">
<path d="M9.26328 12.7727C9.11485 13.9064 9.39474 16.458 11.6918 17.5888C14.061 19.0901 16.0952 20.5927 16.8614 21.3872" stroke="url(#paint10_linear_963_414)" stroke-width="2" stroke-linecap="round"/>
</g>
<defs>
<filter id="filter0_i_963_414" x="4.36236" y="0" width="15.7173" height="13.9985" filterUnits="userSpaceOnUse" color-interpolation-filters="sRGB">
<feFlood flood-opacity="0" result="BackgroundImageFix"/>
<feBlend mode="normal" in="SourceGraphic" in2="BackgroundImageFix" result="shape"/>
<feColorMatrix in="SourceAlpha" type="matrix" values="0 0 0 0 0 0 0 0 0 0 0 0 0 0 0 0 0 0 127 0" result="hardAlpha"/>
<feOffset dx="0.25"/>
<feGaussianBlur stdDeviation="0.25"/>
<feComposite in2="hardAlpha" operator="arithmetic" k2="-1" k3="1"/>
<feColorMatrix type="matrix" values="0 0 0 0 0.882353 0 0 0 0 0.662745 0 0 0 0 0.345098 0 0 0 1 0"/>
<feBlend mode="normal" in2="shape" result="effect1_innerShadow_963_414"/>
</filter>
<filter id="filter1_iii_963_414" x="0" y="0.733643" width="23.0311" height="27.2666" filterUnits="userSpaceOnUse" color-interpolation-filters="sRGB">
<feFlood flood-opacity="0" result="BackgroundImageFix"/>
<feBlend mode="normal" in="SourceGraphic" in2="BackgroundImageFix" result="shape"/>
<feColorMatrix in="SourceAlpha" type="matrix" values="0 0 0 0 0 0 0 0 0 0 0 0 0 0 0 0 0 0 127 0" result="hardAlpha"/>
<feOffset dy="-1"/>
<feGaussianBlur stdDeviation="1"/>
<feComposite in2="hardAlpha" operator="arithmetic" k2="-1" k3="1"/>
<feColorMatrix type="matrix" values="0 0 0 0 0.980392 0 0 0 0 0.639216 0 0 0 0 0.34902 0 0 0 1 0"/>
<feBlend mode="normal" in2="shape" result="effect1_innerShadow_963_414"/>
<feColorMatrix in="SourceAlpha" type="matrix" values="0 0 0 0 0 0 0 0 0 0 0 0 0 0 0 0 0 0 127 0" result="hardAlpha"/>
<feOffset dx="0.5"/>
<feGaussianBlur stdDeviation="0.75"/>
<feComposite in2="hardAlpha" operator="arithmetic" k2="-1" k3="1"/>
<feColorMatrix type="matrix" values="0 0 0 0 0.878431 0 0 0 0 0.619608 0 0 0 0 0.2 0 0 0 1 0"/>
<feBlend mode="normal" in2="effect1_innerShadow_963_414" result="effect2_innerShadow_963_414"/>
<feColorMatrix in="SourceAlpha" type="matrix" values="0 0 0 0 0 0 0 0 0 0 0 0 0 0 0 0 0 0 127 0" result="hardAlpha"/>
<feOffset dy="-0.25"/>
<feGaussianBlur stdDeviation="0.375"/>
<feComposite in2="hardAlpha" operator="arithmetic" k2="-1" k3="1"/>
<feColorMatrix type="matrix" values="0 0 0 0 0.976471 0 0 0 0 0.521569 0 0 0 0 0.705882 0 0 0 1 0"/>
<feBlend mode="normal" in2="effect2_innerShadow_963_414" result="effect3_innerShadow_963_414"/>
</filter>
<filter id="filter2_iii_963_414" x="16.8357" y="0.733643" width="23.081" height="27.2666" filterUnits="userSpaceOnUse" color-interpolation-filters="sRGB">
<feFlood flood-opacity="0" result="BackgroundImageFix"/>
<feBlend mode="normal" in="SourceGraphic" in2="BackgroundImageFix" result="shape"/>
<feColorMatrix in="SourceAlpha" type="matrix" values="0 0 0 0 0 0 0 0 0 0 0 0 0 0 0 0 0 0 127 0" result="hardAlpha"/>
<feOffset dy="-1"/>
<feGaussianBlur stdDeviation="1"/>
<feComposite in2="hardAlpha" operator="arithmetic" k2="-1" k3="1"/>
<feColorMatrix type="matrix" values="0 0 0 0 0.980392 0 0 0 0 0.639216 0 0 0 0 0.34902 0 0 0 1 0"/>
<feBlend mode="normal" in2="shape" result="effect1_innerShadow_963_414"/>
<feColorMatrix in="SourceAlpha" type="matrix" values="0 0 0 0 0 0 0 0 0 0 0 0 0 0 0 0 0 0 127 0" result="hardAlpha"/>
<feOffset dx="0.5"/>
<feGaussianBlur stdDeviation="0.75"/>
<feComposite in2="hardAlpha" operator="arithmetic" k2="-1" k3="1"/>
<feColorMatrix type="matrix" values="0 0 0 0 0.878431 0 0 0 0 0.619608 0 0 0 0 0.2 0 0 0 1 0"/>
<feBlend mode="normal" in2="effect1_innerShadow_963_414" result="effect2_innerShadow_963_414"/>
<feColorMatrix in="SourceAlpha" type="matrix" values="0 0 0 0 0 0 0 0 0 0 0 0 0 0 0 0 0 0 127 0" result="hardAlpha"/>
<feOffset dy="-0.25"/>
<feGaussianBlur stdDeviation="0.375"/>
<feComposite in2="hardAlpha" operator="arithmetic" k2="-1" k3="1"/>
<feColorMatrix type="matrix" values="0 0 0 0 0.976471 0 0 0 0 0.521569 0 0 0 0 0.705882 0 0 0 1 0"/>
<feBlend mode="normal" in2="effect2_innerShadow_963_414" result="effect3_innerShadow_963_414"/>
</filter>
<filter id="filter3_f_963_414" x="22.2206" y="1.45117" width="11.4216" height="10.6716" filterUnits="userSpaceOnUse" color-interpolation-filters="sRGB">
<feFlood flood-opacity="0" result="BackgroundImageFix"/>
<feBlend mode="normal" in="SourceGraphic" in2="BackgroundImageFix" result="shape"/>
<feGaussianBlur stdDeviation="0.5" result="effect1_foregroundBlur_963_414"/>
</filter>
<filter id="filter4_f_963_414" x="31.7621" y="9.49194" width="7.40276" height="15.176" filterUnits="userSpaceOnUse" color-interpolation-filters="sRGB">
<feFlood flood-opacity="0" result="BackgroundImageFix"/>
<feBlend mode="normal" in="SourceGraphic" in2="BackgroundImageFix" result="shape"/>
<feGaussianBlur stdDeviation="0.5" result="effect1_foregroundBlur_963_414"/>
</filter>
<filter id="filter5_f_963_414" x="17.1852" y="17.7092" width="9.78748" height="9.43262" filterUnits="userSpaceOnUse" color-interpolation-filters="sRGB">
<feFlood flood-opacity="0" result="BackgroundImageFix"/>
<feBlend mode="normal" in="SourceGraphic" in2="BackgroundImageFix" result="shape"/>
<feGaussianBlur stdDeviation="0.5" result="effect1_foregroundBlur_963_414"/>
</filter>
<filter id="filter6_f_963_414" x="7.23051" y="10.7727" width="11.6308" height="12.6145" filterUnits="userSpaceOnUse" color-interpolation-filters="sRGB">
<feFlood flood-opacity="0" result="BackgroundImageFix"/>
<feBlend mode="normal" in="SourceGraphic" in2="BackgroundImageFix" result="shape"/>
<feGaussianBlur stdDeviation="0.5" result="effect1_foregroundBlur_963_414"/>
</filter>
<radialGradient id="paint0_radial_963_414" cx="0" cy="0" r="1" gradientUnits="userSpaceOnUse" gradientTransform="translate(18.4785 1.99418) rotate(142.891) scale(14.7899 16.3419)">
<stop stop-color="#FCD038"/>
<stop offset="1" stop-color="#FDB046"/>
</radialGradient>
<radialGradient id="paint1_radial_963_414" cx="0" cy="0" r="1" gradientUnits="userSpaceOnUse" gradientTransform="translate(10.8367 7.25136) rotate(123.476) scale(6.56707 4.83164)">
<stop offset="0.497" stop-color="#EFA128"/>
<stop offset="1" stop-color="#EFA128" stop-opacity="0"/>
</radialGradient>
<radialGradient id="paint2_radial_963_414" cx="0" cy="0" r="1" gradientUnits="userSpaceOnUse" gradientTransform="translate(18.169 28.0004) rotate(-161.777) scale(10.9757 7.92807)">
<stop offset="0.183" stop-color="#FD985B"/>
<stop offset="1" stop-color="#FD985B" stop-opacity="0"/>
</radialGradient>
<radialGradient id="paint3_radial_963_414" cx="0" cy="0" r="1" gradientUnits="userSpaceOnUse" gradientTransform="translate(20.6867 21.5209) rotate(-128.919) scale(9.14122 3.61093)">
<stop stop-color="#D49637"/>
<stop offset="1" stop-color="#D49637" stop-opacity="0"/>
</radialGradient>
<radialGradient id="paint4_radial_963_414" cx="0" cy="0" r="1" gradientUnits="userSpaceOnUse" gradientTransform="translate(17.9911 8.22398) rotate(132.013) scale(7.19413 5.49014)">
<stop offset="0.365" stop-color="#ED8C50"/>
<stop offset="1" stop-color="#ED8C50" stop-opacity="0"/>
</radialGradient>
<radialGradient id="paint5_radial_963_414" cx="0" cy="0" r="1" gradientUnits="userSpaceOnUse" gradientTransform="translate(35.3979 9.41556) rotate(-136.324) scale(20.2778 6.28603)">
<stop offset="0.143" stop-color="#FFEB63"/>
<stop offset="1" stop-color="#FFEB63" stop-opacity="0"/>
</radialGradient>
<radialGradient id="paint6_radial_963_414" cx="0" cy="0" r="1" gradientUnits="userSpaceOnUse" gradientTransform="translate(29.5216 5.79393) rotate(51.8428) scale(6.29209 2.79997)">
<stop offset="0.346" stop-color="#FEC731"/>
<stop offset="1" stop-color="#FEC731" stop-opacity="0"/>
</radialGradient>
<linearGradient id="paint7_linear_963_414" x1="31.6419" y1="10.1225" x2="19.0525" y2="1.72998" gradientUnits="userSpaceOnUse">
<stop stop-color="#FFE660"/>
<stop offset="1" stop-color="#FFE660" stop-opacity="0"/>
</linearGradient>
<radialGradient id="paint8_radial_963_414" cx="0" cy="0" r="1" gradientUnits="userSpaceOnUse" gradientTransform="translate(40.9194 13.3482) rotate(144.039) scale(11.1335 8.18115)">
<stop offset="0.325" stop-color="#FFE660"/>
<stop offset="1" stop-color="#FFE660" stop-opacity="0"/>
</radialGradient>
<linearGradient id="paint9_linear_963_414" x1="19.8031" y1="25.5841" x2="24.8821" y2="18.3564" gradientUnits="userSpaceOnUse">
<stop stop-color="#FFC452"/>
<stop offset="1" stop-color="#FFC452" stop-opacity="0"/>
</linearGradient>
<linearGradient id="paint10_linear_963_414" x1="13.8405" y1="13.7014" x2="11.1957" y2="20.4019" gradientUnits="userSpaceOnUse">
<stop stop-color="#FFD454"/>
<stop offset="1" stop-color="#FFE660" stop-opacity="0"/>
</linearGradient>
</defs>
</svg>
