<svg width="28" height="28" viewBox="0 0 28 28" fill="none" xmlns="http://www.w3.org/2000/svg">
<g filter="url(#filter0_i_933_6460)">
<path d="M6.62854 9.14375V7.39526H1.52158C1.45645 7.39526 1.39398 7.42114 1.34793 7.46719C1.30187 7.51324 1.276 7.57571 1.276 7.64084V7.67031C1.276 8.06109 1.43124 8.43587 1.70756 8.71219C1.98389 8.98852 2.35867 9.14375 2.74945 9.14375H6.62854Z" fill="#CBC8C7"/>
</g>
<g filter="url(#filter1_i_933_6460)">
<path d="M6.62857 10.8736V9.1438H2.87619C2.74063 9.1438 2.63062 9.25185 2.63062 9.38643V9.4159C2.63062 10.2214 3.29072 10.8736 4.10406 10.8736H6.62857Z" fill="#BDBFBD"/>
</g>
<g filter="url(#filter2_i_933_6460)">
<path d="M0.245574 5.66547C0.180444 5.66547 0.117981 5.69134 0.0719271 5.73739C0.025873 5.78345 0 5.84591 0 5.91104V5.94051C0 6.33129 0.155238 6.70607 0.431563 6.98239C0.707887 7.25872 1.08266 7.41396 1.47345 7.41396H5.69733C5.91343 7.41396 6.09025 7.59077 6.09025 7.80688V10.3825C6.09025 10.5127 6.14199 10.6376 6.2341 10.7298C6.32621 10.8219 6.45113 10.8736 6.5814 10.8736H8.6285C9.31915 10.8736 9.9815 10.5993 10.4699 10.1109C10.9582 9.62254 11.2326 8.96018 11.2326 8.26954C11.2326 7.5789 10.9582 6.91654 10.4699 6.42818C9.9815 5.93982 9.31915 5.66547 8.6285 5.66547H0.245574Z" fill="#D6D2D1"/>
<path d="M0.245574 5.66547C0.180444 5.66547 0.117981 5.69134 0.0719271 5.73739C0.025873 5.78345 0 5.84591 0 5.91104V5.94051C0 6.33129 0.155238 6.70607 0.431563 6.98239C0.707887 7.25872 1.08266 7.41396 1.47345 7.41396H5.69733C5.91343 7.41396 6.09025 7.59077 6.09025 7.80688V10.3825C6.09025 10.5127 6.14199 10.6376 6.2341 10.7298C6.32621 10.8219 6.45113 10.8736 6.5814 10.8736H8.6285C9.31915 10.8736 9.9815 10.5993 10.4699 10.1109C10.9582 9.62254 11.2326 8.96018 11.2326 8.26954C11.2326 7.5789 10.9582 6.91654 10.4699 6.42818C9.9815 5.93982 9.31915 5.66547 8.6285 5.66547H0.245574Z" fill="url(#paint0_radial_933_6460)"/>
</g>
<path d="M15.7433 3.45248L3.88662 15.3091C3.04267 16.1531 3.04267 17.5214 3.88662 18.3653L10.6221 25.1007C11.466 25.9447 12.8343 25.9447 13.6782 25.1007L25.5349 13.2441C26.3788 12.4002 26.3788 11.0319 25.5349 10.1879L18.7995 3.45248C17.9555 2.60853 16.5872 2.60854 15.7433 3.45248Z" fill="url(#paint1_linear_933_6460)"/>
<path d="M15.7433 3.45248L3.88662 15.3091C3.04267 16.1531 3.04267 17.5214 3.88662 18.3653L10.6221 25.1007C11.466 25.9447 12.8343 25.9447 13.6782 25.1007L25.5349 13.2441C26.3788 12.4002 26.3788 11.0319 25.5349 10.1879L18.7995 3.45248C17.9555 2.60853 16.5872 2.60854 15.7433 3.45248Z" fill="url(#paint2_linear_933_6460)"/>
<path d="M15.7433 3.45248L3.88662 15.3091C3.04267 16.1531 3.04267 17.5214 3.88662 18.3653L10.6221 25.1007C11.466 25.9447 12.8343 25.9447 13.6782 25.1007L25.5349 13.2441C26.3788 12.4002 26.3788 11.0319 25.5349 10.1879L18.7995 3.45248C17.9555 2.60853 16.5872 2.60854 15.7433 3.45248Z" fill="url(#paint3_linear_933_6460)"/>
<path d="M15.7433 3.45248L3.88662 15.3091C3.04267 16.1531 3.04267 17.5214 3.88662 18.3653L10.6221 25.1007C11.466 25.9447 12.8343 25.9447 13.6782 25.1007L25.5349 13.2441C26.3788 12.4002 26.3788 11.0319 25.5349 10.1879L18.7995 3.45248C17.9555 2.60853 16.5872 2.60854 15.7433 3.45248Z" fill="url(#paint4_radial_933_6460)"/>
<path d="M15.7433 3.45248L3.88662 15.3091C3.04267 16.1531 3.04267 17.5214 3.88662 18.3653L10.6221 25.1007C11.466 25.9447 12.8343 25.9447 13.6782 25.1007L25.5349 13.2441C26.3788 12.4002 26.3788 11.0319 25.5349 10.1879L18.7995 3.45248C17.9555 2.60853 16.5872 2.60854 15.7433 3.45248Z" fill="url(#paint5_radial_933_6460)"/>
<path d="M13.818 1.52816L1.96132 13.3848C1.11738 14.2288 1.11738 15.5971 1.96132 16.441L8.69676 23.1764C9.5407 24.0204 10.909 24.0204 11.753 23.1764L23.6096 11.3198C24.4535 10.4758 24.4535 9.10754 23.6096 8.2636L16.8742 1.52816C16.0302 0.684218 14.6619 0.684219 13.818 1.52816Z" fill="url(#paint6_radial_933_6460)"/>
<g filter="url(#filter3_iii_933_6460)">
<path fill-rule="evenodd" clip-rule="evenodd" d="M14.9535 2.66853L3.10207 14.519C3.04926 14.5717 3.00737 14.6343 2.97879 14.7033C2.9502 14.7722 2.93549 14.8461 2.93549 14.9207C2.93549 14.9954 2.9502 15.0693 2.97879 15.1382C3.00737 15.2071 3.04926 15.2698 3.10207 15.3225L9.81411 22.0345C9.92057 22.1409 10.0649 22.2006 10.2154 22.2006C10.3659 22.2006 10.5102 22.1409 10.6166 22.0345L22.4671 10.1841C22.5199 10.1314 22.5618 10.0687 22.5904 9.9998C22.619 9.93086 22.6337 9.85696 22.6337 9.78233C22.6337 9.7077 22.619 9.63381 22.5904 9.56487C22.5618 9.49593 22.5199 9.4333 22.4671 9.38057L15.755 2.66853C15.7023 2.61572 15.6397 2.57383 15.5708 2.54524C15.5018 2.51666 15.4279 2.50195 15.3533 2.50195C15.2787 2.50195 15.2048 2.51666 15.1358 2.54524C15.0669 2.57383 15.0043 2.61572 14.9515 2.66853M2.70031 14.1172C2.48725 14.3303 2.36755 14.6194 2.36755 14.9207C2.36755 15.2221 2.48725 15.5111 2.70031 15.7243L9.41235 22.4363C9.62544 22.6491 9.91426 22.7686 10.2154 22.7686C10.5165 22.7686 10.8053 22.6491 11.0184 22.4363L22.8689 10.5859C23.0819 10.3727 23.2016 10.0837 23.2016 9.78233C23.2016 9.48097 23.0819 9.19194 22.8689 8.97881L16.1568 2.26775C15.9437 2.05499 15.6549 1.93549 15.3538 1.93549C15.0527 1.93549 14.7638 2.05499 14.5508 2.26775L2.70031 14.1172Z" fill="url(#paint7_linear_933_6460)"/>
</g>
<path d="M17.6637 12.0416C19.0317 10.6736 19.1178 8.54185 17.8561 7.28016C16.5944 6.01846 14.4627 6.1046 13.0947 7.47256C11.7267 8.84051 11.6406 10.9723 12.9023 12.234C14.164 13.4957 16.2958 13.4095 17.6637 12.0416Z" fill="#289D5B"/>
<path d="M17.6637 12.0416C19.0317 10.6736 19.1178 8.54185 17.8561 7.28016C16.5944 6.01846 14.4627 6.1046 13.0947 7.47256C11.7267 8.84051 11.6406 10.9723 12.9023 12.234C14.164 13.4957 16.2958 13.4095 17.6637 12.0416Z" fill="url(#paint8_linear_933_6460)"/>
<path d="M17.6637 12.0416C19.0317 10.6736 19.1178 8.54185 17.8561 7.28016C16.5944 6.01846 14.4627 6.1046 13.0947 7.47256C11.7267 8.84051 11.6406 10.9723 12.9023 12.234C14.164 13.4957 16.2958 13.4095 17.6637 12.0416Z" fill="url(#paint9_radial_933_6460)"/>
<g filter="url(#filter4_f_933_6460)">
<path d="M7.57837 8.24994L9.80524 6.02307L19.3551 15.573L17.0448 17.8833L7.57837 8.24994Z" fill="#127531"/>
</g>
<g filter="url(#filter5_f_933_6460)">
<path d="M18.9614 19.6161L21.1794 17.3981L19.3553 15.574L17.0449 17.8824L18.9614 19.6161Z" fill="#0B3F2E"/>
</g>
<path d="M7.38782 7.95813L9.73136 5.61459L21.4477 17.3309L19.1042 19.6745L7.38782 7.95813Z" fill="url(#paint10_linear_933_6460)"/>
<path d="M7.38782 7.95813L9.73136 5.61459L21.4477 17.3309L19.1042 19.6745L7.38782 7.95813Z" fill="url(#paint11_linear_933_6460)"/>
<g filter="url(#filter6_dii_933_6460)">
<path d="M7.11376 14.1358C7.03179 14.0477 6.98723 13.9312 6.98946 13.8108C6.99169 13.6905 7.04054 13.5757 7.12571 13.4906C7.21089 13.4056 7.32575 13.3569 7.44609 13.3549C7.56644 13.3528 7.68289 13.3975 7.77091 13.4796L8.1324 13.8411C8.80036 13.4354 9.48011 13.6005 9.87107 13.9187C10.094 14.0995 10.1206 14.347 9.96242 14.5425C9.88631 14.636 9.77621 14.6954 9.6563 14.7077C9.5364 14.7201 9.4165 14.6843 9.32295 14.6083C9.19525 14.5042 8.79742 14.2301 8.3043 14.7242C7.59705 15.4315 8.51353 16.3814 9.33375 15.5611C9.68443 15.2095 10.2601 15.0405 10.6618 15.1073C11.0803 15.1751 11.4044 15.3853 11.6343 15.6918C11.983 16.2448 11.9368 16.8263 11.6215 17.3303L11.9693 17.678C12.0514 17.766 12.0961 17.8825 12.094 18.0028C12.092 18.1232 12.0433 18.238 11.9583 18.3232C11.8732 18.4084 11.7584 18.4572 11.6381 18.4594C11.5177 18.4617 11.4012 18.4171 11.3131 18.3351L10.9722 17.9943C10.4153 18.3548 9.76105 18.3518 9.20114 17.9108C9.00468 17.7546 8.95557 17.4845 9.11077 17.288C9.26597 17.0916 9.5528 17.0572 9.74926 17.2124C9.84749 17.29 10.0056 17.3794 10.1775 17.3971C10.3239 17.4138 10.5066 17.3754 10.7306 17.1515C11.0105 16.8715 11.0557 16.621 11.0115 16.4354C10.9153 15.904 10.2718 15.7694 9.8917 16.1486C9.36322 16.6358 8.98503 16.7566 8.56166 16.7379C8.20876 16.7226 7.87396 16.5774 7.62161 16.3303C7.39451 16.1002 7.251 15.8007 7.21395 15.4796C7.18135 15.1298 7.27015 14.7795 7.46542 14.4875L7.11376 14.1358Z" fill="url(#paint12_linear_933_6460)"/>
</g>
<g filter="url(#filter7_ii_933_6460)">
<path d="M18.4897 21.3715H20.2392V26.4794C20.2392 26.5445 20.2133 26.607 20.1673 26.6531C20.1212 26.6991 20.0588 26.725 19.9936 26.725H19.9642C19.5734 26.725 19.1986 26.5697 18.9223 26.2934C18.646 26.0171 18.4907 25.6423 18.4907 25.2515L18.4897 21.3715Z" fill="#C8C2C3"/>
</g>
<g filter="url(#filter8_ii_933_6460)">
<path d="M16.7412 21.3715H18.4897V25.1238C18.4897 25.189 18.4638 25.2514 18.4178 25.2975C18.3717 25.3435 18.3093 25.3694 18.2441 25.3694H18.2147C17.8239 25.3694 17.4491 25.2142 17.1728 24.9379C16.8964 24.6615 16.7412 24.2867 16.7412 23.896V21.3715Z" fill="#C8C2C3"/>
</g>
<g filter="url(#filter9_ii_933_6460)">
<path d="M19.3551 16.7684C18.6633 16.7671 17.9994 17.0406 17.5092 17.5287C17.019 18.0169 16.7428 18.6797 16.7412 19.3715V21.4196C16.7412 21.4842 16.754 21.5482 16.7788 21.608C16.8036 21.6677 16.8399 21.7219 16.8858 21.7675C16.9316 21.8132 16.986 21.8493 17.0458 21.8739C17.1056 21.8985 17.1697 21.911 17.2343 21.9107H19.8178C19.8695 21.9104 19.9208 21.9204 19.9687 21.94C20.0166 21.9597 20.0602 21.9886 20.0969 22.0251C20.1336 22.0616 20.1627 22.105 20.1826 22.1528C20.2024 22.2006 20.2127 22.2519 20.2127 22.3036V26.5265C20.2127 27.3399 20.8747 28 21.692 28H21.7215C21.7539 28.0002 21.786 27.9941 21.816 27.9818C21.8461 27.9696 21.8734 27.9516 21.8964 27.9287C21.9194 27.9059 21.9377 27.8788 21.9501 27.8488C21.9626 27.8189 21.969 27.7868 21.969 27.7544V19.3724C21.9684 19.0298 21.9002 18.6907 21.7685 18.3744C21.6368 18.0581 21.4441 17.7709 21.2014 17.5291C20.9587 17.2872 20.6707 17.0956 20.3539 16.9651C20.0371 16.8346 19.6977 16.7677 19.3551 16.7684Z" fill="#DBD7D7"/>
</g>
<defs>
<filter id="filter0_i_933_6460" x="0.526001" y="7.14526" width="6.10254" height="1.99847" filterUnits="userSpaceOnUse" color-interpolation-filters="sRGB">
<feFlood flood-opacity="0" result="BackgroundImageFix"/>
<feBlend mode="normal" in="SourceGraphic" in2="BackgroundImageFix" result="shape"/>
<feColorMatrix in="SourceAlpha" type="matrix" values="0 0 0 0 0 0 0 0 0 0 0 0 0 0 0 0 0 0 127 0" result="hardAlpha"/>
<feOffset dx="-0.75" dy="-0.25"/>
<feGaussianBlur stdDeviation="0.5"/>
<feComposite in2="hardAlpha" operator="arithmetic" k2="-1" k3="1"/>
<feColorMatrix type="matrix" values="0 0 0 0 0.647059 0 0 0 0 0.623529 0 0 0 0 0.623529 0 0 0 1 0"/>
<feBlend mode="normal" in2="shape" result="effect1_innerShadow_933_6460"/>
</filter>
<filter id="filter1_i_933_6460" x="1.88062" y="8.8938" width="4.74792" height="1.9798" filterUnits="userSpaceOnUse" color-interpolation-filters="sRGB">
<feFlood flood-opacity="0" result="BackgroundImageFix"/>
<feBlend mode="normal" in="SourceGraphic" in2="BackgroundImageFix" result="shape"/>
<feColorMatrix in="SourceAlpha" type="matrix" values="0 0 0 0 0 0 0 0 0 0 0 0 0 0 0 0 0 0 127 0" result="hardAlpha"/>
<feOffset dx="-0.75" dy="-0.25"/>
<feGaussianBlur stdDeviation="0.375"/>
<feComposite in2="hardAlpha" operator="arithmetic" k2="-1" k3="1"/>
<feColorMatrix type="matrix" values="0 0 0 0 0.580392 0 0 0 0 0.611765 0 0 0 0 0.584314 0 0 0 1 0"/>
<feBlend mode="normal" in2="shape" result="effect1_innerShadow_933_6460"/>
</filter>
<filter id="filter2_i_933_6460" x="0" y="5.41547" width="11.2325" height="5.45813" filterUnits="userSpaceOnUse" color-interpolation-filters="sRGB">
<feFlood flood-opacity="0" result="BackgroundImageFix"/>
<feBlend mode="normal" in="SourceGraphic" in2="BackgroundImageFix" result="shape"/>
<feColorMatrix in="SourceAlpha" type="matrix" values="0 0 0 0 0 0 0 0 0 0 0 0 0 0 0 0 0 0 127 0" result="hardAlpha"/>
<feOffset dy="-0.25"/>
<feGaussianBlur stdDeviation="0.375"/>
<feComposite in2="hardAlpha" operator="arithmetic" k2="-1" k3="1"/>
<feColorMatrix type="matrix" values="0 0 0 0 0.658824 0 0 0 0 0.623529 0 0 0 0 0.627451 0 0 0 1 0"/>
<feBlend mode="normal" in2="shape" result="effect1_innerShadow_933_6460"/>
</filter>
<filter id="filter3_iii_933_6460" x="2.16755" y="1.93549" width="21.2341" height="21.0331" filterUnits="userSpaceOnUse" color-interpolation-filters="sRGB">
<feFlood flood-opacity="0" result="BackgroundImageFix"/>
<feBlend mode="normal" in="SourceGraphic" in2="BackgroundImageFix" result="shape"/>
<feColorMatrix in="SourceAlpha" type="matrix" values="0 0 0 0 0 0 0 0 0 0 0 0 0 0 0 0 0 0 127 0" result="hardAlpha"/>
<feOffset dy="0.2"/>
<feGaussianBlur stdDeviation="0.125"/>
<feComposite in2="hardAlpha" operator="arithmetic" k2="-1" k3="1"/>
<feColorMatrix type="matrix" values="0 0 0 0 0.0941176 0 0 0 0 0.509804 0 0 0 0 0.254902 0 0 0 1 0"/>
<feBlend mode="normal" in2="shape" result="effect1_innerShadow_933_6460"/>
<feColorMatrix in="SourceAlpha" type="matrix" values="0 0 0 0 0 0 0 0 0 0 0 0 0 0 0 0 0 0 127 0" result="hardAlpha"/>
<feOffset dx="-0.2"/>
<feGaussianBlur stdDeviation="0.125"/>
<feComposite in2="hardAlpha" operator="arithmetic" k2="-1" k3="1"/>
<feColorMatrix type="matrix" values="0 0 0 0 0.0941176 0 0 0 0 0.509804 0 0 0 0 0.254902 0 0 0 1 0"/>
<feBlend mode="normal" in2="effect1_innerShadow_933_6460" result="effect2_innerShadow_933_6460"/>
<feColorMatrix in="SourceAlpha" type="matrix" values="0 0 0 0 0 0 0 0 0 0 0 0 0 0 0 0 0 0 127 0" result="hardAlpha"/>
<feOffset dx="0.2"/>
<feGaussianBlur stdDeviation="0.125"/>
<feComposite in2="hardAlpha" operator="arithmetic" k2="-1" k3="1"/>
<feColorMatrix type="matrix" values="0 0 0 0 0.172549 0 0 0 0 0.709804 0 0 0 0 0.4 0 0 0 1 0"/>
<feBlend mode="normal" in2="effect2_innerShadow_933_6460" result="effect3_innerShadow_933_6460"/>
</filter>
<filter id="filter4_f_933_6460" x="7.17837" y="5.62307" width="12.5767" height="12.6603" filterUnits="userSpaceOnUse" color-interpolation-filters="sRGB">
<feFlood flood-opacity="0" result="BackgroundImageFix"/>
<feBlend mode="normal" in="SourceGraphic" in2="BackgroundImageFix" result="shape"/>
<feGaussianBlur stdDeviation="0.2" result="effect1_foregroundBlur_933_6460"/>
</filter>
<filter id="filter5_f_933_6460" x="16.7949" y="15.324" width="4.63452" height="4.54218" filterUnits="userSpaceOnUse" color-interpolation-filters="sRGB">
<feFlood flood-opacity="0" result="BackgroundImageFix"/>
<feBlend mode="normal" in="SourceGraphic" in2="BackgroundImageFix" result="shape"/>
<feGaussianBlur stdDeviation="0.125" result="effect1_foregroundBlur_933_6460"/>
</filter>
<filter id="filter6_dii_933_6460" x="6.73938" y="13.2548" width="5.45474" height="5.45474" filterUnits="userSpaceOnUse" color-interpolation-filters="sRGB">
<feFlood flood-opacity="0" result="BackgroundImageFix"/>
<feColorMatrix in="SourceAlpha" type="matrix" values="0 0 0 0 0 0 0 0 0 0 0 0 0 0 0 0 0 0 127 0" result="hardAlpha"/>
<feOffset dx="-0.1" dy="0.1"/>
<feGaussianBlur stdDeviation="0.075"/>
<feComposite in2="hardAlpha" operator="out"/>
<feColorMatrix type="matrix" values="0 0 0 0 0.0901961 0 0 0 0 0.521569 0 0 0 0 0.223529 0 0 0 1 0"/>
<feBlend mode="normal" in2="BackgroundImageFix" result="effect1_dropShadow_933_6460"/>
<feBlend mode="normal" in="SourceGraphic" in2="effect1_dropShadow_933_6460" result="shape"/>
<feColorMatrix in="SourceAlpha" type="matrix" values="0 0 0 0 0 0 0 0 0 0 0 0 0 0 0 0 0 0 127 0" result="hardAlpha"/>
<feOffset dx="0.1" dy="-0.1"/>
<feGaussianBlur stdDeviation="0.05"/>
<feComposite in2="hardAlpha" operator="arithmetic" k2="-1" k3="1"/>
<feColorMatrix type="matrix" values="0 0 0 0 0.784314 0 0 0 0 0.760784 0 0 0 0 0.752941 0 0 0 1 0"/>
<feBlend mode="normal" in2="shape" result="effect2_innerShadow_933_6460"/>
<feColorMatrix in="SourceAlpha" type="matrix" values="0 0 0 0 0 0 0 0 0 0 0 0 0 0 0 0 0 0 127 0" result="hardAlpha"/>
<feOffset dx="-0.1" dy="0.1"/>
<feGaussianBlur stdDeviation="0.05"/>
<feComposite in2="hardAlpha" operator="arithmetic" k2="-1" k3="1"/>
<feColorMatrix type="matrix" values="0 0 0 0 1 0 0 0 0 0.996078 0 0 0 0 0.992157 0 0 0 1 0"/>
<feBlend mode="normal" in2="effect2_innerShadow_933_6460" result="effect3_innerShadow_933_6460"/>
</filter>
<filter id="filter7_ii_933_6460" x="18.1897" y="21.0715" width="2.34951" height="5.65352" filterUnits="userSpaceOnUse" color-interpolation-filters="sRGB">
<feFlood flood-opacity="0" result="BackgroundImageFix"/>
<feBlend mode="normal" in="SourceGraphic" in2="BackgroundImageFix" result="shape"/>
<feColorMatrix in="SourceAlpha" type="matrix" values="0 0 0 0 0 0 0 0 0 0 0 0 0 0 0 0 0 0 127 0" result="hardAlpha"/>
<feOffset dx="0.3" dy="-0.3"/>
<feGaussianBlur stdDeviation="0.375"/>
<feComposite in2="hardAlpha" operator="arithmetic" k2="-1" k3="1"/>
<feColorMatrix type="matrix" values="0 0 0 0 0.658824 0 0 0 0 0.631373 0 0 0 0 0.635294 0 0 0 1 0"/>
<feBlend mode="normal" in2="shape" result="effect1_innerShadow_933_6460"/>
<feColorMatrix in="SourceAlpha" type="matrix" values="0 0 0 0 0 0 0 0 0 0 0 0 0 0 0 0 0 0 127 0" result="hardAlpha"/>
<feOffset dx="-0.3" dy="-0.3"/>
<feGaussianBlur stdDeviation="0.375"/>
<feComposite in2="hardAlpha" operator="arithmetic" k2="-1" k3="1"/>
<feColorMatrix type="matrix" values="0 0 0 0 0.721569 0 0 0 0 0.682353 0 0 0 0 0.690196 0 0 0 1 0"/>
<feBlend mode="normal" in2="effect1_innerShadow_933_6460" result="effect2_innerShadow_933_6460"/>
</filter>
<filter id="filter8_ii_933_6460" x="16.4412" y="21.0715" width="2.34854" height="4.29792" filterUnits="userSpaceOnUse" color-interpolation-filters="sRGB">
<feFlood flood-opacity="0" result="BackgroundImageFix"/>
<feBlend mode="normal" in="SourceGraphic" in2="BackgroundImageFix" result="shape"/>
<feColorMatrix in="SourceAlpha" type="matrix" values="0 0 0 0 0 0 0 0 0 0 0 0 0 0 0 0 0 0 127 0" result="hardAlpha"/>
<feOffset dx="0.3" dy="-0.3"/>
<feGaussianBlur stdDeviation="0.375"/>
<feComposite in2="hardAlpha" operator="arithmetic" k2="-1" k3="1"/>
<feColorMatrix type="matrix" values="0 0 0 0 0.611765 0 0 0 0 0.603922 0 0 0 0 0.596078 0 0 0 1 0"/>
<feBlend mode="normal" in2="shape" result="effect1_innerShadow_933_6460"/>
<feColorMatrix in="SourceAlpha" type="matrix" values="0 0 0 0 0 0 0 0 0 0 0 0 0 0 0 0 0 0 127 0" result="hardAlpha"/>
<feOffset dx="-0.3" dy="-0.3"/>
<feGaussianBlur stdDeviation="0.375"/>
<feComposite in2="hardAlpha" operator="arithmetic" k2="-1" k3="1"/>
<feColorMatrix type="matrix" values="0 0 0 0 0.635294 0 0 0 0 0.611765 0 0 0 0 0.607843 0 0 0 1 0"/>
<feBlend mode="normal" in2="effect1_innerShadow_933_6460" result="effect2_innerShadow_933_6460"/>
</filter>
<filter id="filter9_ii_933_6460" x="16.2412" y="16.6184" width="5.87778" height="11.3816" filterUnits="userSpaceOnUse" color-interpolation-filters="sRGB">
<feFlood flood-opacity="0" result="BackgroundImageFix"/>
<feBlend mode="normal" in="SourceGraphic" in2="BackgroundImageFix" result="shape"/>
<feColorMatrix in="SourceAlpha" type="matrix" values="0 0 0 0 0 0 0 0 0 0 0 0 0 0 0 0 0 0 127 0" result="hardAlpha"/>
<feOffset dx="0.15" dy="-0.15"/>
<feGaussianBlur stdDeviation="0.25"/>
<feComposite in2="hardAlpha" operator="arithmetic" k2="-1" k3="1"/>
<feColorMatrix type="matrix" values="0 0 0 0 0.729412 0 0 0 0 0.678431 0 0 0 0 0.686275 0 0 0 1 0"/>
<feBlend mode="normal" in2="shape" result="effect1_innerShadow_933_6460"/>
<feColorMatrix in="SourceAlpha" type="matrix" values="0 0 0 0 0 0 0 0 0 0 0 0 0 0 0 0 0 0 127 0" result="hardAlpha"/>
<feOffset dx="-0.5"/>
<feGaussianBlur stdDeviation="0.375"/>
<feComposite in2="hardAlpha" operator="arithmetic" k2="-1" k3="1"/>
<feColorMatrix type="matrix" values="0 0 0 0 0.964706 0 0 0 0 0.964706 0 0 0 0 0.956863 0 0 0 1 0"/>
<feBlend mode="normal" in2="effect1_innerShadow_933_6460" result="effect2_innerShadow_933_6460"/>
</filter>
<radialGradient id="paint0_radial_933_6460" cx="0" cy="0" r="1" gradientUnits="userSpaceOnUse" gradientTransform="translate(1.60409 5.86487) scale(7.65443 1.35425)">
<stop stop-color="#E3E1E1"/>
<stop offset="1" stop-color="#E3E1E1" stop-opacity="0"/>
</radialGradient>
<linearGradient id="paint1_linear_933_6460" x1="25.439" y1="12.0341" x2="12.0161" y2="25.4571" gradientUnits="userSpaceOnUse">
<stop stop-color="#12724A"/>
<stop offset="1" stop-color="#116245"/>
</linearGradient>
<linearGradient id="paint2_linear_933_6460" x1="25.9412" y1="10.5942" x2="24.5187" y2="12.0168" gradientUnits="userSpaceOnUse">
<stop stop-color="#1C8F60"/>
<stop offset="1" stop-color="#1C8F60" stop-opacity="0"/>
</linearGradient>
<linearGradient id="paint3_linear_933_6460" x1="10.9617" y1="25.4404" x2="12.4342" y2="23.9679" gradientUnits="userSpaceOnUse">
<stop offset="0.557" stop-color="#195840"/>
<stop offset="1" stop-color="#195840" stop-opacity="0"/>
</linearGradient>
<radialGradient id="paint4_radial_933_6460" cx="0" cy="0" r="1" gradientUnits="userSpaceOnUse" gradientTransform="translate(17.8263 18.448) rotate(114.806) scale(4.02421 3.81825)">
<stop offset="0.307" stop-color="#0E593C"/>
<stop offset="1" stop-color="#0E593C" stop-opacity="0"/>
</radialGradient>
<radialGradient id="paint5_radial_933_6460" cx="0" cy="0" r="1" gradientUnits="userSpaceOnUse" gradientTransform="translate(17.7642 19.6767) rotate(138.249) scale(4.97866 1.05572)">
<stop offset="0.396" stop-color="#0F4F35"/>
<stop offset="1" stop-color="#0F4F35" stop-opacity="0"/>
</radialGradient>
<radialGradient id="paint6_radial_933_6460" cx="0" cy="0" r="1" gradientUnits="userSpaceOnUse" gradientTransform="translate(1.14449 14.9712) rotate(3.2593) scale(14.7191 19.3022)">
<stop stop-color="#31DE74"/>
<stop offset="1" stop-color="#20CF5E"/>
</radialGradient>
<linearGradient id="paint7_linear_933_6460" x1="13.9653" y1="3.22156" x2="12.3249" y2="20.5945" gradientUnits="userSpaceOnUse">
<stop stop-color="#24A35B"/>
<stop offset="1" stop-color="#27A05A"/>
</linearGradient>
<linearGradient id="paint8_linear_933_6460" x1="14.8353" y1="10.8538" x2="15.7897" y2="9.89945" gradientUnits="userSpaceOnUse">
<stop offset="0.228" stop-color="#269553"/>
<stop offset="1" stop-color="#269553" stop-opacity="0"/>
</linearGradient>
<radialGradient id="paint9_radial_933_6460" cx="0" cy="0" r="1" gradientUnits="userSpaceOnUse" gradientTransform="translate(15.7397 10.1176) rotate(-85.802) scale(3.65855 3.59602)">
<stop offset="0.587" stop-color="#249755" stop-opacity="0"/>
<stop offset="0.987" stop-color="#16793D"/>
</radialGradient>
<linearGradient id="paint10_linear_933_6460" x1="9.44658" y1="7.67335" x2="18.7194" y2="16.9461" gradientUnits="userSpaceOnUse">
<stop stop-color="#FFD425"/>
<stop offset="1" stop-color="#FFAD24"/>
</linearGradient>
<linearGradient id="paint11_linear_933_6460" x1="20.8448" y1="17.9338" x2="18.786" y2="15.8751" gradientUnits="userSpaceOnUse">
<stop offset="0.894" stop-color="#CC8139"/>
<stop offset="1" stop-color="#CC8139" stop-opacity="0"/>
</linearGradient>
<linearGradient id="paint12_linear_933_6460" x1="7.10983" y1="13.4836" x2="11.9653" y2="18.3391" gradientUnits="userSpaceOnUse">
<stop stop-color="#EFEAEA"/>
<stop offset="1" stop-color="#EAE3E3"/>
</linearGradient>
</defs>
</svg>
