<svg width="28" height="28" viewBox="0 0 28 28" fill="none" xmlns="http://www.w3.org/2000/svg">
<g filter="url(#filter0_i_932_5903)">
<path d="M14 24.8991C20.0194 24.8991 24.8991 20.0194 24.8991 14C24.8991 7.98054 20.0194 3.10083 14 3.10083C7.98057 3.10083 3.10086 7.98054 3.10086 14C3.10086 20.0194 7.98057 24.8991 14 24.8991Z" fill="url(#paint0_linear_932_5903)"/>
</g>
<g filter="url(#filter1_iiii_932_5903)">
<path fill-rule="evenodd" clip-rule="evenodd" d="M14 28C21.7321 28 28 21.7321 28 14C28 6.26788 21.7321 0 14 0C6.26788 0 0 6.26888 0 14.001C0 21.7321 6.26788 28 14 28ZM14 24.8991C20.0193 24.8991 24.8991 20.0193 24.8991 14C24.8991 7.98067 20.0193 3.10187 14 3.10187C7.98067 3.10187 3.10087 7.98067 3.10087 14C3.10087 20.0193 7.98067 24.9001 14 24.9001" fill="url(#paint1_linear_932_5903)"/>
</g>
<g filter="url(#filter2_f_932_5903)">
<path fill-rule="evenodd" clip-rule="evenodd" d="M7.89948 8.88969C7.81399 8.94406 7.74363 9.01914 7.69492 9.10798C7.64621 9.19681 7.62074 9.2965 7.62086 9.39781V9.67844C7.62089 9.80055 7.66552 9.91845 7.74635 10.01C7.82718 10.1015 7.93866 10.1604 8.05983 10.1755V17.7894H7.95159C7.79632 17.7895 7.64548 17.8411 7.5227 17.9362C7.39991 18.0312 7.31213 18.1643 7.27309 18.3146L6.9624 19.5032C6.9431 19.5773 6.94105 19.6548 6.95639 19.7299C6.97173 19.8049 7.00406 19.8754 7.0509 19.936C7.09774 19.9966 7.15784 20.0456 7.22659 20.0793C7.29533 20.1131 7.3709 20.1306 7.44747 20.1306H19.9251C20.0005 20.1307 20.075 20.1138 20.1429 20.0811C20.2109 20.0484 20.2706 20.0008 20.3176 19.9419C20.3646 19.8829 20.3977 19.8141 20.4144 19.7406C20.4312 19.6671 20.4311 19.5907 20.4142 19.5172L20.1416 18.3336C20.106 18.1788 20.0188 18.0407 19.8945 17.9418C19.7701 17.8429 19.6159 17.7892 19.4571 17.7894H19.3498V10.1725C19.4676 10.1539 19.5748 10.094 19.6523 10.0034C19.7299 9.91286 19.7726 9.79764 19.7728 9.67844V9.39781C19.773 9.2966 19.7477 9.19696 19.6991 9.10814C19.6506 9.01931 19.5805 8.94418 19.4952 8.88969L14.1002 5.45709C13.9795 5.3802 13.8394 5.33936 13.6963 5.33936C13.5532 5.33936 13.4131 5.3802 13.2924 5.45709L7.89948 8.88969ZM17.7373 17.7894V10.1795H16.1237V17.7894H17.7373ZM14.5111 17.7894V10.1795H12.8975V17.7894H14.5111ZM11.285 17.7894V10.1795H9.6724V17.7894H11.285Z" fill="#DC7B3C"/>
</g>
<g filter="url(#filter3_ii_932_5903)">
<path d="M7.93457 9.11521C7.93451 9.01416 7.95991 8.91473 8.00843 8.82609C8.05696 8.73746 8.12703 8.66248 8.21219 8.60809L13.6071 5.17448C13.7277 5.0978 13.8676 5.05707 14.0105 5.05707C14.1534 5.05707 14.2933 5.0978 14.4139 5.17448L19.8079 8.60809C19.8932 8.66236 19.9635 8.73729 20.0122 8.82593C20.0609 8.91457 20.0864 9.01407 20.0865 9.11521V9.39583C20.0865 9.52873 20.0337 9.65619 19.9397 9.75017C19.8457 9.84414 19.7183 9.89694 19.5854 9.89694H8.43568C8.30278 9.89694 8.17532 9.84414 8.08134 9.75017C7.98737 9.65619 7.93457 9.52873 7.93457 9.39583V9.11521Z" fill="#FFC546"/>
</g>
<path d="M7.93457 9.11521C7.93451 9.01416 7.95991 8.91473 8.00843 8.82609C8.05696 8.73746 8.12703 8.66248 8.21219 8.60809L13.6071 5.17448C13.7277 5.0978 13.8676 5.05707 14.0105 5.05707C14.1534 5.05707 14.2933 5.0978 14.4139 5.17448L19.8079 8.60809C19.8932 8.66236 19.9635 8.73729 20.0122 8.82593C20.0609 8.91457 20.0864 9.01407 20.0865 9.11521V9.39583C20.0865 9.52873 20.0337 9.65619 19.9397 9.75017C19.8457 9.84414 19.7183 9.89694 19.5854 9.89694H8.43568C8.30278 9.89694 8.17532 9.84414 8.08134 9.75017C7.98737 9.65619 7.93457 9.52873 7.93457 9.39583V9.11521Z" fill="url(#paint2_linear_932_5903)"/>
<path d="M8.37256 9.69349C8.37256 9.62704 8.39896 9.56331 8.44594 9.51632C8.49293 9.46933 8.55666 9.44293 8.62311 9.44293H9.73558C9.80203 9.44293 9.86576 9.46933 9.91275 9.51632C9.95973 9.56331 9.98613 9.62704 9.98613 9.69349V17.7273H8.37256V9.69349Z" fill="url(#paint3_linear_932_5903)"/>
<path d="M8.37256 9.69349C8.37256 9.62704 8.39896 9.56331 8.44594 9.51632C8.49293 9.46933 8.55666 9.44293 8.62311 9.44293H9.73558C9.80203 9.44293 9.86576 9.46933 9.91275 9.51632C9.95973 9.56331 9.98613 9.62704 9.98613 9.69349V17.7273H8.37256V9.69349Z" fill="url(#paint4_linear_932_5903)"/>
<path d="M11.5987 9.44293H13.2113V17.7273H11.5987V9.44293Z" fill="url(#paint5_linear_932_5903)"/>
<path d="M11.5987 9.44293H13.2113V17.7273H11.5987V9.44293Z" fill="url(#paint6_linear_932_5903)"/>
<path d="M14.8248 9.44293H16.4374V17.7273H14.8248V9.44293Z" fill="url(#paint7_linear_932_5903)"/>
<path d="M14.8248 9.44293H16.4374V17.7273H14.8248V9.44293Z" fill="url(#paint8_linear_932_5903)"/>
<path d="M18.05 9.44293H19.6626V17.7273H18.05V9.44293Z" fill="url(#paint9_linear_932_5903)"/>
<path d="M18.05 9.44293H19.6626V17.7273H18.05V9.44293Z" fill="url(#paint10_linear_932_5903)"/>
<g filter="url(#filter4_ii_932_5903)">
<path d="M7.58578 18.0319C7.62505 17.8817 7.71306 17.7487 7.83603 17.6538C7.95901 17.559 8.10998 17.5076 8.26528 17.5078H19.7708C19.9294 17.5078 20.0834 17.5616 20.2076 17.6605C20.3317 17.7593 20.4187 17.8973 20.4543 18.052L20.7279 19.2346C20.7449 19.3081 20.7452 19.3846 20.7285 19.4583C20.7119 19.5319 20.6788 19.6009 20.6318 19.6599C20.5847 19.719 20.525 19.7667 20.4569 19.7994C20.3889 19.8322 20.3143 19.8491 20.2388 19.8489H7.76116C7.68459 19.849 7.60902 19.8314 7.54028 19.7977C7.47153 19.764 7.41143 19.7149 7.36459 19.6543C7.31775 19.5938 7.28542 19.5232 7.27008 19.4482C7.25474 19.3732 7.25679 19.2957 7.27609 19.2215L7.58578 18.0319Z" fill="#FFC248"/>
</g>
<defs>
<filter id="filter0_i_932_5903" x="2.85086" y="3.10083" width="22.0483" height="22.0483" filterUnits="userSpaceOnUse" color-interpolation-filters="sRGB">
<feFlood flood-opacity="0" result="BackgroundImageFix"/>
<feBlend mode="normal" in="SourceGraphic" in2="BackgroundImageFix" result="shape"/>
<feColorMatrix in="SourceAlpha" type="matrix" values="0 0 0 0 0 0 0 0 0 0 0 0 0 0 0 0 0 0 127 0" result="hardAlpha"/>
<feOffset dx="-0.25" dy="0.25"/>
<feGaussianBlur stdDeviation="0.5"/>
<feComposite in2="hardAlpha" operator="arithmetic" k2="-1" k3="1"/>
<feColorMatrix type="matrix" values="0 0 0 0 0.831373 0 0 0 0 0.45098 0 0 0 0 0.196078 0 0 0 1 0"/>
<feBlend mode="normal" in2="shape" result="effect1_innerShadow_932_5903"/>
</filter>
<filter id="filter1_iiii_932_5903" x="-0.3" y="-0.3" width="28.6" height="28.6" filterUnits="userSpaceOnUse" color-interpolation-filters="sRGB">
<feFlood flood-opacity="0" result="BackgroundImageFix"/>
<feBlend mode="normal" in="SourceGraphic" in2="BackgroundImageFix" result="shape"/>
<feColorMatrix in="SourceAlpha" type="matrix" values="0 0 0 0 0 0 0 0 0 0 0 0 0 0 0 0 0 0 127 0" result="hardAlpha"/>
<feOffset dx="0.3" dy="0.3"/>
<feGaussianBlur stdDeviation="0.3"/>
<feComposite in2="hardAlpha" operator="arithmetic" k2="-1" k3="1"/>
<feColorMatrix type="matrix" values="0 0 0 0 0.886275 0 0 0 0 0.662745 0 0 0 0 0.235294 0 0 0 1 0"/>
<feBlend mode="normal" in2="shape" result="effect1_innerShadow_932_5903"/>
<feColorMatrix in="SourceAlpha" type="matrix" values="0 0 0 0 0 0 0 0 0 0 0 0 0 0 0 0 0 0 127 0" result="hardAlpha"/>
<feOffset dx="0.3" dy="-0.3"/>
<feGaussianBlur stdDeviation="0.3"/>
<feComposite in2="hardAlpha" operator="arithmetic" k2="-1" k3="1"/>
<feColorMatrix type="matrix" values="0 0 0 0 0.956863 0 0 0 0 0.607843 0 0 0 0 0.294118 0 0 0 1 0"/>
<feBlend mode="normal" in2="effect1_innerShadow_932_5903" result="effect2_innerShadow_932_5903"/>
<feColorMatrix in="SourceAlpha" type="matrix" values="0 0 0 0 0 0 0 0 0 0 0 0 0 0 0 0 0 0 127 0" result="hardAlpha"/>
<feOffset dy="-0.3"/>
<feGaussianBlur stdDeviation="0.3"/>
<feComposite in2="hardAlpha" operator="arithmetic" k2="-1" k3="1"/>
<feColorMatrix type="matrix" values="0 0 0 0 0.956863 0 0 0 0 0.607843 0 0 0 0 0.294118 0 0 0 1 0"/>
<feBlend mode="normal" in2="effect2_innerShadow_932_5903" result="effect3_innerShadow_932_5903"/>
<feColorMatrix in="SourceAlpha" type="matrix" values="0 0 0 0 0 0 0 0 0 0 0 0 0 0 0 0 0 0 127 0" result="hardAlpha"/>
<feOffset dx="-0.3" dy="0.3"/>
<feGaussianBlur stdDeviation="0.3"/>
<feComposite in2="hardAlpha" operator="arithmetic" k2="-1" k3="1"/>
<feColorMatrix type="matrix" values="0 0 0 0 1 0 0 0 0 0.882353 0 0 0 0 0.337255 0 0 0 1 0"/>
<feBlend mode="normal" in2="effect3_innerShadow_932_5903" result="effect4_innerShadow_932_5903"/>
</filter>
<filter id="filter2_f_932_5903" x="6.34623" y="4.73936" width="14.6807" height="15.9912" filterUnits="userSpaceOnUse" color-interpolation-filters="sRGB">
<feFlood flood-opacity="0" result="BackgroundImageFix"/>
<feBlend mode="normal" in="SourceGraphic" in2="BackgroundImageFix" result="shape"/>
<feGaussianBlur stdDeviation="0.3" result="effect1_foregroundBlur_932_5903"/>
</filter>
<filter id="filter3_ii_932_5903" x="7.93457" y="4.80707" width="12.3019" height="5.33984" filterUnits="userSpaceOnUse" color-interpolation-filters="sRGB">
<feFlood flood-opacity="0" result="BackgroundImageFix"/>
<feBlend mode="normal" in="SourceGraphic" in2="BackgroundImageFix" result="shape"/>
<feColorMatrix in="SourceAlpha" type="matrix" values="0 0 0 0 0 0 0 0 0 0 0 0 0 0 0 0 0 0 127 0" result="hardAlpha"/>
<feOffset dy="-0.25"/>
<feGaussianBlur stdDeviation="0.25"/>
<feComposite in2="hardAlpha" operator="arithmetic" k2="-1" k3="1"/>
<feColorMatrix type="matrix" values="0 0 0 0 0.980392 0 0 0 0 0.647059 0 0 0 0 0.172549 0 0 0 1 0"/>
<feBlend mode="normal" in2="shape" result="effect1_innerShadow_932_5903"/>
<feColorMatrix in="SourceAlpha" type="matrix" values="0 0 0 0 0 0 0 0 0 0 0 0 0 0 0 0 0 0 127 0" result="hardAlpha"/>
<feOffset dx="0.15" dy="0.25"/>
<feGaussianBlur stdDeviation="0.25"/>
<feComposite in2="hardAlpha" operator="arithmetic" k2="-1" k3="1"/>
<feColorMatrix type="matrix" values="0 0 0 0 0.980392 0 0 0 0 0.647059 0 0 0 0 0.172549 0 0 0 1 0"/>
<feBlend mode="normal" in2="effect1_innerShadow_932_5903" result="effect2_innerShadow_932_5903"/>
</filter>
<filter id="filter4_ii_932_5903" x="7.00992" y="17.2578" width="13.9809" height="2.84119" filterUnits="userSpaceOnUse" color-interpolation-filters="sRGB">
<feFlood flood-opacity="0" result="BackgroundImageFix"/>
<feBlend mode="normal" in="SourceGraphic" in2="BackgroundImageFix" result="shape"/>
<feColorMatrix in="SourceAlpha" type="matrix" values="0 0 0 0 0 0 0 0 0 0 0 0 0 0 0 0 0 0 127 0" result="hardAlpha"/>
<feOffset dx="0.25" dy="-0.25"/>
<feGaussianBlur stdDeviation="0.2"/>
<feComposite in2="hardAlpha" operator="arithmetic" k2="-1" k3="1"/>
<feColorMatrix type="matrix" values="0 0 0 0 0.992157 0 0 0 0 0.658824 0 0 0 0 0.0705882 0 0 0 1 0"/>
<feBlend mode="normal" in2="shape" result="effect1_innerShadow_932_5903"/>
<feColorMatrix in="SourceAlpha" type="matrix" values="0 0 0 0 0 0 0 0 0 0 0 0 0 0 0 0 0 0 127 0" result="hardAlpha"/>
<feOffset dx="-0.25" dy="0.25"/>
<feGaussianBlur stdDeviation="0.2"/>
<feComposite in2="hardAlpha" operator="arithmetic" k2="-1" k3="1"/>
<feColorMatrix type="matrix" values="0 0 0 0 1 0 0 0 0 0.8 0 0 0 0 0.290196 0 0 0 1 0"/>
<feBlend mode="normal" in2="effect1_innerShadow_932_5903" result="effect2_innerShadow_932_5903"/>
</filter>
<linearGradient id="paint0_linear_932_5903" x1="9.55315" y1="19.45" x2="21.3292" y2="4.60416" gradientUnits="userSpaceOnUse">
<stop stop-color="#F19D48"/>
<stop offset="1" stop-color="#E89A44"/>
</linearGradient>
<linearGradient id="paint1_linear_932_5903" x1="14" y1="0" x2="14" y2="28" gradientUnits="userSpaceOnUse">
<stop stop-color="#FFC444"/>
<stop offset="1" stop-color="#FFC24B"/>
</linearGradient>
<linearGradient id="paint2_linear_932_5903" x1="17.3204" y1="6.85921" x2="16.9124" y2="7.47758" gradientUnits="userSpaceOnUse">
<stop offset="0.459" stop-color="#FFCA3F"/>
<stop offset="1" stop-color="#FFCA3F" stop-opacity="0"/>
</linearGradient>
<linearGradient id="paint3_linear_932_5903" x1="8.51888" y1="12.642" x2="9.30262" y2="12.642" gradientUnits="userSpaceOnUse">
<stop offset="0.167" stop-color="#FFB33B"/>
<stop offset="1" stop-color="#FFC047"/>
</linearGradient>
<linearGradient id="paint4_linear_932_5903" x1="9.98613" y1="14.2726" x2="9.59927" y2="14.2726" gradientUnits="userSpaceOnUse">
<stop offset="0.067" stop-color="#FFC34C"/>
<stop offset="1" stop-color="#FFC34C" stop-opacity="0"/>
</linearGradient>
<linearGradient id="paint5_linear_932_5903" x1="11.745" y1="12.642" x2="12.5278" y2="12.642" gradientUnits="userSpaceOnUse">
<stop offset="0.167" stop-color="#FFB33B"/>
<stop offset="1" stop-color="#FFC047"/>
</linearGradient>
<linearGradient id="paint6_linear_932_5903" x1="13.2113" y1="14.2726" x2="12.8254" y2="14.2726" gradientUnits="userSpaceOnUse">
<stop offset="0.067" stop-color="#FFC34C"/>
<stop offset="1" stop-color="#FFC34C" stop-opacity="0"/>
</linearGradient>
<linearGradient id="paint7_linear_932_5903" x1="14.9712" y1="12.642" x2="15.7539" y2="12.642" gradientUnits="userSpaceOnUse">
<stop offset="0.167" stop-color="#FFB33B"/>
<stop offset="1" stop-color="#FFC047"/>
</linearGradient>
<linearGradient id="paint8_linear_932_5903" x1="16.4374" y1="14.2726" x2="16.0515" y2="14.2726" gradientUnits="userSpaceOnUse">
<stop offset="0.067" stop-color="#FFC34C"/>
<stop offset="1" stop-color="#FFC34C" stop-opacity="0"/>
</linearGradient>
<linearGradient id="paint9_linear_932_5903" x1="18.1973" y1="12.642" x2="18.98" y2="12.642" gradientUnits="userSpaceOnUse">
<stop offset="0.167" stop-color="#FFB33B"/>
<stop offset="1" stop-color="#FFC047"/>
</linearGradient>
<linearGradient id="paint10_linear_932_5903" x1="19.6636" y1="14.2726" x2="19.2777" y2="14.2726" gradientUnits="userSpaceOnUse">
<stop offset="0.067" stop-color="#FFC34C"/>
<stop offset="1" stop-color="#FFC34C" stop-opacity="0"/>
</linearGradient>
</defs>
</svg>
