<svg width="32" height="28" viewBox="0 0 32 28" fill="none" xmlns="http://www.w3.org/2000/svg">
<path d="M0.582369 2.06069L7.80599 0L8.39956 12.8793L7.80599 25.7474L0.95195 27.9761C0.839332 28.0043 0.721783 28.0065 0.608186 27.9826C0.494588 27.9587 0.387912 27.9092 0.296219 27.838C0.204526 27.7668 0.130214 27.6757 0.0788975 27.5716C0.0275809 27.4675 0.000602296 27.353 0 27.237V2.79985C0 2.45267 0.246387 2.15029 0.582369 2.06069ZM15.6568 2.23988L23.4852 0L24.0787 12.8793L23.5076 25.7586L15.6568 27.9985L14.5592 15.1192L15.6568 2.23988Z" fill="white"/>
<path d="M15.6567 2.23988L7.80591 0V25.7474L15.6567 27.9985V2.23988ZM30.6863 2.06069L23.4851 0V25.7586L30.3055 27.9761C30.7871 28.0993 31.2575 27.7297 31.2575 27.237V2.79985C31.2575 2.45267 31.0223 2.15029 30.6863 2.06069Z" fill="#E6E6E6"/>
<path d="M2.18384 3.74059L7.80594 2.23987L8.95948 12.8793L7.80594 23.5187L2.58702 25.1091C2.47297 25.1406 2.3532 25.1454 2.237 25.1231C2.1208 25.1008 2.01132 25.0519 1.91705 24.9804C1.82279 24.9089 1.74629 24.8166 1.6935 24.7107C1.6407 24.6049 1.61305 24.4882 1.61267 24.3699V4.47975C1.61267 4.13257 1.84786 3.83018 2.18384 3.74059ZM15.6119 4.47975L23.4851 2.26227L24.6387 12.8793L23.4851 23.5075L15.6119 25.7474L14.5592 15.1192L15.6119 4.47975Z" fill="#00A6ED"/>
<path d="M15.6119 4.47981L7.80591 2.26233V23.5076L15.6119 25.7475V4.47981ZM29.0512 3.74065L23.4851 2.26233V23.5412L28.648 25.1315C29.1408 25.2659 29.6224 24.8963 29.6224 24.3924V4.47981C29.6224 4.13263 29.3872 3.83025 29.0512 3.74065Z" fill="#0074BA"/>
<path d="M13.7976 14.156L14.3912 13.5625C14.4718 13.4919 14.5704 13.4494 14.6622 13.4079L14.6936 13.3945H15.1752C15.4215 13.3945 15.6231 13.1929 15.6231 12.9465V12.7337C15.6231 12.4873 15.4215 12.2857 15.1752 12.2857H14.9624C14.716 12.2857 14.5144 12.0842 14.5144 11.8378V10.505C14.5144 10.2587 14.716 10.0571 14.9624 10.0571H15.1752C15.4215 10.0571 15.6231 9.85548 15.6231 9.60909V9.3963C15.6231 9.14991 15.8247 8.94832 16.0711 8.94832H17.6838C17.7958 8.94832 17.9078 8.91473 17.9862 8.83633L19.9461 7.07802C20.0357 6.98843 20.0917 6.86523 20.0917 6.74204V6.70844C20.0917 6.09247 20.5957 5.5885 21.2116 5.5885H21.6596C22.0292 5.5885 22.3316 5.89089 22.3316 6.26047C22.3316 6.50685 22.5332 6.70844 22.7796 6.70844H24.1123C24.3587 6.70844 24.5603 6.50685 24.5603 6.26047V6.04768C24.5603 5.80129 24.7618 5.5997 25.0082 5.5997H25.053C26.005 5.5997 26.7889 6.37246 26.7889 7.33561V9.50829C26.7889 9.82188 26.5426 10.0683 26.229 10.0683C25.9154 10.0683 25.669 9.82188 25.669 9.50829V9.3963C25.669 9.14991 25.4674 8.94832 25.221 8.94832H25.0082C24.7618 8.94832 24.5603 9.14991 24.5603 9.3963V10.729C24.5603 10.9754 24.7618 11.177 25.0082 11.177C25.0815 11.1772 25.1536 11.1953 25.2183 11.2298C25.2829 11.2643 25.3381 11.3141 25.379 11.3749C25.4199 11.4357 25.4453 11.5056 25.4529 11.5785C25.4605 11.6514 25.4501 11.725 25.4226 11.793L24.4371 14.2456C24.3699 14.4136 24.2019 14.5256 24.0227 14.5256H22.7684C22.522 14.5256 22.3204 14.324 22.3204 14.0777V13.8649C22.3204 13.6185 22.1188 13.4169 21.8724 13.4169H21.6596C21.4132 13.4169 21.2116 13.6185 21.2116 13.8649V14.0777C21.2116 14.324 21.01 14.5256 20.7637 14.5256H20.5509C20.3045 14.5256 20.1029 14.324 20.1029 14.0777V13.8649C20.1029 13.6185 19.9013 13.4169 19.6549 13.4169H19.4421C19.1957 13.4169 18.9942 13.6185 18.9942 13.8649V14.4248C18.9942 14.492 18.983 14.5592 18.9494 14.6264L17.9302 16.6759C17.8966 16.7431 17.8854 16.8103 17.8854 16.8775V18.2662C17.8854 18.7478 17.695 19.207 17.359 19.543L16.8999 20.0021C16.8576 20.0453 16.807 20.0794 16.7512 20.1025C16.6954 20.1256 16.6355 20.1372 16.5751 20.1365H16.0935C15.8471 20.1365 15.6455 19.9349 15.6455 19.6886V17.2359C15.6455 16.9895 15.4439 16.7879 15.1976 16.7879H14.716C14.6556 16.7886 14.5957 16.777 14.5399 16.7539C14.484 16.7308 14.4335 16.6967 14.3912 16.6535L13.7976 16.0599C13.5512 15.8136 13.4056 15.4664 13.4056 15.108C13.4056 14.7496 13.54 14.4136 13.7976 14.156ZM10.0458 20.7077C10.0458 21.0213 9.79944 21.2677 9.48586 21.2677C9.18347 21.2677 8.92588 21.0213 8.94828 20.7413V19.207C8.94852 19.1613 8.93974 19.116 8.92244 19.0737C8.90514 19.0315 8.87967 18.993 8.84749 18.9606L8.42191 18.535C8.04113 18.1542 7.82834 17.6279 7.82834 17.0903V15.836C7.82858 15.7903 7.81979 15.745 7.8025 15.7027C7.7852 15.6604 7.75973 15.622 7.72755 15.5896L6.32762 14.1896C6.17755 14.0396 5.93452 13.8727 5.67134 13.6924C5.11249 13.3083 4.46852 12.867 4.46852 12.4089V9.76588C4.46852 9.55085 4.65331 9.35486 4.78882 9.21151C4.9277 9.06256 5.01505 8.97072 4.7933 8.97072C4.58051 8.97072 4.37892 9.06032 4.23333 9.20591L2.82221 10.617C2.59822 10.8298 2.22864 10.6842 2.22864 10.3706V10.2251C2.22864 10.1355 2.26224 10.0459 2.32943 9.97867L2.59822 9.70988C3.06859 9.23951 3.33738 8.58994 3.33738 7.91798V7.5036C3.33738 7.07802 3.68456 6.73084 4.11014 6.73084H4.8045C5.23008 6.73084 5.57726 7.07802 5.57726 7.5036C5.57726 7.69399 5.73405 7.85078 5.92444 7.85078H6.03644C6.55161 7.85078 7.04438 7.63799 7.39157 7.25721L8.08593 6.50685C8.6235 5.93568 9.37386 5.6109 10.1578 5.6109H11.9497C12.7561 5.6109 13.4056 6.26047 13.4056 7.06682C13.4056 7.5708 13.2041 8.05237 12.8457 8.41075L12.3865 8.86993C12.3543 8.90235 12.3288 8.9408 12.3116 8.98308C12.2943 9.02536 12.2855 9.07064 12.2857 9.11632V9.53069C12.2857 9.84428 12.0393 10.0907 11.7257 10.0907C11.4122 10.0907 11.1658 9.84428 11.1658 9.53069V7.29081C11.1658 6.97723 10.9194 6.73084 10.6058 6.73084C10.2922 6.73084 10.0458 6.97723 10.0458 7.29081V7.5036C10.0458 7.69399 9.88903 7.85078 9.69864 7.85078H8.82509C8.6235 7.85078 8.46671 8.00757 8.47791 8.20916L8.50031 8.60114C8.51151 8.79153 8.35471 8.95952 8.15312 8.95952C7.96274 8.95952 7.80594 9.11632 7.80594 9.30671V9.51949C7.80594 9.83308 8.05233 10.0795 8.36591 10.0795C8.6795 10.0795 8.92588 9.83308 8.92588 9.51949C8.92588 9.20591 9.17227 8.95952 9.48586 8.95952C9.79944 8.95952 10.0458 9.20591 10.0458 9.51949V9.93387C10.0458 10.0235 10.0794 10.1131 10.1466 10.1803L10.9194 10.953C11.0538 11.0874 11.0538 11.3114 10.9194 11.4458L10.5946 11.7706C10.2474 12.1178 9.76584 12.3193 9.27307 12.3193C9.08268 12.3193 8.92588 12.4761 8.92588 12.6665V12.8793C8.92588 13.1929 8.6795 13.4393 8.36591 13.4393C8.05233 13.4393 7.80594 13.1929 7.80594 12.8793V12.6665C7.80594 12.4761 7.64915 12.3193 7.45876 12.3193H7.03318C6.84279 12.3193 6.686 12.4761 6.686 12.6665V13.2937C6.686 13.3833 6.7196 13.4729 6.7868 13.5401L8.82509 15.5784C8.89229 15.6456 8.98188 15.6792 9.07148 15.6792H9.56425C9.87783 15.6792 10.1914 15.7464 10.4714 15.892L11.7817 16.5415C12.0953 16.6871 12.2857 17.0007 12.2857 17.3479C12.2857 17.6839 12.0841 17.9974 11.7817 18.1542L11.0986 18.5014C10.449 18.8262 10.0458 19.4758 10.0458 20.2037V20.7077ZM22.3652 16.2503C22.3652 16.5975 22.4884 16.9335 22.7012 17.2023L22.9363 17.4823C23.2723 17.8967 23.8211 18.087 24.3363 17.9638C24.4123 17.9462 24.4802 17.9035 24.529 17.8425C24.5778 17.7816 24.6046 17.7059 24.6051 17.6279V17.2135C24.6051 17.0343 24.7394 16.8887 24.9074 16.8663L25.0754 16.8439C25.4226 16.8103 25.725 17.0791 25.725 17.4263C25.725 17.6951 25.9154 17.9414 26.1842 17.9974L26.4306 18.0534C26.6433 18.0982 26.8449 17.9414 26.8449 17.7175V16.7767C26.8449 16.1607 26.341 15.6568 25.725 15.6568H24.7618C24.6611 15.6568 24.5715 15.7016 24.5043 15.7688L24.0899 16.2279C24.0427 16.2802 23.9808 16.3168 23.9123 16.333C23.8438 16.3492 23.772 16.3443 23.7065 16.3187C23.6409 16.2932 23.5846 16.2484 23.5451 16.1902C23.5055 16.132 23.4846 16.0631 23.4851 15.9928C23.4851 15.8024 23.3283 15.6456 23.1379 15.6456H22.7124C22.522 15.668 22.3652 15.8248 22.3652 16.0152V16.2503ZM24.0451 21.2789C23.7315 21.2789 23.4851 21.0325 23.4851 20.7189V19.9685C23.4851 19.4534 23.8995 19.0278 24.4147 19.0278H26.2178C26.565 19.0278 26.8449 19.3078 26.8449 19.655V20.7189C26.8449 21.0325 26.5986 21.2789 26.285 21.2789H24.0451Z" fill="#00D26A"/>
</svg>
