<svg width="36" height="32" viewBox="0 0 36 32" fill="none" xmlns="http://www.w3.org/2000/svg">
<g filter="url(#filter0_iii_876_3961)">
<path d="M17.8648 9.86939C17.6466 10.7192 16.9033 11.3533 16.0253 11.7923C13.5363 12.6523 11.5711 13.4816 9.94344 14.2851C8.50319 14.9975 8.5186 17.2478 9.96269 17.9499C11.6507 18.7702 13.77 19.557 16.1242 20.4915C16.757 20.7418 17.6517 21.4504 17.8738 22.322C18.5921 25.0897 19.4764 27.8117 20.5219 30.4731C21.3191 32.5102 23.292 32.5077 24.0943 30.4731C25.134 27.8301 25.926 24.9766 26.8182 22.2617C26.9266 21.8497 27.1349 21.4708 27.4246 21.1585C27.7144 20.8462 28.0766 20.61 28.4792 20.471C30.5281 19.7368 32.5495 18.928 34.5393 18.0462C36.1567 17.3338 36.19 15.0219 34.5932 14.2646C32.5928 13.3106 30.5492 12.4501 28.4689 11.6857C28.0627 11.5407 27.6959 11.303 27.3976 10.9915C27.0992 10.68 26.8776 10.3033 26.7501 9.89122C25.7823 6.926 25.1687 4.41007 24.1392 1.79914C23.3369 -0.236711 21.2331 -0.173812 20.4295 1.86076C19.4052 4.46398 18.6902 7.05308 17.8648 9.86939Z" fill="url(#paint0_linear_876_3961)"/>
</g>
<path d="M17.8648 9.86939C17.6466 10.7192 16.9033 11.3533 16.0253 11.7923C13.5363 12.6523 11.5711 13.4816 9.94344 14.2851C8.50319 14.9975 8.5186 17.2478 9.96269 17.9499C11.6507 18.7702 13.77 19.557 16.1242 20.4915C16.757 20.7418 17.6517 21.4504 17.8738 22.322C18.5921 25.0897 19.4764 27.8117 20.5219 30.4731C21.3191 32.5102 23.292 32.5077 24.0943 30.4731C25.134 27.8301 25.926 24.9766 26.8182 22.2617C26.9266 21.8497 27.1349 21.4708 27.4246 21.1585C27.7144 20.8462 28.0766 20.61 28.4792 20.471C30.5281 19.7368 32.5495 18.928 34.5393 18.0462C36.1567 17.3338 36.19 15.0219 34.5932 14.2646C32.5928 13.3106 30.5492 12.4501 28.4689 11.6857C28.0627 11.5407 27.6959 11.303 27.3976 10.9915C27.0992 10.68 26.8776 10.3033 26.7501 9.89122C25.7823 6.926 25.1687 4.41007 24.1392 1.79914C23.3369 -0.236711 21.2331 -0.173812 20.4295 1.86076C19.4052 4.46398 18.6902 7.05308 17.8648 9.86939Z" fill="url(#paint1_linear_876_3961)"/>
<g filter="url(#filter1_ii_876_3961)">
<path d="M7.52768 3.07893C7.45708 3.35235 7.21832 3.55645 6.93592 3.69765C6.13493 3.97491 5.50209 4.24191 4.97837 4.50121C4.51497 4.72969 4.51882 5.45367 4.98478 5.67959C5.52776 5.94402 6.20938 6.1969 6.96673 6.49727C7.17211 6.57814 7.45836 6.80663 7.53153 7.08774C7.75103 7.95163 8.0514 8.86559 8.38258 9.71022C8.63931 10.3662 9.27471 10.3649 9.53272 9.71022C9.86647 8.86045 10.1232 7.94136 10.4094 7.0672C10.4444 6.93453 10.5115 6.81252 10.6049 6.71199C10.6983 6.61146 10.815 6.5355 10.9447 6.49085C11.6044 6.25498 12.2552 5.99508 12.8959 5.71168C13.0128 5.65944 13.1124 5.57483 13.1828 5.46786C13.2532 5.36088 13.2915 5.23599 13.2933 5.10792C13.2951 4.97986 13.2601 4.85396 13.1927 4.7451C13.1252 4.63623 13.028 4.54893 12.9125 4.49351C12.3632 4.23421 11.6803 3.93255 10.9409 3.66427C10.8101 3.6176 10.692 3.54109 10.596 3.44082C10.5 3.34056 10.4286 3.21929 10.3876 3.08663C10.0757 2.13161 9.87802 1.32291 9.54684 0.480844C9.29011 -0.173813 8.61107 -0.153274 8.35306 0.501383C8.02316 1.3396 7.79339 2.17268 7.52768 3.07893Z" fill="url(#paint2_linear_876_3961)"/>
</g>
<path d="M7.52768 3.07893C7.45708 3.35235 7.21832 3.55645 6.93592 3.69765C6.13493 3.97491 5.50209 4.24191 4.97837 4.50121C4.51497 4.72969 4.51882 5.45367 4.98478 5.67959C5.52776 5.94402 6.20938 6.1969 6.96673 6.49727C7.17211 6.57814 7.45836 6.80663 7.53153 7.08774C7.75103 7.95163 8.0514 8.86559 8.38258 9.71022C8.63931 10.3662 9.27471 10.3649 9.53272 9.71022C9.86647 8.86045 10.1232 7.94136 10.4094 7.0672C10.4444 6.93453 10.5115 6.81252 10.6049 6.71199C10.6983 6.61146 10.815 6.5355 10.9447 6.49085C11.6044 6.25498 12.2552 5.99508 12.8959 5.71168C13.0128 5.65944 13.1124 5.57483 13.1828 5.46786C13.2532 5.36088 13.2915 5.23599 13.2933 5.10792C13.2951 4.97986 13.2601 4.85396 13.1927 4.7451C13.1252 4.63623 13.028 4.54893 12.9125 4.49351C12.3632 4.23421 11.6803 3.93255 10.9409 3.66427C10.8101 3.6176 10.692 3.54109 10.596 3.44082C10.5 3.34056 10.4286 3.21929 10.3876 3.08663C10.0757 2.13161 9.87802 1.32291 9.54684 0.480844C9.29011 -0.173813 8.61107 -0.153274 8.35306 0.501383C8.02316 1.3396 7.79339 2.17268 7.52768 3.07893Z" fill="url(#paint3_linear_876_3961)"/>
<g filter="url(#filter2_i_876_3961)">
<path d="M4.26464 21.3708C4.16708 21.7521 3.83333 22.0357 3.43925 22.2334C2.32249 22.6185 1.43934 22.9908 0.708951 23.3528C0.0632798 23.6724 0.069698 24.6813 0.717937 24.9958C1.47528 25.3655 2.42646 25.7185 3.4829 26.1383C3.76787 26.2499 4.16836 26.5683 4.26849 26.9598C4.57656 28.1638 4.99503 29.4398 5.45714 30.6182C5.81527 31.5321 6.70098 31.5308 7.0604 30.6182C7.52765 29.4321 7.88193 28.151 8.28243 26.9315C8.3311 26.7466 8.42461 26.5765 8.5547 26.4364C8.68479 26.2962 8.84743 26.1903 9.02823 26.128C9.94828 25.7989 10.856 25.4362 11.7495 25.0407C11.9122 24.9676 12.0506 24.8495 12.1484 24.7004C12.2463 24.5512 12.2995 24.3773 12.302 24.199C12.3044 24.0206 12.2559 23.8453 12.1621 23.6936C12.0684 23.5419 11.9332 23.4201 11.7726 23.3425C10.875 22.9146 9.95787 22.5287 9.02437 22.1859C8.84194 22.1208 8.67721 22.0141 8.54329 21.8741C8.40936 21.7342 8.30993 21.5649 8.25291 21.3798C7.81775 20.0487 7.54305 18.9203 7.08094 17.7471C6.72152 16.8357 5.77548 16.8627 5.41606 17.7766C4.95652 18.9447 4.63432 20.1064 4.26464 21.3708Z" fill="url(#paint4_radial_876_3961)"/>
</g>
<defs>
<filter id="filter0_iii_876_3961" x="8.4714" y="0.0531845" width="27.5504" height="32.1968" filterUnits="userSpaceOnUse" color-interpolation-filters="sRGB">
<feFlood flood-opacity="0" result="BackgroundImageFix"/>
<feBlend mode="normal" in="SourceGraphic" in2="BackgroundImageFix" result="shape"/>
<feColorMatrix in="SourceAlpha" type="matrix" values="0 0 0 0 0 0 0 0 0 0 0 0 0 0 0 0 0 0 127 0" result="hardAlpha"/>
<feOffset dx="0.25" dy="-0.25"/>
<feGaussianBlur stdDeviation="0.25"/>
<feComposite in2="hardAlpha" operator="arithmetic" k2="-1" k3="1"/>
<feColorMatrix type="matrix" values="0 0 0 0 0.937255 0 0 0 0 0.482353 0 0 0 0 0.329412 0 0 0 1 0"/>
<feBlend mode="normal" in2="shape" result="effect1_innerShadow_876_3961"/>
<feColorMatrix in="SourceAlpha" type="matrix" values="0 0 0 0 0 0 0 0 0 0 0 0 0 0 0 0 0 0 127 0" result="hardAlpha"/>
<feOffset dx="0.25" dy="0.25"/>
<feGaussianBlur stdDeviation="0.5"/>
<feComposite in2="hardAlpha" operator="arithmetic" k2="-1" k3="1"/>
<feColorMatrix type="matrix" values="0 0 0 0 0.737255 0 0 0 0 0.615686 0 0 0 0 0.415686 0 0 0 1 0"/>
<feBlend mode="normal" in2="effect1_innerShadow_876_3961" result="effect2_innerShadow_876_3961"/>
<feColorMatrix in="SourceAlpha" type="matrix" values="0 0 0 0 0 0 0 0 0 0 0 0 0 0 0 0 0 0 127 0" result="hardAlpha"/>
<feOffset dx="-0.4" dy="0.25"/>
<feGaussianBlur stdDeviation="0.2"/>
<feComposite in2="hardAlpha" operator="arithmetic" k2="-1" k3="1"/>
<feColorMatrix type="matrix" values="0 0 0 0 1 0 0 0 0 0.901961 0 0 0 0 0.458824 0 0 0 1 0"/>
<feBlend mode="normal" in2="effect2_innerShadow_876_3961" result="effect3_innerShadow_876_3961"/>
</filter>
<filter id="filter1_ii_876_3961" x="4.53306" y="0" width="8.86028" height="10.3017" filterUnits="userSpaceOnUse" color-interpolation-filters="sRGB">
<feFlood flood-opacity="0" result="BackgroundImageFix"/>
<feBlend mode="normal" in="SourceGraphic" in2="BackgroundImageFix" result="shape"/>
<feColorMatrix in="SourceAlpha" type="matrix" values="0 0 0 0 0 0 0 0 0 0 0 0 0 0 0 0 0 0 127 0" result="hardAlpha"/>
<feOffset dx="0.1" dy="0.1"/>
<feGaussianBlur stdDeviation="0.1"/>
<feComposite in2="hardAlpha" operator="arithmetic" k2="-1" k3="1"/>
<feColorMatrix type="matrix" values="0 0 0 0 0.803922 0 0 0 0 0.6 0 0 0 0 0.262745 0 0 0 1 0"/>
<feBlend mode="normal" in2="shape" result="effect1_innerShadow_876_3961"/>
<feColorMatrix in="SourceAlpha" type="matrix" values="0 0 0 0 0 0 0 0 0 0 0 0 0 0 0 0 0 0 127 0" result="hardAlpha"/>
<feOffset dx="-0.1" dy="0.1"/>
<feGaussianBlur stdDeviation="0.1"/>
<feComposite in2="hardAlpha" operator="arithmetic" k2="-1" k3="1"/>
<feColorMatrix type="matrix" values="0 0 0 0 1 0 0 0 0 0.882353 0 0 0 0 0.423529 0 0 0 1 0"/>
<feBlend mode="normal" in2="effect1_innerShadow_876_3961" result="effect2_innerShadow_876_3961"/>
</filter>
<filter id="filter2_i_876_3961" x="0.22821" y="16.9272" width="12.2239" height="14.376" filterUnits="userSpaceOnUse" color-interpolation-filters="sRGB">
<feFlood flood-opacity="0" result="BackgroundImageFix"/>
<feBlend mode="normal" in="SourceGraphic" in2="BackgroundImageFix" result="shape"/>
<feColorMatrix in="SourceAlpha" type="matrix" values="0 0 0 0 0 0 0 0 0 0 0 0 0 0 0 0 0 0 127 0" result="hardAlpha"/>
<feOffset dx="0.15" dy="-0.15"/>
<feGaussianBlur stdDeviation="0.15"/>
<feComposite in2="hardAlpha" operator="arithmetic" k2="-1" k3="1"/>
<feColorMatrix type="matrix" values="0 0 0 0 1 0 0 0 0 0.458824 0 0 0 0 0.462745 0 0 0 1 0"/>
<feBlend mode="normal" in2="shape" result="effect1_innerShadow_876_3961"/>
</filter>
<linearGradient id="paint0_linear_876_3961" x1="31.0966" y1="10.0812" x2="16.8777" y2="25.0484" gradientUnits="userSpaceOnUse">
<stop stop-color="#FFCF5A"/>
<stop offset="1" stop-color="#FEA254"/>
</linearGradient>
<linearGradient id="paint1_linear_876_3961" x1="16.4951" y1="33.2111" x2="24.2458" y2="16.8627" gradientUnits="userSpaceOnUse">
<stop stop-color="#FF886D"/>
<stop offset="1" stop-color="#FF886D" stop-opacity="0"/>
</linearGradient>
<linearGradient id="paint2_linear_876_3961" x1="11.7868" y1="3.14697" x2="7.21062" y2="7.96447" gradientUnits="userSpaceOnUse">
<stop stop-color="#FFDA72"/>
<stop offset="1" stop-color="#F7A967"/>
</linearGradient>
<linearGradient id="paint3_linear_876_3961" x1="8.96279" y1="10.9913" x2="8.96279" y2="5.69628" gradientUnits="userSpaceOnUse">
<stop stop-color="#FDA071"/>
<stop offset="1" stop-color="#FDA071" stop-opacity="0"/>
</linearGradient>
<radialGradient id="paint4_radial_876_3961" cx="0" cy="0" r="1" gradientUnits="userSpaceOnUse" gradientTransform="translate(10.4107 19.4466) rotate(127.221) scale(9.08302 8.84514)">
<stop offset="0.365" stop-color="#FFBC64"/>
<stop offset="1" stop-color="#FF8F6B"/>
</radialGradient>
</defs>
</svg>
